;TYPE=PLATED
;Layer: PTH_Through_Via
;EasyEDA Pro v3.2.148, 2026-08-04 10:02:06
;Gerber Generator version 0.3
M48
METRIC,LZ,0000.00000
;Hole size 1 = 0.30500 METRIC
T01C0.30500
%
G05
G90
T01
X12.6Y84.975
X64.25011Y53.04928
X46.26537Y25.21537
X47.62494Y25.22494
X49.62494Y25.25006
X66.9Y47.85
X123.0Y85.0
X32.6Y24.425
X33.975Y25.625
X30.425Y24.35
X34.2Y26.625
X32.96073Y26.605
X34.15Y23.175
X35.4562Y23.175
X38.95139Y23.175
X41.15239Y23.175
X39.35Y24.5
X42.625Y23.175
X61.0375Y28.4375
X35.205Y34.525
X35.205Y33.25
X131.73521Y67.25523
X132.58545Y67.25523
X132.58545Y68.61833
X135.17Y39.47
X131.73521Y68.61833
X130.88521Y68.61833
X130.88521Y67.25523
X130.88521Y65.89223
X131.73521Y65.89223
X132.58545Y65.89223
X60.58623Y51.92351
X124.02673Y24.07
X101.04209Y24.10525
X81.375Y24.10248
X126.575Y22.90005
X103.575Y22.97491
X83.875Y22.97501
X66.68732Y53.0788
X128.41269Y20.60644
X65.4018Y53.0372
X105.20116Y20.66719
X82.37Y52.27
X85.92836Y20.61419
X82.37Y49.06
X62.31584Y55.1356
X64.6068Y47.837
X87.63Y52.28
X22.6Y55.65
X87.61Y49.1
X22.6Y54.69684
X21.44588Y54.69684
X21.44588Y55.64601
X65.6602Y47.8496
X68.0552Y47.8834
X68.0704Y49.293
X68.0236Y52.0204
X68.023Y53.0642
X66.27102Y54.14366
X68.086Y50.7242
X53.56102Y56.41663
X54.38686Y56.39162
X56.541Y40.94112
X53.384Y40.95
X52.21293Y43.91299
X54.16865Y44.60635
X55.78614Y44.56386
X54.76698Y40.95
X11.725Y44.01498
X5.39607Y44.01498
X8.75906Y55.59906
X8.71227Y49.19902
X51.175Y43.275
X12.48Y53.825
X12.5Y50.675
X12.47837Y56.67627
X126.99Y32.61
X51.225Y31.5499
X45.5Y32.5499
X45.7034Y29.94829
X46.12507Y27.975
X47.12507Y27.975
X48.625Y27.975
X51.24999Y30.04978
X53.775Y60.175
X55.1109Y60.2
X46.90796Y52.89963
X46.18999Y53.08463
X58.836Y60.03318
X50.18791Y60.07298
X48.76277Y60.08298
X47.3358Y60.06318
X60.62496Y42.30816
X43.34515Y50.91757
X44.46539Y45.83529
X47.03003Y39.96669
X48.32508Y39.94174
X38.08317Y37.22507
X31.2301Y31.36833
X40.43392Y25.28301
X41.86021Y24.55801
X43.23451Y23.8339
X45.94613Y36.37483
X54.03571Y29.54991
X128.32162Y17.28815
X128.3092Y14.79932
X112.55266Y16.05004
X112.55845Y18.60005
X112.55555Y21.15005
X60.1808Y45.9081
X49.00981Y56.40036
X49.98585Y56.38125
X131.176Y97.9924
X131.1764Y96.13431
X136.65813Y97.96
X136.68354Y96.16621
X65.56Y57.74123
X61.625Y59.125
X140.64652Y90.35
X58.60678Y44.682
X145.71051Y85.15
X61.2574Y55.1356
X116.24861Y13.52361
X93.36628Y13.5
X73.64128Y13.525
X59.04197Y43.8754
X57.79742Y46.67212
X58.1Y43.1
X57.325Y42.825
X69.96Y21.125
X69.96809Y18.575
X69.96809Y16.05
X85.5319Y17.3
X85.5319Y14.775
X89.9181Y21.15
X89.9181Y18.625
X89.9181Y16.025
X105.2047Y17.325
X105.2047Y14.8
X81.68356Y16.05
X60.418Y49.3094
X23.0886Y69.25
X51.875Y15.1
X44.925Y15.05
X23.47056Y70.94124
X20.7842Y68.301
X31.0Y15.075
X16.51Y71.628
X17.39581Y76.49616
X24.14641Y76.49222
X24.42768Y64.516
X46.45Y51.33282
X47.1Y50.9
X45.9Y56.42171
X47.02997Y56.42171
X47.13499Y47.05
X78.57498Y30.0
X70.66541Y29.99103
X86.4654Y29.86603
X79.95492Y29.96498
X72.10003Y30.02998
X87.93453Y29.90498
X74.71499Y38.16499
X75.98499Y38.13601
X82.56504Y38.129
X83.83504Y38.08996
X48.08529Y53.27183
X53.38597Y54.58514
X54.58586Y54.575
X27.625Y77.0
X39.925Y77.025
X45.955Y60.105
X16.7802Y74.93025
X63.02008Y53.04512
X140.525Y75.49996
X142.55Y75.49996
X140.5Y80.35
X142.55Y80.35
X136.85334Y64.06286
X139.20058Y64.06286
X136.85334Y70.36876
X139.2297Y70.36876
X42.57491Y28.54991
X41.56453Y28.53953
X42.26909Y31.86909
X50.82037Y56.38445
X52.41087Y44.67499
X53.23175Y44.59325
X52.16681Y46.41682
X53.98591Y50.36608
X55.34519Y50.36608
X55.34519Y51.86191
X53.98591Y51.86191
X52.62679Y51.86191
X52.62679Y50.36608
X52.625Y49.15
X53.98591Y49.15
X55.35Y49.15
X54.675Y49.75
X53.25248Y49.75
X53.25248Y51.19916
X54.76875Y51.19916
X53.05668Y46.41832
X132.625Y55.425
X132.6Y57.25
X132.6Y59.125
X132.35Y61.35
X131.225Y60.675
X131.225Y62.475
X132.375Y62.5
X132.57518Y70.28523
X130.84938Y70.28523
X131.73508Y70.28523
X125.51136Y55.42501
X122.8Y57.25
X123.175Y53.80001
X124.11952Y53.80001
X135.59664Y57.18423
X54.15Y46.425
X127.65708Y55.42501
X55.025Y44.775
X54.98591Y46.425
X55.88682Y46.51318
X127.3Y51.07489
X127.275Y49.27488
X127.325Y47.69988
X132.62647Y51.0937
X132.66603Y49.29344
X61.002Y48.75734
X119.30503Y47.72489
X119.30503Y48.80022
X119.30503Y46.65022
X121.30503Y46.65022
X121.30503Y47.72489
X121.30503Y48.79988
X122.73085Y47.72489
X122.73085Y48.79988
X122.73085Y46.64989
X117.42466Y47.72489
X117.425Y46.65
X117.42466Y48.79988
X112.95Y51.025
X112.92Y44.43
X112.205Y47.75
X20.76433Y67.26613
X58.81906Y56.36906
X65.54975Y29.8816
X20.3Y78.975
X32.675Y78.975
X44.825Y79.00216
X57.15Y79.00216
X69.375Y79.00216
X81.6Y79.00216
X93.85Y79.00216
X106.125Y79.00216
X118.35Y79.00216
X130.575Y79.00216
X47.025Y32.41
X46.5Y29.175
X58.716Y37.15
X45.57498Y21.575
X47.02503Y21.575
X48.41252Y21.575
X49.85Y21.575
X51.225Y21.575
X108.9Y21.15
X108.9Y18.60005
X108.9Y16.05004
X132.075Y14.8
X132.075Y17.275
X115.33Y34.82
X31.35Y47.825
X31.325Y49.2
X31.35Y44.825
X41.175Y43.925
X33.88871Y50.38871
X14.0901Y77.38328
X26.975Y41.1
X76.15173Y60.575
X77.225Y58.05
X73.425Y58.82
X47.12507Y36.31494
X48.1499Y36.31494
X37.955Y31.86909
X31.19Y32.75
X42.16412Y37.22501
X41.79639Y37.90924
X42.5898Y37.90924
X45.9144Y40.3546
X4.6228Y61.8998
X12.4206Y61.5442
X4.5466Y75.0824
X44.4754Y25.66763
X42.1646Y35.8854
X51.435Y54.3306
X93.77497Y6.0
X40.45Y38.95
X39.4Y38.925
X47.875Y41.9
X47.875Y44.6
X66.15Y33.125
X67.47494Y33.13107
X68.725Y33.125
X74.075Y33.125
X75.34999Y33.13107
X76.625Y33.125
X81.925Y33.15
X83.20004Y33.1602
X84.475Y33.175
X66.175Y34.5
X67.47494Y34.32535
X68.725Y34.3
X74.05Y34.7
X75.34999Y34.68946
X76.55Y34.675
X81.925Y34.7
X83.20004Y34.68946
X84.4Y34.675
X46.09572Y30.79984
X47.57158Y30.79984
X56.6Y52.3
X56.6Y48.75
X51.15Y48.725
X51.15Y52.3
X53.98591Y53.48088
X37.9Y78.975
X25.6Y78.975
X50.125Y78.975
X62.325Y78.975
X74.6Y79.05
X98.85Y79.025
X111.375Y78.99996
X123.6Y78.99996
X86.875Y78.95
X48.05Y33.61
X47.18072Y33.61
X62.75Y31.3
X59.625Y32.67493
X35.475Y46.875
X35.475Y45.78926
X37.49641Y46.875
X39.22183Y46.875
X37.49641Y45.76013
X38.35Y47.875
X44.475Y45.025
X45.275Y45.825
X41.875Y44.2
X33.4252Y46.3
X127.32425Y45.42492
X135.41Y38.46
X61.25Y32.65
X62.73579Y32.65
X62.78579Y29.82617
X62.76079Y28.43692
X59.00221Y26.625
X9.37836Y98.8
X84.42Y45.59
X89.68Y45.55
X14.9365Y98.8
X19.93824Y98.8
X24.96181Y98.8
X30.00723Y98.8
X34.99926Y98.8
X39.98886Y98.8
X44.99787Y98.8
X50.00689Y98.8
X54.99649Y98.8
X59.9958Y98.8
X64.9854Y98.8
X69.85412Y98.8
X75.01314Y98.8
X80.00274Y98.8
X84.99234Y98.8
X90.00135Y98.8
X94.40341Y98.8
X99.99026Y98.8
X104.98957Y98.8
X109.98888Y98.8
X114.99789Y98.8
X120.73191Y98.8
X124.99651Y98.8
X129.98611Y98.8
X140.49922Y98.7112
X5.0Y80.2
X9.11881Y80.2
X12.19848Y80.2
X25.0Y80.2
X37.0Y80.2
X45.54689Y80.2
X61.0Y80.2
X70.0Y80.2
X85.97361Y80.2
X94.0062Y80.2
X110.11118Y80.2
X120.0Y80.2
X136.14128Y80.2
X148.85311Y80.2
X148.85311Y74.92402
X148.85311Y70.05879
X148.85311Y64.99699
X148.85311Y60.08262
X148.85311Y55.13339
X148.85311Y49.95903
X148.85311Y44.99187
X148.85311Y39.98286
X148.85311Y35.00297
X148.85311Y29.55424
X148.85311Y24.99464
X148.85311Y19.98563
X148.85311Y14.99603
X148.85311Y9.98701
X140.11756Y1.2
X134.95273Y1.2
X129.99468Y1.2
X125.16795Y1.2
X119.99121Y1.2
X115.0277Y1.2
X109.9659Y1.2
X105.05153Y1.2
X99.98973Y1.2
X94.97707Y1.2
X89.91528Y1.2
X85.00091Y1.2
X79.98825Y1.2
X74.92645Y1.2
X69.9138Y1.2
X64.99943Y1.2
X59.93763Y1.2
X55.02326Y1.2
X50.01061Y1.2
X44.99795Y1.2
X40.08358Y1.2
X35.63663Y1.2
X29.95998Y1.2
X24.99647Y1.2
X20.03296Y1.2
X15.0203Y1.2
X10.00765Y1.2
X1.2Y80.2
X61.05Y26.675
X56.78327Y27.025
X57.03327Y28.14162
X1.2Y85.02752
X1.2Y90.00559
X5.0Y85.0
X8.75Y85.0
X20.0Y85.0
X25.0Y85.0
X31.0Y85.0
X36.3Y85.0
X44.45835Y85.0
X49.59Y85.0
X55.92544Y85.0
X60.78085Y85.0
X70.0Y85.0
X80.40595Y84.97498
X85.18585Y84.94998
X90.27732Y84.94998
X94.483Y84.94998
X105.0Y85.0
X110.16636Y85.0
X115.0Y85.0
X119.02299Y85.0
X130.00146Y84.94998
X135.06872Y84.94998
X140.0Y85.0
X148.85079Y85.0
X148.85079Y90.02743
X1.2Y74.99902
X1.2Y69.98637
X1.2Y64.97371
X1.2Y59.81382
X1.2Y55.01393
X1.2Y49.93574
X1.2Y44.95585
X1.2Y40.27148
X1.2Y34.9633
X1.2Y29.98341
X1.2Y24.97076
X1.2Y19.99086
X1.2Y14.68597
X1.2Y9.99831
X21.19735Y80.2
X33.38498Y80.2
X48.65228Y80.2
X57.82577Y80.2
X73.92926Y80.2
X82.2338Y80.2
X98.58768Y80.2
X106.77288Y80.2
X122.49886Y80.2
X130.0Y80.3
X62.775Y26.675
X57.907Y51.9
X17.925Y54.17383
X17.925Y51.65919
X19.98241Y51.65919
X22.01368Y51.65919
X24.01219Y51.65919
X25.94517Y51.65919
X27.94368Y51.65919
X29.94219Y51.65919
X31.9407Y51.65919
X33.97197Y51.65919
X33.97197Y53.9198
X35.90496Y53.9198
X37.87071Y53.9198
X39.90198Y53.9198
X41.92779Y53.9198
X31.968Y53.9198
X29.93673Y53.9198
X27.94914Y53.9198
X25.96155Y53.9198
X24.01765Y53.9198
X14.19339Y53.74883
X15.93624Y51.65919
X13.92681Y51.65919
X10.65057Y51.65919
X56.225Y32.65
X36.7Y36.1
X34.83811Y36.1
X33.5Y35.0
X31.49229Y35.0
X29.48893Y35.0
X27.4795Y35.0
X26.37285Y35.0
X25.4Y36.0
X24.4Y37.0
X23.4Y38.0
X22.425Y38.825
X20.64988Y38.85
X19.05574Y38.85
X17.70499Y38.85036
X15.25Y36.425
X15.25Y34.7862
X15.7Y33.725
X16.35Y32.3
X18.15494Y32.3
X18.8Y33.575
X18.175Y34.8
X18.775Y36.15
X20.89458Y36.15
X22.1587Y36.15
X23.1Y35.225
X24.075Y34.225
X25.075Y33.25
X27.05Y32.825
X32.28567Y32.75123
X33.39231Y32.75123
X34.15Y32.125
X35.125Y31.775
X36.375Y31.175
X37.375Y31.0
X16.55Y38.525
X15.55Y37.5
X32.96093Y31.775
X32.2Y31.5
X30.875Y30.1
X30.075Y29.3
X29.1Y28.325
X28.125Y27.35
X27.375Y26.65
X26.125Y26.575
X24.64726Y26.575
X23.11997Y26.575
X22.65Y27.325
X20.6Y28.475
X20.7Y31.025
X21.975Y31.35
X23.2Y31.05
X24.75728Y31.05
X26.875Y31.275
X17.4Y26.9
X16.35Y27.2
X17.625Y29.75
X17.4Y25.775
X17.925Y24.85
X19.225Y24.4
X20.82579Y24.4
X22.3Y24.425
X23.89332Y24.425
X25.94158Y24.425
X27.61125Y24.425
X28.95Y25.075
X30.0Y26.125
X31.05Y27.05
X32.175Y28.475
X44.65Y20.925
X46.31558Y20.975
X49.075Y20.95
X52.3827Y20.95
X42.69792Y20.925
X40.70671Y20.95
X38.83322Y20.9
X35.525Y20.9
X33.69273Y20.9
X31.875Y19.7
X30.625Y18.35
X29.925Y16.0
X29.525Y14.325
X28.975Y11.88263
X28.975Y9.92128
X44.65Y18.75
X42.64215Y18.725
X40.71016Y18.725
X38.78765Y18.7
X35.51506Y18.725
X33.98369Y18.7
X32.875Y17.475
X32.175Y15.975
X32.45Y14.35
X33.0Y11.90647
X31.025Y8.525
X31.025Y6.8791
X34.475Y8.75
X34.475Y6.89346
X27.575Y6.875
X27.525Y8.75
X54.025Y20.95
X55.56548Y20.95
X51.325Y17.375
X49.50325Y17.375
X47.64671Y17.375
X46.42358Y17.375
X46.15Y15.675
X46.37621Y14.3837
X46.975Y11.975
X46.825Y10.05
X48.36069Y8.85141
X48.33568Y6.90777
X44.925Y6.85
X44.875Y8.87163
X44.925Y11.43115
X43.05Y10.05
X44.9Y9.99871
X42.875Y11.94773
X43.45Y14.35
X43.775Y15.96624
X43.775Y17.5
X51.825Y8.85
X41.32935Y8.87333
X41.37936Y6.83167
X51.85Y6.875
X55.35Y7.0
X55.375Y8.86584
X53.875Y11.78138
X53.35121Y14.32785
X53.175Y15.85
X55.0175Y15.85
X57.425Y15.875
X59.68064Y16.05
X60.875Y17.35
X62.0Y18.45
X63.2Y19.575
X50.575Y15.8
X50.32379Y14.34499
X49.725Y11.95
X49.775Y10.06875
X68.85Y29.875
X64.45Y30.225
X73.925Y29.825
X76.79507Y29.825
X81.8235Y29.825
X84.535Y29.545
X71.95Y23.175
X70.15Y23.425
X68.4914Y23.425
X66.89292Y23.425
X59.70298Y23.425
X58.27276Y23.425
X56.98591Y46.4
X55.818Y35.425
X57.57163Y37.12485
X53.525Y37.50336
X57.8Y32.675
X33.925Y42.2
X57.97933Y51.07068
X57.9375Y47.4875
X49.95Y48.025
X50.08Y54.33
X49.93Y49.87
X49.93Y52.09974
X69.6Y26.09
X71.69992Y26.19
X73.70981Y26.19
X75.7197Y26.19
X77.72959Y26.19
X79.73947Y26.19
X82.04Y26.57
X83.12Y27.68
X78.30192Y28.51
X64.48Y28.3
X71.35647Y12.76
X69.84219Y12.73
X91.76Y8.79
X92.88Y11.0
X95.04Y11.99
X96.82Y12.49
X92.7Y12.34
X108.61Y11.42
X110.15Y11.04
X111.1Y11.8
X113.76Y12.8
X118.78Y11.94
X119.87Y9.94
X120.54Y12.46
X119.68Y13.85
X110.57Y13.37
X120.87Y15.88
X119.35Y16.62
X97.07Y8.82
X16.01Y76.28
X16.73732Y62.5458
X77.37Y20.52
X77.36Y18.74259
X97.03Y18.99
X97.03Y20.4317
X120.2206Y20.8654
X120.2206Y18.95584
M30