G04 Layer: BottomSilkscreenLayer*
G04 EasyEDA Pro v3.2.148, 2026-08-04 10:02:05*
G04 Gerber Generator version 0.3*
G04 Scale: 100 percent, Rotated: No, Reflected: No*
G04 Dimensions in millimeters*
G04 Leading zeros omitted, absolute positions, 4 integers and 5 decimals*
G04 Generated by one-click*
G04 Object Configs: Pad,Via,Track,Text,Image,Dimension,BoardOutline,BoardCutout,CopperFilled,SolidRegion,FPCStiffener,Line,PlaneZone,ComponentProperty,ComponentSilkscreen,TearDrop*
G04 Layer Configs: 1,15,16,2,3,4,5,6,7,8,9,10,11,13,14,56*
G04 Copper Areas: 0*
%FSLAX45Y45*%
%MOMM*%
%ADD10C,0.254*%
%ADD11C,0.152*%
%ADD12C,0.1524*%
%ADD13C,0.0779*%
G75*


G04 Text Start*
G54D10*
G01X8817298Y8312854D02*
G01X8817298Y8198300D01*
G01X8689282Y8296598D02*
G01X8700204Y8307520D01*
G01X8716714Y8312854D01*
G01X8738304Y8312854D01*
G01X8754814Y8307520D01*
G01X8765736Y8296598D01*
G01X8765736Y8285676D01*
G01X8760148Y8274754D01*
G01X8754814Y8269420D01*
G01X8743892Y8263832D01*
G01X8711126Y8252910D01*
G01X8700204Y8247576D01*
G01X8694870Y8241988D01*
G01X8689282Y8231066D01*
G01X8689282Y8214810D01*
G01X8700204Y8203888D01*
G01X8716714Y8198300D01*
G01X8738304Y8198300D01*
G01X8754814Y8203888D01*
G01X8765736Y8214810D01*
G01X8604954Y8312854D02*
G01X8615876Y8307520D01*
G01X8626798Y8296598D01*
G01X8632132Y8285676D01*
G01X8637720Y8269420D01*
G01X8637720Y8241988D01*
G01X8632132Y8225732D01*
G01X8626798Y8214810D01*
G01X8615876Y8203888D01*
G01X8604954Y8198300D01*
G01X8583110Y8198300D01*
G01X8572188Y8203888D01*
G01X8561266Y8214810D01*
G01X8555932Y8225732D01*
G01X8550344Y8241988D01*
G01X8550344Y8269420D01*
G01X8555932Y8285676D01*
G01X8561266Y8296598D01*
G01X8572188Y8307520D01*
G01X8583110Y8312854D01*
G01X8604954Y8312854D01*
G01X8498782Y8312854D02*
G01X8498782Y8198300D01*
G01X8498782Y8198300D02*
G01X8433250Y8198300D01*
G01X8338000Y8312854D02*
G01X8381688Y8198300D01*
G01X8338000Y8312854D02*
G01X8294312Y8198300D01*
G01X8365178Y8236654D02*
G01X8310822Y8236654D01*
G01X8204650Y8312854D02*
G01X8204650Y8198300D01*
G01X8242750Y8312854D02*
G01X8166296Y8312854D01*
G01X8114734Y8312854D02*
G01X8114734Y8198300D01*
G01X8030406Y8312854D02*
G01X8041328Y8307520D01*
G01X8052250Y8296598D01*
G01X8057584Y8285676D01*
G01X8063172Y8269420D01*
G01X8063172Y8241988D01*
G01X8057584Y8225732D01*
G01X8052250Y8214810D01*
G01X8041328Y8203888D01*
G01X8030406Y8198300D01*
G01X8008562Y8198300D01*
G01X7997640Y8203888D01*
G01X7986718Y8214810D01*
G01X7981384Y8225732D01*
G01X7975796Y8241988D01*
G01X7975796Y8269420D01*
G01X7981384Y8285676D01*
G01X7986718Y8296598D01*
G01X7997640Y8307520D01*
G01X8008562Y8312854D01*
G01X8030406Y8312854D01*
G01X7924234Y8312854D02*
G01X7924234Y8198300D01*
G01X7924234Y8312854D02*
G01X7847780Y8198300D01*
G01X7847780Y8312854D02*
G01X7847780Y8198300D01*
G01X7674044Y8312854D02*
G01X7674044Y8198300D01*
G01X7674044Y8312854D02*
G01X7624768Y8312854D01*
G01X7608512Y8307520D01*
G01X7602924Y8302186D01*
G01X7597590Y8291264D01*
G01X7597590Y8280342D01*
G01X7602924Y8269420D01*
G01X7608512Y8263832D01*
G01X7624768Y8258498D01*
G01X7674044Y8258498D02*
G01X7624768Y8258498D01*
G01X7608512Y8252910D01*
G01X7602924Y8247576D01*
G01X7597590Y8236654D01*
G01X7597590Y8220144D01*
G01X7602924Y8209222D01*
G01X7608512Y8203888D01*
G01X7624768Y8198300D01*
G01X7674044Y8198300D01*
G01X7502340Y8312854D02*
G01X7546028Y8198300D01*
G01X7502340Y8312854D02*
G01X7458652Y8198300D01*
G01X7529518Y8236654D02*
G01X7475162Y8236654D01*
G01X7407090Y8312854D02*
G01X7407090Y8198300D01*
G01X7407090Y8312854D02*
G01X7358068Y8312854D01*
G01X7341558Y8307520D01*
G01X7336224Y8302186D01*
G01X7330636Y8291264D01*
G01X7330636Y8280342D01*
G01X7336224Y8269420D01*
G01X7341558Y8263832D01*
G01X7358068Y8258498D01*
G01X7407090Y8258498D01*
G01X7368990Y8258498D02*
G01X7330636Y8198300D01*
G01X7279074Y8312854D02*
G01X7279074Y8198300D01*
G01X7279074Y8312854D02*
G01X7230052Y8312854D01*
G01X7213542Y8307520D01*
G01X7208208Y8302186D01*
G01X7202620Y8291264D01*
G01X7202620Y8280342D01*
G01X7208208Y8269420D01*
G01X7213542Y8263832D01*
G01X7230052Y8258498D01*
G01X7279074Y8258498D01*
G01X7240974Y8258498D02*
G01X7202620Y8198300D01*
G01X7151058Y8312854D02*
G01X7151058Y8198300D01*
G01X7099496Y8312854D02*
G01X7099496Y8198300D01*
G01X7099496Y8312854D02*
G01X7028630Y8312854D01*
G01X7099496Y8258498D02*
G01X7055808Y8258498D01*
G01X7099496Y8198300D02*
G01X7028630Y8198300D01*
G01X6977068Y8312854D02*
G01X6977068Y8198300D01*
G01X6977068Y8312854D02*
G01X6928046Y8312854D01*
G01X6911536Y8307520D01*
G01X6906202Y8302186D01*
G01X6900614Y8291264D01*
G01X6900614Y8280342D01*
G01X6906202Y8269420D01*
G01X6911536Y8263832D01*
G01X6928046Y8258498D01*
G01X6977068Y8258498D01*
G01X6938968Y8258498D02*
G01X6900614Y8198300D01*
G01X6688524Y8334698D02*
G01X6699446Y8323776D01*
G01X6710368Y8307520D01*
G01X6721290Y8285676D01*
G01X6726878Y8258498D01*
G01X6726878Y8236654D01*
G01X6721290Y8209222D01*
G01X6710368Y8187378D01*
G01X6699446Y8171122D01*
G01X6688524Y8160200D01*
G01X6631374Y8285676D02*
G01X6631374Y8291264D01*
G01X6626040Y8302186D01*
G01X6620452Y8307520D01*
G01X6609530Y8312854D01*
G01X6587940Y8312854D01*
G01X6577018Y8307520D01*
G01X6571430Y8302186D01*
G01X6566096Y8291264D01*
G01X6566096Y8280342D01*
G01X6571430Y8269420D01*
G01X6582352Y8252910D01*
G01X6636962Y8198300D01*
G01X6560508Y8198300D01*
G01X6508946Y8274754D02*
G01X6508946Y8198300D01*
G01X6508946Y8252910D02*
G01X6492436Y8269420D01*
G01X6481514Y8274754D01*
G01X6465258Y8274754D01*
G01X6454336Y8269420D01*
G01X6449002Y8252910D01*
G01X6449002Y8198300D01*
G01X6449002Y8252910D02*
G01X6432492Y8269420D01*
G01X6421570Y8274754D01*
G01X6405314Y8274754D01*
G01X6394392Y8269420D01*
G01X6388804Y8252910D01*
G01X6388804Y8198300D01*
G01X6337242Y8274754D02*
G01X6337242Y8198300D01*
G01X6337242Y8252910D02*
G01X6320732Y8269420D01*
G01X6309810Y8274754D01*
G01X6293554Y8274754D01*
G01X6282632Y8269420D01*
G01X6277298Y8252910D01*
G01X6277298Y8198300D01*
G01X6277298Y8252910D02*
G01X6260788Y8269420D01*
G01X6249866Y8274754D01*
G01X6233610Y8274754D01*
G01X6222688Y8269420D01*
G01X6217100Y8252910D01*
G01X6217100Y8198300D01*
G01X6165538Y8334698D02*
G01X6154616Y8323776D01*
G01X6143694Y8307520D01*
G01X6132772Y8285676D01*
G01X6127438Y8258498D01*
G01X6127438Y8236654D01*
G01X6132772Y8209222D01*
G01X6143694Y8187378D01*
G01X6154616Y8171122D01*
G01X6165538Y8160200D01*
G01X9321860Y7155354D02*
G01X9321860Y7040800D01*
G01X9321860Y7155354D02*
G01X9272838Y7155354D01*
G01X9256328Y7150020D01*
G01X9250994Y7144686D01*
G01X9245406Y7133764D01*
G01X9245406Y7122842D01*
G01X9250994Y7111920D01*
G01X9256328Y7106332D01*
G01X9272838Y7100998D01*
G01X9321860Y7100998D01*
G01X9283760Y7100998D02*
G01X9245406Y7040800D01*
G01X9193844Y7084488D02*
G01X9128312Y7084488D01*
G01X9128312Y7095410D01*
G01X9133900Y7106332D01*
G01X9139234Y7111920D01*
G01X9150156Y7117254D01*
G01X9166412Y7117254D01*
G01X9177334Y7111920D01*
G01X9188256Y7100998D01*
G01X9193844Y7084488D01*
G01X9193844Y7073566D01*
G01X9188256Y7057310D01*
G01X9177334Y7046388D01*
G01X9166412Y7040800D01*
G01X9150156Y7040800D01*
G01X9139234Y7046388D01*
G01X9128312Y7057310D01*
G01X9011218Y7100998D02*
G01X9022140Y7111920D01*
G01X9033062Y7117254D01*
G01X9049318Y7117254D01*
G01X9060240Y7111920D01*
G01X9071162Y7100998D01*
G01X9076750Y7084488D01*
G01X9076750Y7073566D01*
G01X9071162Y7057310D01*
G01X9060240Y7046388D01*
G01X9049318Y7040800D01*
G01X9033062Y7040800D01*
G01X9022140Y7046388D01*
G01X9011218Y7057310D01*
G01X8943146Y7155354D02*
G01X8943146Y7062644D01*
G01X8937812Y7046388D01*
G01X8926890Y7040800D01*
G01X8915968Y7040800D01*
G01X8959656Y7117254D02*
G01X8921556Y7117254D01*
G01X8798874Y7117254D02*
G01X8798874Y7040800D01*
G01X8798874Y7100998D02*
G01X8809796Y7111920D01*
G01X8820718Y7117254D01*
G01X8836974Y7117254D01*
G01X8847896Y7111920D01*
G01X8858818Y7100998D01*
G01X8864406Y7084488D01*
G01X8864406Y7073566D01*
G01X8858818Y7057310D01*
G01X8847896Y7046388D01*
G01X8836974Y7040800D01*
G01X8820718Y7040800D01*
G01X8809796Y7046388D01*
G01X8798874Y7057310D01*
G01X8747312Y7155354D02*
G01X8747312Y7040800D01*
G01X8747312Y7155354D02*
G01X8698290Y7155354D01*
G01X8681780Y7150020D01*
G01X8676446Y7144686D01*
G01X8670858Y7133764D01*
G01X8670858Y7122842D01*
G01X8676446Y7111920D01*
G01X8681780Y7106332D01*
G01X8698290Y7100998D01*
G01X8747312Y7100998D02*
G01X8698290Y7100998D01*
G01X8681780Y7095410D01*
G01X8676446Y7090076D01*
G01X8670858Y7079154D01*
G01X8670858Y7062644D01*
G01X8676446Y7051722D01*
G01X8681780Y7046388D01*
G01X8698290Y7040800D01*
G01X8747312Y7040800D01*
G01X8591864Y7117254D02*
G01X8602786Y7111920D01*
G01X8613708Y7100998D01*
G01X8619296Y7084488D01*
G01X8619296Y7073566D01*
G01X8613708Y7057310D01*
G01X8602786Y7046388D01*
G01X8591864Y7040800D01*
G01X8575608Y7040800D01*
G01X8564686Y7046388D01*
G01X8553764Y7057310D01*
G01X8548430Y7073566D01*
G01X8548430Y7084488D01*
G01X8553764Y7100998D01*
G01X8564686Y7111920D01*
G01X8575608Y7117254D01*
G01X8591864Y7117254D01*
G01X8480358Y7155354D02*
G01X8480358Y7062644D01*
G01X8475024Y7046388D01*
G01X8464102Y7040800D01*
G01X8453180Y7040800D01*
G01X8496868Y7117254D02*
G01X8458768Y7117254D01*
G01X8279444Y7117254D02*
G01X8246678Y7040800D01*
G01X8213912Y7117254D02*
G01X8246678Y7040800D01*
G01X8162350Y7133764D02*
G01X8151428Y7139098D01*
G01X8134918Y7155354D01*
G01X8134918Y7040800D01*
G01X8077768Y7068232D02*
G01X8083356Y7062644D01*
G01X8077768Y7057310D01*
G01X8072434Y7062644D01*
G01X8077768Y7068232D01*
G01X7988106Y7155354D02*
G01X8004362Y7150020D01*
G01X8015284Y7133764D01*
G01X8020872Y7106332D01*
G01X8020872Y7090076D01*
G01X8015284Y7062644D01*
G01X8004362Y7046388D01*
G01X7988106Y7040800D01*
G01X7977184Y7040800D01*
G01X7960928Y7046388D01*
G01X7950006Y7062644D01*
G01X7944418Y7090076D01*
G01X7944418Y7106332D01*
G01X7950006Y7133764D01*
G01X7960928Y7150020D01*
G01X7977184Y7155354D01*
G01X7988106Y7155354D01*
G01X7770682Y7177198D02*
G01X7770682Y7002700D01*
G01X7596692Y7155354D02*
G01X7596692Y7040800D01*
G01X7596692Y7155354D02*
G01X7547670Y7155354D01*
G01X7531414Y7150020D01*
G01X7525826Y7144686D01*
G01X7520492Y7133764D01*
G01X7520492Y7122842D01*
G01X7525826Y7111920D01*
G01X7531414Y7106332D01*
G01X7547670Y7100998D01*
G01X7596692Y7100998D01*
G01X7558592Y7100998D02*
G01X7520492Y7040800D01*
G01X7468930Y7155354D02*
G01X7468930Y7040800D01*
G01X7468930Y7155354D02*
G01X7419908Y7155354D01*
G01X7403398Y7150020D01*
G01X7398064Y7144686D01*
G01X7392476Y7133764D01*
G01X7392476Y7117254D01*
G01X7398064Y7106332D01*
G01X7403398Y7100998D01*
G01X7419908Y7095410D01*
G01X7468930Y7095410D01*
G01X7335326Y7128176D02*
G01X7335326Y7133764D01*
G01X7329992Y7144686D01*
G01X7324404Y7150020D01*
G01X7313482Y7155354D01*
G01X7291892Y7155354D01*
G01X7280970Y7150020D01*
G01X7275382Y7144686D01*
G01X7270048Y7133764D01*
G01X7270048Y7122842D01*
G01X7275382Y7111920D01*
G01X7286304Y7095410D01*
G01X7340914Y7040800D01*
G01X7264460Y7040800D01*
G01X7201976Y7155354D02*
G01X7142032Y7155354D01*
G01X7174798Y7111920D01*
G01X7158288Y7111920D01*
G01X7147366Y7106332D01*
G01X7142032Y7100998D01*
G01X7136444Y7084488D01*
G01X7136444Y7073566D01*
G01X7142032Y7057310D01*
G01X7152954Y7046388D01*
G01X7169210Y7040800D01*
G01X7185466Y7040800D01*
G01X7201976Y7046388D01*
G01X7207310Y7051722D01*
G01X7212898Y7062644D01*
G01X7019350Y7155354D02*
G01X7073960Y7155354D01*
G01X7079294Y7106332D01*
G01X7073960Y7111920D01*
G01X7057450Y7117254D01*
G01X7041194Y7117254D01*
G01X7024938Y7111920D01*
G01X7014016Y7100998D01*
G01X7008428Y7084488D01*
G01X7008428Y7073566D01*
G01X7014016Y7057310D01*
G01X7024938Y7046388D01*
G01X7041194Y7040800D01*
G01X7057450Y7040800D01*
G01X7073960Y7046388D01*
G01X7079294Y7051722D01*
G01X7084882Y7062644D01*
G01X6924100Y7155354D02*
G01X6940356Y7150020D01*
G01X6951278Y7133764D01*
G01X6956866Y7106332D01*
G01X6956866Y7090076D01*
G01X6951278Y7062644D01*
G01X6940356Y7046388D01*
G01X6924100Y7040800D01*
G01X6913178Y7040800D01*
G01X6896922Y7046388D01*
G01X6886000Y7062644D01*
G01X6880412Y7090076D01*
G01X6880412Y7106332D01*
G01X6886000Y7133764D01*
G01X6896922Y7150020D01*
G01X6913178Y7155354D01*
G01X6924100Y7155354D01*
G01X6828850Y7155354D02*
G01X6828850Y7040800D01*
G01X6828850Y7155354D02*
G01X6779828Y7155354D01*
G01X6763318Y7150020D01*
G01X6757984Y7144686D01*
G01X6752396Y7133764D01*
G01X6752396Y7122842D01*
G01X6757984Y7111920D01*
G01X6763318Y7106332D01*
G01X6779828Y7100998D01*
G01X6828850Y7100998D02*
G01X6779828Y7100998D01*
G01X6763318Y7095410D01*
G01X6757984Y7090076D01*
G01X6752396Y7079154D01*
G01X6752396Y7062644D01*
G01X6757984Y7051722D01*
G01X6763318Y7046388D01*
G01X6779828Y7040800D01*
G01X6828850Y7040800D01*
G01X6529384Y7139098D02*
G01X6529384Y7040800D01*
G01X6578660Y7090076D02*
G01X6480362Y7090076D01*
G01X6241094Y7117254D02*
G01X6241094Y7029878D01*
G01X6246428Y7013622D01*
G01X6252016Y7008034D01*
G01X6262938Y7002700D01*
G01X6279194Y7002700D01*
G01X6290116Y7008034D01*
G01X6241094Y7100998D02*
G01X6252016Y7111920D01*
G01X6262938Y7117254D01*
G01X6279194Y7117254D01*
G01X6290116Y7111920D01*
G01X6301038Y7100998D01*
G01X6306626Y7084488D01*
G01X6306626Y7073566D01*
G01X6301038Y7057310D01*
G01X6290116Y7046388D01*
G01X6279194Y7040800D01*
G01X6262938Y7040800D01*
G01X6252016Y7046388D01*
G01X6241094Y7057310D01*
G01X6189532Y7117254D02*
G01X6189532Y7040800D01*
G01X6189532Y7084488D02*
G01X6183944Y7100998D01*
G01X6173022Y7111920D01*
G01X6162100Y7117254D01*
G01X6145844Y7117254D01*
G01X6094282Y7155354D02*
G01X6094282Y7040800D01*
G01X6094282Y7100998D02*
G01X6083360Y7111920D01*
G01X6072438Y7117254D01*
G01X6056182Y7117254D01*
G01X6045260Y7111920D01*
G01X6034338Y7100998D01*
G01X6028750Y7084488D01*
G01X6028750Y7073566D01*
G01X6034338Y7057310D01*
G01X6045260Y7046388D01*
G01X6056182Y7040800D01*
G01X6072438Y7040800D01*
G01X6083360Y7046388D01*
G01X6094282Y7057310D01*
G01X5977188Y7155354D02*
G01X5977188Y7040800D01*
G01X5925626Y7155354D02*
G01X5925626Y7040800D01*
G01X5849172Y7155354D02*
G01X5849172Y7040800D01*
G01X5925626Y7100998D02*
G01X5849172Y7100998D01*
G01X5753922Y7155354D02*
G01X5797610Y7040800D01*
G01X5753922Y7155354D02*
G01X5710234Y7040800D01*
G01X5781100Y7079154D02*
G01X5726744Y7079154D01*
G01X5658672Y7155354D02*
G01X5658672Y7040800D01*
G01X5658672Y7040800D02*
G01X5593140Y7040800D01*
G01X9321860Y6955456D02*
G01X9321860Y6840902D01*
G01X9321860Y6955456D02*
G01X9278172Y6840902D01*
G01X9234484Y6955456D02*
G01X9278172Y6840902D01*
G01X9234484Y6955456D02*
G01X9234484Y6840902D01*
G01X9117390Y6917356D02*
G01X9117390Y6840902D01*
G01X9117390Y6900846D02*
G01X9128312Y6911768D01*
G01X9139234Y6917356D01*
G01X9155490Y6917356D01*
G01X9166412Y6911768D01*
G01X9177334Y6900846D01*
G01X9182922Y6884590D01*
G01X9182922Y6873668D01*
G01X9177334Y6857158D01*
G01X9166412Y6846236D01*
G01X9155490Y6840902D01*
G01X9139234Y6840902D01*
G01X9128312Y6846236D01*
G01X9117390Y6857158D01*
G01X9000296Y6955456D02*
G01X9000296Y6840902D01*
G01X9000296Y6900846D02*
G01X9011218Y6911768D01*
G01X9022140Y6917356D01*
G01X9038396Y6917356D01*
G01X9049318Y6911768D01*
G01X9060240Y6900846D01*
G01X9065828Y6884590D01*
G01X9065828Y6873668D01*
G01X9060240Y6857158D01*
G01X9049318Y6846236D01*
G01X9038396Y6840902D01*
G01X9022140Y6840902D01*
G01X9011218Y6846236D01*
G01X9000296Y6857158D01*
G01X8948734Y6884590D02*
G01X8883202Y6884590D01*
G01X8883202Y6895512D01*
G01X8888790Y6906434D01*
G01X8894124Y6911768D01*
G01X8905046Y6917356D01*
G01X8921302Y6917356D01*
G01X8932224Y6911768D01*
G01X8943146Y6900846D01*
G01X8948734Y6884590D01*
G01X8948734Y6873668D01*
G01X8943146Y6857158D01*
G01X8932224Y6846236D01*
G01X8921302Y6840902D01*
G01X8905046Y6840902D01*
G01X8894124Y6846236D01*
G01X8883202Y6857158D01*
G01X8709466Y6955456D02*
G01X8703878Y6950122D01*
G01X8698544Y6955456D01*
G01X8703878Y6961044D01*
G01X8709466Y6955456D01*
G01X8703878Y6917356D02*
G01X8703878Y6840902D01*
G01X8646982Y6917356D02*
G01X8646982Y6840902D01*
G01X8646982Y6895512D02*
G01X8630472Y6911768D01*
G01X8619550Y6917356D01*
G01X8603294Y6917356D01*
G01X8592372Y6911768D01*
G01X8587038Y6895512D01*
G01X8587038Y6840902D01*
G01X8358692Y6955456D02*
G01X8358692Y6868080D01*
G01X8364026Y6851824D01*
G01X8369614Y6846236D01*
G01X8380536Y6840902D01*
G01X8391458Y6840902D01*
G01X8402380Y6846236D01*
G01X8407714Y6851824D01*
G01X8413302Y6868080D01*
G01X8413302Y6879002D01*
G01X8307130Y6955456D02*
G01X8307130Y6840902D01*
G01X8307130Y6840902D02*
G01X8241598Y6840902D01*
G01X8108248Y6928278D02*
G01X8113582Y6939200D01*
G01X8124504Y6950122D01*
G01X8135426Y6955456D01*
G01X8157270Y6955456D01*
G01X8168192Y6950122D01*
G01X8179114Y6939200D01*
G01X8184448Y6928278D01*
G01X8190036Y6911768D01*
G01X8190036Y6884590D01*
G01X8184448Y6868080D01*
G01X8179114Y6857158D01*
G01X8168192Y6846236D01*
G01X8157270Y6840902D01*
G01X8135426Y6840902D01*
G01X8124504Y6846236D01*
G01X8113582Y6857158D01*
G01X8108248Y6868080D01*
G01X8056686Y6955456D02*
G01X8056686Y6840902D01*
G01X8056686Y6955456D02*
G01X8007664Y6955456D01*
G01X7991154Y6950122D01*
G01X7985820Y6944534D01*
G01X7980232Y6933612D01*
G01X7980232Y6917356D01*
G01X7985820Y6906434D01*
G01X7991154Y6900846D01*
G01X8007664Y6895512D01*
G01X8056686Y6895512D01*
G01X7846882Y6928278D02*
G01X7852216Y6939200D01*
G01X7863138Y6950122D01*
G01X7874060Y6955456D01*
G01X7895904Y6955456D01*
G01X7906826Y6950122D01*
G01X7917748Y6939200D01*
G01X7923082Y6928278D01*
G01X7928670Y6911768D01*
G01X7928670Y6884590D01*
G01X7923082Y6868080D01*
G01X7917748Y6857158D01*
G01X7906826Y6846236D01*
G01X7895904Y6840902D01*
G01X7874060Y6840902D01*
G01X7863138Y6846236D01*
G01X7852216Y6857158D01*
G01X7846882Y6868080D01*
G01X7795320Y6955456D02*
G01X7795320Y6840902D01*
G01X7795320Y6955456D02*
G01X7746298Y6955456D01*
G01X7729788Y6950122D01*
G01X7724454Y6944534D01*
G01X7718866Y6933612D01*
G01X7718866Y6922690D01*
G01X7724454Y6911768D01*
G01X7729788Y6906434D01*
G01X7746298Y6900846D01*
G01X7795320Y6900846D02*
G01X7746298Y6900846D01*
G01X7729788Y6895512D01*
G01X7724454Y6889924D01*
G01X7718866Y6879002D01*
G01X7718866Y6862746D01*
G01X7724454Y6851824D01*
G01X7729788Y6846236D01*
G01X7746298Y6840902D01*
G01X7795320Y6840902D01*
G01X7545130Y6977300D02*
G01X7545130Y6802802D01*
G01X7316784Y6955456D02*
G01X7371140Y6879002D01*
G01X7289352Y6879002D01*
G01X7316784Y6955456D02*
G01X7316784Y6840902D01*
G01X7237790Y6889924D02*
G01X7139492Y6889924D01*
G01X7087930Y6955456D02*
G01X7087930Y6840902D01*
G01X6970836Y6917356D02*
G01X6970836Y6840902D01*
G01X6970836Y6900846D02*
G01X6981758Y6911768D01*
G01X6992680Y6917356D01*
G01X7008936Y6917356D01*
G01X7019858Y6911768D01*
G01X7030780Y6900846D01*
G01X7036368Y6884590D01*
G01X7036368Y6873668D01*
G01X7030780Y6857158D01*
G01X7019858Y6846236D01*
G01X7008936Y6840902D01*
G01X6992680Y6840902D01*
G01X6981758Y6846236D01*
G01X6970836Y6857158D01*
G01X6913686Y6917356D02*
G01X6881174Y6840902D01*
G01X6848408Y6917356D02*
G01X6881174Y6840902D01*
G01X6891842Y6819058D01*
G01X6902764Y6808136D01*
G01X6913686Y6802802D01*
G01X6919274Y6802802D01*
G01X6796846Y6884590D02*
G01X6731314Y6884590D01*
G01X6731314Y6895512D01*
G01X6736902Y6906434D01*
G01X6742236Y6911768D01*
G01X6753158Y6917356D01*
G01X6769414Y6917356D01*
G01X6780336Y6911768D01*
G01X6791258Y6900846D01*
G01X6796846Y6884590D01*
G01X6796846Y6873668D01*
G01X6791258Y6857158D01*
G01X6780336Y6846236D01*
G01X6769414Y6840902D01*
G01X6753158Y6840902D01*
G01X6742236Y6846236D01*
G01X6731314Y6857158D01*
G01X6679752Y6917356D02*
G01X6679752Y6840902D01*
G01X6679752Y6884590D02*
G01X6674164Y6900846D01*
G01X6663242Y6911768D01*
G01X6652320Y6917356D01*
G01X6636064Y6917356D01*
G01X6462328Y6977300D02*
G01X6462328Y6802802D01*
G01X6288338Y6933612D02*
G01X6277416Y6939200D01*
G01X6261160Y6955456D01*
G01X6261160Y6840902D01*
G01X6204010Y6868080D02*
G01X6209598Y6862746D01*
G01X6204010Y6857158D01*
G01X6198676Y6862746D01*
G01X6204010Y6868080D01*
G01X6081582Y6939200D02*
G01X6087170Y6950122D01*
G01X6103426Y6955456D01*
G01X6114348Y6955456D01*
G01X6130604Y6950122D01*
G01X6141526Y6933612D01*
G01X6147114Y6906434D01*
G01X6147114Y6879002D01*
G01X6141526Y6857158D01*
G01X6130604Y6846236D01*
G01X6114348Y6840902D01*
G01X6109014Y6840902D01*
G01X6092504Y6846236D01*
G01X6081582Y6857158D01*
G01X6076248Y6873668D01*
G01X6076248Y6879002D01*
G01X6081582Y6895512D01*
G01X6092504Y6906434D01*
G01X6109014Y6911768D01*
G01X6114348Y6911768D01*
G01X6130604Y6906434D01*
G01X6141526Y6895512D01*
G01X6147114Y6879002D01*
G01X6024686Y6917356D02*
G01X6024686Y6840902D01*
G01X6024686Y6895512D02*
G01X6008176Y6911768D01*
G01X5997254Y6917356D01*
G01X5980998Y6917356D01*
G01X5970076Y6911768D01*
G01X5964742Y6895512D01*
G01X5964742Y6840902D01*
G01X5964742Y6895512D02*
G01X5948232Y6911768D01*
G01X5937310Y6917356D01*
G01X5921054Y6917356D01*
G01X5910132Y6911768D01*
G01X5904544Y6895512D01*
G01X5904544Y6840902D01*
G01X5852982Y6917356D02*
G01X5852982Y6840902D01*
G01X5852982Y6895512D02*
G01X5836472Y6911768D01*
G01X5825550Y6917356D01*
G01X5809294Y6917356D01*
G01X5798372Y6911768D01*
G01X5793038Y6895512D01*
G01X5793038Y6840902D01*
G01X5793038Y6895512D02*
G01X5776528Y6911768D01*
G01X5765606Y6917356D01*
G01X5749350Y6917356D01*
G01X5738428Y6911768D01*
G01X5732840Y6895512D01*
G01X5732840Y6840902D01*
G36*
G01X12093257Y8787121D02*
G01X12096287Y8785000D01*
G01X12098711Y8783182D01*
G01X12099620Y8780758D01*
G01X12099393Y8779773D01*
G01X12098711Y8779848D01*
G01X12093863Y8782273D01*
G01X12091439Y8783788D01*
G01X12088408Y8785606D01*
G01X12084166Y8788636D01*
G01X12082045Y8790454D01*
G01X12078408Y8793485D01*
G01X12072348Y8799545D01*
G01X12070530Y8801970D01*
G01X12068711Y8804091D01*
G01X12067499Y8805606D01*
G01X12065681Y8808030D01*
G01X12063863Y8810758D01*
G01X12060833Y8815606D01*
G01X12059621Y8817727D01*
G01X12054772Y8827424D01*
G01X12052045Y8834697D01*
G01X12051136Y8837424D01*
G01X12050227Y8840455D01*
G01X12049621Y8843182D01*
G01X12049015Y8845606D01*
G01X12047802Y8851667D01*
G01X12047196Y8855303D01*
G01X12046893Y8858636D01*
G01X12046590Y8860758D01*
G01X12046287Y8871364D01*
G01X12046590Y8881970D01*
G01X12047802Y8890455D01*
G01X12049015Y8895909D01*
G01X12049924Y8898939D01*
G01X12051136Y8902879D01*
G01X12053560Y8910152D01*
G01X12054772Y8912879D01*
G01X12055984Y8915303D01*
G01X12057196Y8918334D01*
G01X12060227Y8923788D01*
G01X12061439Y8925909D01*
G01X12063863Y8929546D01*
G01X12066893Y8933788D01*
G01X12068105Y8935303D01*
G01X12069924Y8937727D01*
G01X12072045Y8939849D01*
G01X12075681Y8944091D01*
G01X12078105Y8945909D01*
G01X12080227Y8948030D01*
G01X12082045Y8949546D01*
G01X12083863Y8950758D01*
G01X12085378Y8951970D01*
G01X12087499Y8953485D01*
G01X12092348Y8956515D01*
G01X12095075Y8958030D01*
G01X12097499Y8959243D01*
G01X12099014Y8960152D01*
G01X12099469Y8959849D01*
G01X12099620Y8958333D01*
G01X12099393Y8956667D01*
G01X12098711Y8955909D01*
G01X12096287Y8954394D01*
G01X12093863Y8952576D01*
G01X12092348Y8951061D01*
G01X12089317Y8948637D01*
G01X12087802Y8947121D01*
G01X12084772Y8943485D01*
G01X12082954Y8941364D01*
G01X12079924Y8937121D01*
G01X12076893Y8932273D01*
G01X12074166Y8926818D01*
G01X12073257Y8924697D01*
G01X12072348Y8922273D01*
G01X12071439Y8919546D01*
G01X12070833Y8917121D01*
G01X12069924Y8914091D01*
G01X12069014Y8909546D01*
G01X12068408Y8906212D01*
G01X12067802Y8903182D01*
G01X12067196Y8899545D01*
G01X12066590Y8895303D01*
G01X12065984Y8889848D01*
G01X12065681Y8885303D01*
G01X12065378Y8882576D01*
G01X12065075Y8867424D01*
G01X12065378Y8852273D01*
G01X12065984Y8845606D01*
G01X12066590Y8840758D01*
G01X12067196Y8836515D01*
G01X12067802Y8833485D01*
G01X12068711Y8829243D01*
G01X12069621Y8825303D01*
G01X12070227Y8822576D01*
G01X12072348Y8816212D01*
G01X12073560Y8813182D01*
G01X12074772Y8810455D01*
G01X12077802Y8804394D01*
G01X12079014Y8802273D01*
G01X12082045Y8798030D01*
G01X12083257Y8796515D01*
G01X12090833Y8788939D01*
G01X12093257Y8787121D01*
G37*
G36*
G01X12684166Y8868333D02*
G01X12684469Y8863182D01*
G01X12684469Y8856818D01*
G01X12628712Y8856818D01*
G01X12628712Y8822273D01*
G01X12612348Y8822273D01*
G01X12612348Y8856818D01*
G01X12594772Y8856818D01*
G01X12594772Y8870758D01*
G01X12612348Y8870758D01*
G01X12612348Y8902273D01*
G01X12628712Y8902273D01*
G01X12628712Y8870758D01*
G01X12651439Y8870758D01*
G01X12674469Y8871061D01*
G01X12673863Y8872879D01*
G01X12672045Y8875606D01*
G01X12665985Y8884091D01*
G01X12664166Y8886818D01*
G01X12655075Y8899545D01*
G01X12650833Y8905606D01*
G01X12647803Y8909849D01*
G01X12643560Y8915909D01*
G01X12637500Y8924394D01*
G01X12633257Y8930455D01*
G01X12631742Y8932576D01*
G01X12630227Y8934394D01*
G01X12629469Y8935076D01*
G01X12629015Y8934697D01*
G01X12628712Y8902273D01*
G01X12628712Y8902273D01*
G01X12612348Y8902273D01*
G01X12612348Y8956818D01*
G01X12623257Y8956818D01*
G01X12624166Y8955303D01*
G01X12627196Y8951061D01*
G01X12678106Y8878333D01*
G01X12681136Y8874091D01*
G01X12683257Y8871061D01*
G01X12684166Y8868333D01*
G37*
G36*
G01X12884167Y8868333D02*
G01X12884470Y8863182D01*
G01X12884470Y8856818D01*
G01X12828712Y8856818D01*
G01X12828712Y8822273D01*
G01X12812348Y8822273D01*
G01X12812348Y8856818D01*
G01X12794772Y8856818D01*
G01X12794772Y8870758D01*
G01X12812348Y8870758D01*
G01X12812348Y8902273D01*
G01X12828712Y8902273D01*
G01X12828712Y8870758D01*
G01X12851439Y8870758D01*
G01X12874470Y8871061D01*
G01X12873863Y8872879D01*
G01X12872045Y8875606D01*
G01X12865985Y8884091D01*
G01X12864166Y8886818D01*
G01X12855075Y8899545D01*
G01X12850833Y8905606D01*
G01X12847803Y8909849D01*
G01X12843560Y8915909D01*
G01X12837500Y8924394D01*
G01X12833257Y8930455D01*
G01X12831742Y8932576D01*
G01X12830227Y8934394D01*
G01X12829469Y8935076D01*
G01X12829015Y8934697D01*
G01X12828712Y8902273D01*
G01X12828712Y8902273D01*
G01X12812348Y8902273D01*
G01X12812348Y8956818D01*
G01X12823257Y8956818D01*
G01X12824166Y8955303D01*
G01X12827197Y8951061D01*
G01X12878106Y8878333D01*
G01X12881136Y8874091D01*
G01X12883257Y8871061D01*
G01X12884167Y8868333D01*
G37*
G36*
G01X12780833Y8828030D02*
G01X12782348Y8826515D01*
G01X12783030Y8825606D01*
G01X12783257Y8824091D01*
G01X12783257Y8822273D01*
G01X12705075Y8822273D01*
G01X12704772Y8824091D01*
G01X12703863Y8826818D01*
G01X12702954Y8829243D01*
G01X12702045Y8831970D01*
G01X12700833Y8835000D01*
G01X12699621Y8838636D01*
G01X12698409Y8841667D01*
G01X12697500Y8844394D01*
G01X12696591Y8846515D01*
G01X12696666Y8846970D01*
G01X12698106Y8847121D01*
G01X12699772Y8846894D01*
G01X12700530Y8846212D01*
G01X12702045Y8843788D01*
G01X12704166Y8841667D01*
G01X12705984Y8840455D01*
G01X12708409Y8839243D01*
G01X12710833Y8838333D01*
G01X12713257Y8837727D01*
G01X12716287Y8837121D01*
G01X12739924Y8836818D01*
G01X12756439Y8837045D01*
G01X12761742Y8837727D01*
G01X12760530Y8839243D01*
G01X12749924Y8849849D01*
G01X12748106Y8852273D01*
G01X12741439Y8858939D01*
G01X12739621Y8861364D01*
G01X12734469Y8866515D01*
G01X12732045Y8869545D01*
G01X12730530Y8871061D01*
G01X12728712Y8873485D01*
G01X12726590Y8875606D01*
G01X12725075Y8877424D01*
G01X12723863Y8879242D01*
G01X12722651Y8880758D01*
G01X12719015Y8885606D01*
G01X12717500Y8887727D01*
G01X12714469Y8892576D01*
G01X12712954Y8895303D01*
G01X12710530Y8899545D01*
G01X12709318Y8901970D01*
G01X12707500Y8906212D01*
G01X12706591Y8908939D01*
G01X12705681Y8911970D01*
G01X12705075Y8914697D01*
G01X12704772Y8917121D01*
G01X12704469Y8922879D01*
G01X12704772Y8928637D01*
G01X12705378Y8931061D01*
G01X12706288Y8933788D01*
G01X12707500Y8936515D01*
G01X12709015Y8939243D01*
G01X12710530Y8941364D01*
G01X12712348Y8943788D01*
G01X12715984Y8947424D01*
G01X12717803Y8948940D01*
G01X12719621Y8950152D01*
G01X12721742Y8951667D01*
G01X12724772Y8953182D01*
G01X12727500Y8954394D01*
G01X12730530Y8955303D01*
G01X12733257Y8955909D01*
G01X12736287Y8956515D01*
G01X12743560Y8956818D01*
G01X12749621Y8956515D01*
G01X12752045Y8955909D01*
G01X12754772Y8955000D01*
G01X12757197Y8954091D01*
G01X12759621Y8952879D01*
G01X12762045Y8951364D01*
G01X12763863Y8950152D01*
G01X12765379Y8948940D01*
G01X12768409Y8945909D01*
G01X12769924Y8944091D01*
G01X12771136Y8942273D01*
G01X12772651Y8940152D01*
G01X12775379Y8934697D01*
G01X12776288Y8932576D01*
G01X12776894Y8930455D01*
G01X12777803Y8927728D01*
G01X12778712Y8923788D01*
G01X12779318Y8920758D01*
G01X12779091Y8920076D01*
G01X12777803Y8919849D01*
G01X12776363Y8920152D01*
G01X12775682Y8921061D01*
G01X12774773Y8923485D01*
G01X12773560Y8926212D01*
G01X12772348Y8928334D01*
G01X12770833Y8930455D01*
G01X12769015Y8932576D01*
G01X12765985Y8935606D01*
G01X12763863Y8937121D01*
G01X12761136Y8938637D01*
G01X12758712Y8939849D01*
G01X12755985Y8940758D01*
G01X12753257Y8941364D01*
G01X12750227Y8941970D01*
G01X12746287Y8942273D01*
G01X12743560Y8941970D01*
G01X12740833Y8941364D01*
G01X12737803Y8940455D01*
G01X12735075Y8939243D01*
G01X12732954Y8938031D01*
G01X12731439Y8936818D01*
G01X12728409Y8933788D01*
G01X12726894Y8931970D01*
G01X12725681Y8930152D01*
G01X12724469Y8928031D01*
G01X12723257Y8925606D01*
G01X12722348Y8922879D01*
G01X12721742Y8920152D01*
G01X12721136Y8915909D01*
G01X12720833Y8911667D01*
G01X12721136Y8907424D01*
G01X12721742Y8903182D01*
G01X12723863Y8896818D01*
G01X12725075Y8893788D01*
G01X12726287Y8891061D01*
G01X12728712Y8886212D01*
G01X12729924Y8884091D01*
G01X12731136Y8882273D01*
G01X12732651Y8879849D01*
G01X12737197Y8873485D01*
G01X12739015Y8871061D01*
G01X12740833Y8868939D01*
G01X12744469Y8864394D01*
G01X12745984Y8862879D01*
G01X12749621Y8858636D01*
G01X12755681Y8852576D01*
G01X12758712Y8848939D01*
G01X12766288Y8841364D01*
G01X12770530Y8837727D01*
G01X12776591Y8831667D01*
G01X12780833Y8828030D01*
G37*
G36*
G01X12980833Y8828030D02*
G01X12982348Y8826515D01*
G01X12983030Y8825606D01*
G01X12983257Y8824091D01*
G01X12983257Y8822273D01*
G01X12905076Y8822273D01*
G01X12904773Y8824091D01*
G01X12903863Y8826818D01*
G01X12902954Y8829243D01*
G01X12902045Y8831970D01*
G01X12900833Y8835000D01*
G01X12899621Y8838636D01*
G01X12898409Y8841667D01*
G01X12897500Y8844394D01*
G01X12896591Y8846515D01*
G01X12896666Y8846970D01*
G01X12898106Y8847121D01*
G01X12899773Y8846894D01*
G01X12900530Y8846212D01*
G01X12902045Y8843788D01*
G01X12904166Y8841667D01*
G01X12905985Y8840455D01*
G01X12908409Y8839243D01*
G01X12910833Y8838333D01*
G01X12913257Y8837727D01*
G01X12916288Y8837121D01*
G01X12939924Y8836818D01*
G01X12956439Y8837045D01*
G01X12961742Y8837727D01*
G01X12960530Y8839243D01*
G01X12949924Y8849849D01*
G01X12948106Y8852273D01*
G01X12941439Y8858939D01*
G01X12939621Y8861364D01*
G01X12934469Y8866515D01*
G01X12932045Y8869545D01*
G01X12930530Y8871061D01*
G01X12928712Y8873485D01*
G01X12926591Y8875606D01*
G01X12925075Y8877424D01*
G01X12923863Y8879242D01*
G01X12922651Y8880758D01*
G01X12919015Y8885606D01*
G01X12917500Y8887727D01*
G01X12914469Y8892576D01*
G01X12912954Y8895303D01*
G01X12910530Y8899545D01*
G01X12909318Y8901970D01*
G01X12907500Y8906212D01*
G01X12906591Y8908939D01*
G01X12905682Y8911970D01*
G01X12905076Y8914697D01*
G01X12904773Y8917121D01*
G01X12904469Y8922879D01*
G01X12904773Y8928637D01*
G01X12905379Y8931061D01*
G01X12906288Y8933788D01*
G01X12907500Y8936515D01*
G01X12909015Y8939243D01*
G01X12910530Y8941364D01*
G01X12912348Y8943788D01*
G01X12915985Y8947424D01*
G01X12917803Y8948940D01*
G01X12919621Y8950152D01*
G01X12921742Y8951667D01*
G01X12924772Y8953182D01*
G01X12927500Y8954394D01*
G01X12930530Y8955303D01*
G01X12933257Y8955909D01*
G01X12936288Y8956515D01*
G01X12943560Y8956818D01*
G01X12949621Y8956515D01*
G01X12952045Y8955909D01*
G01X12954772Y8955000D01*
G01X12957197Y8954091D01*
G01X12959621Y8952879D01*
G01X12962045Y8951364D01*
G01X12963863Y8950152D01*
G01X12965379Y8948940D01*
G01X12968409Y8945909D01*
G01X12969924Y8944091D01*
G01X12971136Y8942273D01*
G01X12972651Y8940152D01*
G01X12975379Y8934697D01*
G01X12976288Y8932576D01*
G01X12976894Y8930455D01*
G01X12977803Y8927728D01*
G01X12978712Y8923788D01*
G01X12979318Y8920758D01*
G01X12979091Y8920076D01*
G01X12977803Y8919849D01*
G01X12976363Y8920152D01*
G01X12975682Y8921061D01*
G01X12974773Y8923485D01*
G01X12973560Y8926212D01*
G01X12972348Y8928334D01*
G01X12970833Y8930455D01*
G01X12969015Y8932576D01*
G01X12965985Y8935606D01*
G01X12963863Y8937121D01*
G01X12961136Y8938637D01*
G01X12958712Y8939849D01*
G01X12955985Y8940758D01*
G01X12953257Y8941364D01*
G01X12950227Y8941970D01*
G01X12946288Y8942273D01*
G01X12943560Y8941970D01*
G01X12940833Y8941364D01*
G01X12937803Y8940455D01*
G01X12935075Y8939243D01*
G01X12932954Y8938031D01*
G01X12931439Y8936818D01*
G01X12928409Y8933788D01*
G01X12926894Y8931970D01*
G01X12925682Y8930152D01*
G01X12924469Y8928031D01*
G01X12923257Y8925606D01*
G01X12922348Y8922879D01*
G01X12921742Y8920152D01*
G01X12921136Y8915909D01*
G01X12920833Y8911667D01*
G01X12921136Y8907424D01*
G01X12921742Y8903182D01*
G01X12923863Y8896818D01*
G01X12925075Y8893788D01*
G01X12926288Y8891061D01*
G01X12928712Y8886212D01*
G01X12929924Y8884091D01*
G01X12931136Y8882273D01*
G01X12932651Y8879849D01*
G01X12937197Y8873485D01*
G01X12939015Y8871061D01*
G01X12940833Y8868939D01*
G01X12944469Y8864394D01*
G01X12945985Y8862879D01*
G01X12949621Y8858636D01*
G01X12955681Y8852576D01*
G01X12958712Y8848939D01*
G01X12966288Y8841364D01*
G01X12970530Y8837727D01*
G01X12976591Y8831667D01*
G01X12980833Y8828030D01*
G37*
G36*
G01X13132954Y8783485D02*
G01X13130833Y8782273D01*
G01X13128409Y8781061D01*
G01X13126591Y8779848D01*
G01X13126288Y8779621D01*
G01X13125985Y8780151D01*
G01X13125985Y8782273D01*
G01X13127500Y8784091D01*
G01X13129318Y8785303D01*
G01X13133863Y8788939D01*
G01X13139924Y8795000D01*
G01X13141439Y8796818D01*
G01X13142651Y8798636D01*
G01X13143863Y8800152D01*
G01X13145379Y8802273D01*
G01X13147197Y8805000D01*
G01X13149015Y8808030D01*
G01X13150530Y8811061D01*
G01X13151742Y8813788D01*
G01X13153560Y8818637D01*
G01X13154470Y8821667D01*
G01X13155076Y8824394D01*
G01X13155985Y8827424D01*
G01X13156894Y8831970D01*
G01X13157500Y8835303D01*
G01X13158712Y8842576D01*
G01X13159318Y8847424D01*
G01X13159924Y8852879D01*
G01X13160530Y8861970D01*
G01X13160833Y8872879D01*
G01X13160530Y8883788D01*
G01X13159924Y8891667D01*
G01X13158712Y8901364D01*
G01X13157500Y8908030D01*
G01X13156288Y8913485D01*
G01X13155379Y8916515D01*
G01X13154166Y8920455D01*
G01X13152954Y8924091D01*
G01X13151742Y8927121D01*
G01X13150530Y8929849D01*
G01X13148106Y8934697D01*
G01X13146894Y8936818D01*
G01X13144470Y8940455D01*
G01X13140833Y8945000D01*
G01X13137803Y8948030D01*
G01X13133560Y8951667D01*
G01X13132045Y8952879D01*
G01X13129924Y8954091D01*
G01X13127197Y8955909D01*
G01X13126060Y8957046D01*
G01X13125682Y8958637D01*
G01X13125985Y8959924D01*
G01X13126894Y8960152D01*
G01X13129015Y8959243D01*
G01X13133257Y8956818D01*
G01X13138106Y8953788D01*
G01X13142954Y8950152D01*
G01X13145985Y8947727D01*
G01X13153560Y8940152D01*
G01X13155379Y8937727D01*
G01X13157197Y8935606D01*
G01X13161742Y8929243D01*
G01X13163560Y8926515D01*
G01X13165076Y8923788D01*
G01X13167500Y8919546D01*
G01X13169924Y8914697D01*
G01X13173560Y8905606D01*
G01X13174470Y8902576D01*
G01X13175379Y8899848D01*
G01X13176288Y8896515D01*
G01X13177500Y8890455D01*
G01X13178106Y8886818D01*
G01X13178712Y8882576D01*
G01X13179015Y8878636D01*
G01X13179318Y8876515D01*
G01X13179621Y8870455D01*
G01X13179318Y8864394D01*
G01X13178712Y8856515D01*
G01X13178106Y8852273D01*
G01X13176894Y8846212D01*
G01X13175682Y8840758D01*
G01X13174773Y8838030D01*
G01X13171136Y8828030D01*
G01X13169924Y8825606D01*
G01X13168106Y8821364D01*
G01X13166591Y8818940D01*
G01X13165076Y8816212D01*
G01X13163863Y8814091D01*
G01X13162348Y8811667D01*
G01X13160227Y8808636D01*
G01X13156591Y8803788D01*
G01X13154470Y8801667D01*
G01X13152045Y8798636D01*
G01X13147500Y8794091D01*
G01X13145379Y8792273D01*
G01X13143257Y8790757D01*
G01X13140227Y8788333D01*
G01X13138106Y8786818D01*
G01X13135379Y8785000D01*
G01X13132954Y8783485D01*
G37*
G36*
G01X13112651Y8825606D02*
G01X13116288Y8825303D01*
G01X13117424Y8824924D01*
G01X13117803Y8823788D01*
G01X13117803Y8822273D01*
G01X13079318Y8822273D01*
G01X13039924Y8822576D01*
G01X13034469Y8823182D01*
G01X13027803Y8824394D01*
G01X13021439Y8826515D01*
G01X13018712Y8827727D01*
G01X13016591Y8828940D01*
G01X13014167Y8830455D01*
G01X13012045Y8831970D01*
G01X13007500Y8836515D01*
G01X13005682Y8838940D01*
G01X13003864Y8841667D01*
G01X13002651Y8843788D01*
G01X13001439Y8846515D01*
G01X13000530Y8849243D01*
G01X12999621Y8852273D01*
G01X12999373Y8855000D01*
G01X13021439Y8855000D01*
G01X13021742Y8850455D01*
G01X13022651Y8847727D01*
G01X13023863Y8845000D01*
G01X13025076Y8842879D01*
G01X13026591Y8841061D01*
G01X13029015Y8838030D01*
G01X13031439Y8836212D01*
G01X13034469Y8834091D01*
G01X13037500Y8832576D01*
G01X13040833Y8831364D01*
G01X13044166Y8830455D01*
G01X13047197Y8829849D01*
G01X13047197Y8829849D01*
G01X13051439Y8829243D01*
G01X13059621Y8828940D01*
G01X13065379Y8829243D01*
G01X13068409Y8829546D01*
G01X13072045Y8829849D01*
G01X13076288Y8830455D01*
G01X13078712Y8831061D01*
G01X13080227Y8831364D01*
G01X13080227Y8858636D01*
G01X13079924Y8879091D01*
G01X13079015Y8885909D01*
G01X13076894Y8886212D01*
G01X13064772Y8886515D01*
G01X13052651Y8886212D01*
G01X13048409Y8885606D01*
G01X13045985Y8885000D01*
G01X13042954Y8884091D01*
G01X13039621Y8882879D01*
G01X13036894Y8881667D01*
G01X13034773Y8880455D01*
G01X13032954Y8879242D01*
G01X13031439Y8878030D01*
G01X13028409Y8875000D01*
G01X13026894Y8873182D01*
G01X13025682Y8871364D01*
G01X13024470Y8869242D01*
G01X13023257Y8866212D01*
G01X13022348Y8863182D01*
G01X13021742Y8860152D01*
G01X13021439Y8855000D01*
G01X12999373Y8855000D01*
G01X12999015Y8858939D01*
G01X12999318Y8864394D01*
G01X12999924Y8866818D01*
G01X13000833Y8869242D01*
G01X13001742Y8871364D01*
G01X13002651Y8873182D01*
G01X13004167Y8875303D01*
G01X13005985Y8877424D01*
G01X13009015Y8880455D01*
G01X13010530Y8881667D01*
G01X13012651Y8883182D01*
G01X13015379Y8884697D01*
G01X13017803Y8885909D01*
G01X13022651Y8887727D01*
G01X13025985Y8888636D01*
G01X13027500Y8889015D01*
G01X13027803Y8889545D01*
G01X13025985Y8890758D01*
G01X13022954Y8891970D01*
G01X13020227Y8893485D01*
G01X13017500Y8895303D01*
G01X13015379Y8896818D01*
G01X13013560Y8898939D01*
G01X13011439Y8901061D01*
G01X13010227Y8902576D01*
G01X13009015Y8904697D01*
G01X13007500Y8907727D01*
G01X13006591Y8910455D01*
G01X13005682Y8913485D01*
G01X13005076Y8919849D01*
G01X13005165Y8921364D01*
G01X13025379Y8921364D01*
G01X13025379Y8916515D01*
G01X13026288Y8911667D01*
G01X13027500Y8908636D01*
G01X13028712Y8906212D01*
G01X13030227Y8904091D01*
G01X13031439Y8902576D01*
G01X13033257Y8900758D01*
G01X13035379Y8899242D01*
G01X13037197Y8898030D01*
G01X13039318Y8896818D01*
G01X13041742Y8895909D01*
G01X13044166Y8895303D01*
G01X13047197Y8894697D01*
G01X13050833Y8894091D01*
G01X13055682Y8893788D01*
G01X13055682Y8893788D01*
G01X13059924Y8893485D01*
G01X13063257Y8893182D01*
G01X13065985Y8893485D01*
G01X13070833Y8893788D01*
G01X13076288Y8894091D01*
G01X13078409Y8894394D01*
G01X13079394Y8894773D01*
G01X13079924Y8895909D01*
G01X13080227Y8921667D01*
G01X13080227Y8945909D01*
G01X13077803Y8946212D01*
G01X13074470Y8946818D01*
G01X13070227Y8947424D01*
G01X13061742Y8947727D01*
G01X13053257Y8947424D01*
G01X13047197Y8946212D01*
G01X13044469Y8945303D01*
G01X13041439Y8944091D01*
G01X13038712Y8942576D01*
G01X13035682Y8940455D01*
G01X13032045Y8936818D01*
G01X13030227Y8934697D01*
G01X13028712Y8932273D01*
G01X13027500Y8929849D01*
G01X13026591Y8927424D01*
G01X13025985Y8925000D01*
G01X13025379Y8921364D01*
G01X13005165Y8921364D01*
G01X13005379Y8925000D01*
G01X13006288Y8928031D01*
G01X13007500Y8931364D01*
G01X13008712Y8933788D01*
G01X13010530Y8936515D01*
G01X13012348Y8938940D01*
G01X13015379Y8941970D01*
G01X13017500Y8943788D01*
G01X13020227Y8945606D01*
G01X13022651Y8947121D01*
G01X13025379Y8948334D01*
G01X13027803Y8949546D01*
G01X13030530Y8950455D01*
G01X13033560Y8951364D01*
G01X13037197Y8952273D01*
G01X13040530Y8952879D01*
G01X13045379Y8953485D01*
G01X13052651Y8954091D01*
G01X13085682Y8954394D01*
G01X13117803Y8954394D01*
G01X13117803Y8950758D01*
G01X13113257Y8950758D01*
G01X13107500Y8950152D01*
G01X13105076Y8949243D01*
G01X13103258Y8948030D01*
G01X13101742Y8946515D01*
G01X13100530Y8944394D01*
G01X13099318Y8939546D01*
G01X13099015Y8934697D01*
G01X13098712Y8930455D01*
G01X13098409Y8887121D01*
G01X13098712Y8843788D01*
G01X13099318Y8834697D01*
G01X13099924Y8832576D01*
G01X13101439Y8829849D01*
G01X13103561Y8828030D01*
G01X13105379Y8827121D01*
G01X13108409Y8826212D01*
G01X13112651Y8825606D01*
G37*
G36*
G01X12239015Y8598939D02*
G01X12236287Y8598333D01*
G01X12233863Y8597727D01*
G01X12231136Y8597121D01*
G01X12222045Y8596818D01*
G01X12213257Y8597121D01*
G01X12209014Y8597727D01*
G01X12206287Y8598333D01*
G01X12203257Y8599242D01*
G01X12200530Y8600152D01*
G01X12198105Y8601061D01*
G01X12193863Y8602879D01*
G01X12189621Y8605303D01*
G01X12187196Y8606818D01*
G01X12185075Y8608333D01*
G01X12183560Y8609546D01*
G01X12181136Y8611364D01*
G01X12174469Y8618030D01*
G01X12170833Y8622273D01*
G01X12169621Y8623788D01*
G01X12168408Y8625909D01*
G01X12166590Y8628636D01*
G01X12165075Y8631364D01*
G01X12163863Y8633788D01*
G01X12161439Y8639242D01*
G01X12159621Y8644697D01*
G01X12159015Y8647121D01*
G01X12158712Y8649242D01*
G01X12158105Y8651667D01*
G01X12157499Y8655303D01*
G01X12156893Y8660151D01*
G01X12156789Y8662879D01*
G01X12179015Y8662879D01*
G01X12179318Y8651667D01*
G01X12179924Y8645606D01*
G01X12180530Y8641364D01*
G01X12181136Y8638939D01*
G01X12182045Y8635606D01*
G01X12183257Y8631667D01*
G01X12184469Y8628636D01*
G01X12185378Y8626515D01*
G01X12186287Y8624697D01*
G01X12187499Y8622576D01*
G01X12189014Y8620455D01*
G01X12191439Y8617424D01*
G01X12195984Y8612879D01*
G01X12197802Y8611364D01*
G01X12201439Y8608939D01*
G01X12203560Y8607727D01*
G01X12206287Y8606515D01*
G01X12211742Y8604697D01*
G01X12214772Y8604091D01*
G01X12214772Y8604091D01*
G01X12216893Y8603788D01*
G01X12222348Y8603485D01*
G01X12227196Y8603788D01*
G01X12229318Y8604091D01*
G01X12232045Y8604394D01*
G01X12234772Y8605303D01*
G01X12237499Y8606515D01*
G01X12239924Y8607727D01*
G01X12242045Y8608939D01*
G01X12246590Y8612576D01*
G01X12250227Y8616818D01*
G01X12251439Y8618333D01*
G01X12252651Y8620455D01*
G01X12254166Y8622879D01*
G01X12255378Y8625000D01*
G01X12256590Y8627424D01*
G01X12257803Y8630455D01*
G01X12258712Y8632879D01*
G01X12259621Y8635606D01*
G01X12260833Y8639545D01*
G01X12261742Y8643788D01*
G01X12262954Y8651061D01*
G01X12263257Y8655000D01*
G01X12263560Y8657727D01*
G01X12263863Y8667424D01*
G01X12263560Y8677121D01*
G01X12262954Y8683182D01*
G01X12262348Y8687424D01*
G01X12261136Y8693485D01*
G01X12259015Y8699848D01*
G01X12257803Y8702879D01*
G01X12256590Y8705606D01*
G01X12255075Y8708333D01*
G01X12253560Y8710758D01*
G01X12252348Y8712576D01*
G01X12251136Y8714091D01*
G01X12249318Y8716515D01*
G01X12247196Y8718636D01*
G01X12244772Y8720455D01*
G01X12241742Y8722576D01*
G01X12239015Y8724091D01*
G01X12236287Y8725303D01*
G01X12232651Y8726515D01*
G01X12227802Y8727424D01*
G01X12220227Y8727727D01*
G01X12214469Y8727424D01*
G01X12211439Y8726818D01*
G01X12208105Y8725909D01*
G01X12205075Y8724697D01*
G01X12202651Y8723485D01*
G01X12198105Y8720455D01*
G01X12195984Y8718636D01*
G01X12192348Y8714394D01*
G01X12191136Y8712879D01*
G01X12189621Y8710758D01*
G01X12188105Y8708030D01*
G01X12185681Y8703182D01*
G01X12184469Y8700152D01*
G01X12183257Y8696818D01*
G01X12182348Y8693182D01*
G01X12181742Y8690454D01*
G01X12181136Y8688030D01*
G01X12180530Y8684394D01*
G01X12179924Y8680151D01*
G01X12179621Y8676515D01*
G01X12179318Y8674091D01*
G01X12179015Y8662879D01*
G01X12156789Y8662879D01*
G01X12156590Y8668030D01*
G01X12156893Y8674091D01*
G01X12157499Y8678939D01*
G01X12158712Y8685606D01*
G01X12160833Y8691970D01*
G01X12162045Y8695000D01*
G01X12163257Y8697727D01*
G01X12164469Y8700152D01*
G01X12166893Y8704394D01*
G01X12168105Y8706212D01*
G01X12171742Y8711061D01*
G01X12173257Y8712576D01*
G01X12176287Y8716212D01*
G01X12178711Y8718030D01*
G01X12180833Y8720152D01*
G01X12184469Y8723182D01*
G01X12186287Y8724394D01*
G01X12188105Y8725303D01*
G01X12190227Y8726818D01*
G01X12195681Y8729546D01*
G01X12198408Y8730758D01*
G01X12202045Y8731970D01*
G01X12205984Y8733182D01*
G01X12209317Y8733788D01*
G01X12211439Y8734091D01*
G01X12216287Y8734697D01*
G01X12221742Y8735000D01*
G01X12227196Y8734697D01*
G01X12232045Y8734091D01*
G01X12237499Y8732879D01*
G01X12243863Y8730758D01*
G01X12246893Y8729546D01*
G01X12249621Y8728333D01*
G01X12253863Y8725909D01*
G01X12255984Y8724394D01*
G01X12257499Y8723182D01*
G01X12259924Y8721667D01*
G01X12262954Y8719243D01*
G01X12269621Y8712576D01*
G01X12273257Y8708030D01*
G01X12274469Y8705909D01*
G01X12276287Y8703182D01*
G01X12277802Y8700455D01*
G01X12279015Y8697727D01*
G01X12280227Y8695303D01*
G01X12281439Y8692576D01*
G01X12282651Y8688939D01*
G01X12283560Y8685303D01*
G01X12284166Y8682576D01*
G01X12284772Y8680151D01*
G01X12285378Y8675909D01*
G01X12285681Y8671970D01*
G01X12285984Y8669848D01*
G01X12286287Y8664697D01*
G01X12285984Y8659545D01*
G01X12285378Y8653485D01*
G01X12284772Y8649242D01*
G01X12284166Y8646818D01*
G01X12283257Y8643485D01*
G01X12282045Y8639545D01*
G01X12280833Y8636212D01*
G01X12279621Y8633485D01*
G01X12277196Y8628636D01*
G01X12275984Y8626515D01*
G01X12272954Y8622273D01*
G01X12269318Y8617727D01*
G01X12264772Y8613182D01*
G01X12258712Y8608333D01*
G01X12256590Y8606818D01*
G01X12254166Y8605303D01*
G01X12252045Y8604091D01*
G01X12247196Y8601667D01*
G01X12244772Y8600758D01*
G01X12242045Y8599848D01*
G01X12239015Y8598939D01*
G37*
G36*
G01X12386590Y8639545D02*
G01X12387196Y8641061D01*
G01X12389015Y8641667D01*
G01X12390530Y8641667D01*
G01X12390530Y8596818D01*
G01X12388712Y8596818D01*
G01X12387348Y8597121D01*
G01X12386893Y8598030D01*
G01X12386287Y8600455D01*
G01X12385075Y8602576D01*
G01X12382348Y8603788D01*
G01X12378409Y8603788D01*
G01X12375681Y8603182D01*
G01X12372954Y8602273D01*
G01X12361136Y8598636D01*
G01X12356893Y8597727D01*
G01X12353257Y8597121D01*
G01X12345075Y8596818D01*
G01X12337499Y8597121D01*
G01X12334469Y8597727D01*
G01X12331136Y8598636D01*
G01X12326287Y8600455D01*
G01X12323560Y8601970D01*
G01X12320530Y8603788D01*
G01X12318408Y8605303D01*
G01X12316893Y8606515D01*
G01X12313863Y8609546D01*
G01X12312045Y8611667D01*
G01X12309014Y8615909D01*
G01X12307499Y8618939D01*
G01X12306287Y8621667D01*
G01X12305378Y8624697D01*
G01X12304772Y8627424D01*
G01X12304166Y8632273D01*
G01X12304166Y8635909D01*
G01X12304772Y8640455D01*
G01X12305681Y8643485D01*
G01X12306590Y8645909D01*
G01X12307499Y8648030D01*
G01X12308711Y8650151D01*
G01X12310530Y8652879D01*
G01X12312348Y8655303D01*
G01X12316893Y8659848D01*
G01X12319318Y8661667D01*
G01X12322348Y8663788D01*
G01X12327196Y8666818D01*
G01X12333257Y8670454D01*
G01X12336287Y8671970D01*
G01X12340530Y8674394D01*
G01X12342954Y8675606D01*
G01X12345378Y8677121D01*
G01X12348409Y8678636D01*
G01X12354772Y8682273D01*
G01X12356893Y8683788D01*
G01X12359924Y8685606D01*
G01X12362651Y8687424D01*
G01X12364772Y8688939D01*
G01X12367197Y8690757D01*
G01X12369318Y8692576D01*
G01X12370530Y8693788D01*
G01X12372954Y8696818D01*
G01X12374469Y8698939D01*
G01X12375681Y8702273D01*
G01X12376287Y8705000D01*
G01X12376590Y8707424D01*
G01X12376287Y8709849D01*
G01X12375681Y8712273D01*
G01X12374772Y8714697D01*
G01X12373560Y8716818D01*
G01X12372045Y8718636D01*
G01X12370833Y8720152D01*
G01X12369318Y8721667D01*
G01X12367500Y8722879D01*
G01X12365378Y8724091D01*
G01X12362954Y8725303D01*
G01X12360227Y8726212D01*
G01X12357500Y8726818D01*
G01X12352348Y8727121D01*
G01X12347197Y8726818D01*
G01X12344469Y8726212D01*
G01X12341439Y8725303D01*
G01X12338409Y8724091D01*
G01X12335378Y8722576D01*
G01X12332954Y8721061D01*
G01X12331136Y8719849D01*
G01X12329621Y8718636D01*
G01X12326590Y8715606D01*
G01X12325075Y8713788D01*
G01X12323560Y8711364D01*
G01X12322045Y8708636D01*
G01X12320833Y8706212D01*
G01X12319924Y8703788D01*
G01X12319014Y8701061D01*
G01X12318105Y8697727D01*
G01X12316893Y8691667D01*
G01X12316439Y8690000D01*
G01X12315681Y8689242D01*
G01X12313863Y8689242D01*
G01X12313181Y8695151D01*
G01X12312954Y8712273D01*
G01X12312954Y8735000D01*
G01X12314772Y8735000D01*
G01X12316136Y8734697D01*
G01X12316590Y8733788D01*
G01X12317196Y8731364D01*
G01X12318408Y8729243D01*
G01X12320833Y8728030D01*
G01X12323560Y8727424D01*
G01X12325378Y8727424D01*
G01X12328105Y8728333D01*
G01X12330833Y8729546D01*
G01X12335681Y8731364D01*
G01X12338409Y8732273D01*
G01X12341439Y8733182D01*
G01X12343863Y8733788D01*
G01X12350227Y8734697D01*
G01X12354469Y8735000D01*
G01X12358712Y8734697D01*
G01X12362954Y8734091D01*
G01X12365378Y8733485D01*
G01X12368106Y8732576D01*
G01X12371136Y8731364D01*
G01X12373560Y8730152D01*
G01X12378106Y8727121D01*
G01X12384772Y8720455D01*
G01X12385984Y8718940D01*
G01X12386893Y8717121D01*
G01X12388106Y8715000D01*
G01X12389318Y8712576D01*
G01X12390227Y8709849D01*
G01X12390833Y8707424D01*
G01X12391439Y8704394D01*
G01X12391742Y8698333D01*
G01X12391439Y8693485D01*
G01X12390833Y8691061D01*
G01X12389924Y8688636D01*
G01X12389015Y8686515D01*
G01X12388106Y8684697D01*
G01X12385681Y8681060D01*
G01X12384469Y8679545D01*
G01X12378409Y8673485D01*
G01X12376893Y8672273D01*
G01X12375378Y8671364D01*
G01X12373863Y8670151D01*
G01X12371742Y8668636D01*
G01X12364469Y8664091D01*
G01X12362348Y8662879D01*
G01X12359924Y8661364D01*
G01X12356893Y8659545D01*
G01X12353863Y8658030D01*
G01X12343257Y8651970D01*
G01X12341439Y8650758D01*
G01X12339318Y8649545D01*
G01X12336893Y8648030D01*
G01X12333863Y8646212D01*
G01X12331742Y8644394D01*
G01X12328712Y8641970D01*
G01X12326287Y8638939D01*
G01X12324772Y8636818D01*
G01X12323560Y8634394D01*
G01X12322651Y8632273D01*
G01X12321742Y8628636D01*
G01X12321439Y8623788D01*
G01X12321742Y8620758D01*
G01X12322651Y8618333D01*
G01X12323863Y8615909D01*
G01X12325075Y8614091D01*
G01X12328105Y8611061D01*
G01X12330227Y8609242D01*
G01X12332651Y8607727D01*
G01X12335075Y8606515D01*
G01X12338712Y8605303D01*
G01X12342045Y8604697D01*
G01X12344166Y8604394D01*
G01X12349318Y8604091D01*
G01X12354469Y8604394D01*
G01X12357500Y8605000D01*
G01X12360833Y8605909D01*
G01X12363257Y8606818D01*
G01X12365378Y8607727D01*
G01X12367803Y8608939D01*
G01X12369924Y8610152D01*
G01X12372045Y8611667D01*
G01X12374166Y8613485D01*
G01X12377196Y8616515D01*
G01X12379621Y8619545D01*
G01X12380833Y8621364D01*
G01X12382045Y8623788D01*
G01X12383257Y8627121D01*
G01X12385075Y8632576D01*
G01X12385984Y8636515D01*
G01X12386590Y8639545D01*
G37*
G36*
G01X12461136Y8603182D02*
G01X12465075Y8602879D01*
G01X12465984Y8602500D01*
G01X12466287Y8601364D01*
G01X12466287Y8599848D01*
G01X12409318Y8599848D01*
G01X12409318Y8602879D01*
G01X12412045Y8602879D01*
G01X12415681Y8603182D01*
G01X12417802Y8603485D01*
G01X12419924Y8604091D01*
G01X12422045Y8605000D01*
G01X12423863Y8605909D01*
G01X12425378Y8607121D01*
G01X12426590Y8608636D01*
G01X12427196Y8610455D01*
G01X12427802Y8612879D01*
G01X12428105Y8617121D01*
G01X12428408Y8620758D01*
G01X12428712Y8666515D01*
G01X12428408Y8712273D01*
G01X12427802Y8720152D01*
G01X12426893Y8722576D01*
G01X12425378Y8724697D01*
G01X12423560Y8725909D01*
G01X12421136Y8727121D01*
G01X12417499Y8728030D01*
G01X12412348Y8728333D01*
G01X12409318Y8728333D01*
G01X12409318Y8731970D01*
G01X12466287Y8731970D01*
G01X12466287Y8728333D01*
G01X12462348Y8728333D01*
G01X12457500Y8728030D01*
G01X12455378Y8727424D01*
G01X12452651Y8726212D01*
G01X12450227Y8724394D01*
G01X12448712Y8722273D01*
G01X12447803Y8718940D01*
G01X12447500Y8714394D01*
G01X12447197Y8711061D01*
G01X12446894Y8665303D01*
G01X12447197Y8619545D01*
G01X12447803Y8611667D01*
G01X12448712Y8609242D01*
G01X12450227Y8607121D01*
G01X12451742Y8605909D01*
G01X12453863Y8604697D01*
G01X12456894Y8603788D01*
G01X12461136Y8603182D01*
G37*
G36*
G01X12572954Y8556212D02*
G01X12469318Y8556212D01*
G01X12469318Y8564697D01*
G01X12572954Y8564697D01*
G01X12572954Y8556212D01*
G37*
G36*
G01X12652348Y8617727D02*
G01X12649924Y8612273D01*
G01X12644469Y8599545D01*
G01X12643560Y8597727D01*
G01X12642878Y8597045D01*
G01X12641439Y8596818D01*
G01X12639924Y8597273D01*
G01X12639015Y8598636D01*
G01X12637803Y8601667D01*
G01X12636590Y8604394D01*
G01X12631742Y8616515D01*
G01X12630530Y8619242D01*
G01X12628106Y8625303D01*
G01X12626893Y8628030D01*
G01X12622045Y8640151D01*
G01X12620833Y8642879D01*
G01X12617197Y8651970D01*
G01X12615984Y8654697D01*
G01X12615075Y8656818D01*
G01X12614166Y8659242D01*
G01X12612954Y8662273D01*
G01X12611742Y8665000D01*
G01X12610833Y8667121D01*
G01X12609924Y8669545D01*
G01X12607500Y8675606D01*
G01X12606287Y8678333D01*
G01X12601439Y8690454D01*
G01X12600227Y8693182D01*
G01X12597803Y8699242D01*
G01X12596591Y8701970D01*
G01X12592954Y8711061D01*
G01X12590530Y8715909D01*
G01X12589318Y8718030D01*
G01X12587803Y8720152D01*
G01X12585984Y8722273D01*
G01X12584469Y8723788D01*
G01X12582348Y8725303D01*
G01X12579924Y8726515D01*
G01X12574469Y8728333D01*
G01X12573560Y8730455D01*
G01X12573560Y8731970D01*
G01X12614166Y8731970D01*
G01X12614166Y8730152D01*
G01X12613863Y8728788D01*
G01X12612954Y8728333D01*
G01X12610833Y8728030D01*
G01X12607803Y8727121D01*
G01X12604469Y8725606D01*
G01X12602651Y8724091D01*
G01X12601136Y8721970D01*
G01X12600227Y8718333D01*
G01X12600530Y8715303D01*
G01X12601439Y8712273D01*
G01X12602651Y8708333D01*
G01X12608712Y8693182D01*
G01X12609924Y8690454D01*
G01X12615984Y8675303D01*
G01X12617197Y8672576D01*
G01X12620833Y8663485D01*
G01X12622045Y8660757D01*
G01X12622954Y8658636D01*
G01X12623863Y8656212D01*
G01X12627500Y8647121D01*
G01X12628712Y8644394D01*
G01X12629621Y8642273D01*
G01X12630530Y8639848D01*
G01X12634166Y8630758D01*
G01X12635681Y8628333D01*
G01X12636515Y8628257D01*
G01X12637196Y8629242D01*
G01X12639621Y8634697D01*
G01X12640833Y8637727D01*
G01X12645681Y8648636D01*
G01X12646894Y8651667D01*
G01X12651742Y8662576D01*
G01X12652954Y8665606D01*
G01X12655378Y8671061D01*
G01X12656591Y8674091D01*
G01X12657803Y8676515D01*
G01X12663257Y8689242D01*
G01X12665682Y8694697D01*
G01X12670227Y8705303D01*
G01X12671136Y8707727D01*
G01X12672348Y8710758D01*
G01X12673560Y8714697D01*
G01X12674166Y8719546D01*
G01X12673560Y8723182D01*
G01X12672348Y8724697D01*
G01X12670530Y8725909D01*
G01X12667197Y8727121D01*
G01X12663863Y8727727D01*
G01X12661742Y8728030D01*
G01X12660227Y8728636D01*
G01X12659621Y8730455D01*
G01X12659621Y8731970D01*
G01X12713560Y8731970D01*
G01X12713560Y8730152D01*
G01X12713182Y8728788D01*
G01X12712045Y8728333D01*
G01X12709621Y8728030D01*
G01X12707197Y8727424D01*
G01X12704166Y8726212D01*
G01X12701439Y8724697D01*
G01X12699621Y8723182D01*
G01X12698409Y8721667D01*
G01X12696894Y8719546D01*
G01X12695378Y8716515D01*
G01X12690530Y8705606D01*
G01X12689318Y8702576D01*
G01X12688106Y8700152D01*
G01X12682651Y8687424D01*
G01X12680227Y8681970D01*
G01X12676591Y8673485D01*
G01X12674166Y8668030D01*
G01X12670530Y8659545D01*
G01X12668106Y8654091D01*
G01X12664469Y8645606D01*
G01X12662045Y8640151D01*
G01X12658409Y8631667D01*
G01X12655985Y8626212D01*
G01X12652348Y8617727D01*
G37*
G36*
G01X12812045Y8646212D02*
G01X12812348Y8639545D01*
G01X12812348Y8634394D01*
G01X12756591Y8634394D01*
G01X12756591Y8599848D01*
G01X12740227Y8599848D01*
G01X12740227Y8634394D01*
G01X12722651Y8634394D01*
G01X12722651Y8648333D01*
G01X12740227Y8648333D01*
G01X12740227Y8679545D01*
G01X12756591Y8679545D01*
G01X12756591Y8648333D01*
G01X12779318Y8648333D01*
G01X12802348Y8648636D01*
G01X12801742Y8650454D01*
G01X12795682Y8658939D01*
G01X12791439Y8665000D01*
G01X12788409Y8669242D01*
G01X12784166Y8675303D01*
G01X12778106Y8683788D01*
G01X12773863Y8689848D01*
G01X12770833Y8694091D01*
G01X12766591Y8700152D01*
G01X12760530Y8708636D01*
G01X12758409Y8711364D01*
G01X12757424Y8712045D01*
G01X12756894Y8711667D01*
G01X12756591Y8679545D01*
G01X12756591Y8679545D01*
G01X12740227Y8679545D01*
G01X12740227Y8734394D01*
G01X12751136Y8734394D01*
G01X12752045Y8732879D01*
G01X12753863Y8730152D01*
G01X12756894Y8725909D01*
G01X12758712Y8723182D01*
G01X12761742Y8718940D01*
G01X12810530Y8649242D01*
G01X12812045Y8646212D01*
G37*
G36*
G01X12907197Y8606515D02*
G01X12909621Y8604697D01*
G01X12910757Y8603333D01*
G01X12911136Y8601667D01*
G01X12911136Y8599848D01*
G01X12832954Y8599848D01*
G01X12832651Y8601364D01*
G01X12831742Y8604091D01*
G01X12830530Y8607121D01*
G01X12829318Y8610758D01*
G01X12828106Y8613788D01*
G01X12827197Y8616515D01*
G01X12824469Y8623788D01*
G01X12824469Y8624470D01*
G01X12825681Y8624697D01*
G01X12827273Y8624318D01*
G01X12828409Y8623182D01*
G01X12830227Y8621061D01*
G01X12831742Y8619545D01*
G01X12833863Y8618030D01*
G01X12836288Y8616818D01*
G01X12839318Y8615606D01*
G01X12844166Y8614697D01*
G01X12868409Y8614394D01*
G01X12884470Y8614621D01*
G01X12889621Y8615303D01*
G01X12885985Y8618939D01*
G01X12884773Y8620455D01*
G01X12875682Y8629545D01*
G01X12872651Y8633182D01*
G01X12868106Y8637727D01*
G01X12865682Y8640758D01*
G01X12861136Y8645303D01*
G01X12858106Y8648939D01*
G01X12852651Y8655303D01*
G01X12851136Y8657424D01*
G01X12849924Y8658939D01*
G01X12846287Y8663788D01*
G01X12845075Y8665606D01*
G01X12843560Y8668030D01*
G01X12841742Y8670757D01*
G01X12840227Y8673485D01*
G01X12836591Y8680757D01*
G01X12835378Y8683485D01*
G01X12834166Y8687121D01*
G01X12833257Y8690454D01*
G01X12832651Y8694091D01*
G01X12832348Y8697727D01*
G01X12832045Y8700152D01*
G01X12832045Y8701970D01*
G01X12832651Y8707424D01*
G01X12833560Y8710152D01*
G01X12834772Y8713182D01*
G01X12835984Y8715606D01*
G01X12837500Y8718030D01*
G01X12839015Y8720152D01*
G01X12845075Y8726212D01*
G01X12846591Y8727424D01*
G01X12848106Y8728333D01*
G01X12850227Y8729546D01*
G01X12852651Y8730758D01*
G01X12855378Y8731970D01*
G01X12859318Y8733182D01*
G01X12863560Y8734091D01*
G01X12871136Y8734394D01*
G01X12877500Y8734091D01*
G01X12880530Y8733182D01*
G01X12884167Y8731970D01*
G01X12887197Y8730455D01*
G01X12890227Y8728636D01*
G01X12892348Y8727121D01*
G01X12893863Y8725909D01*
G01X12895379Y8724394D01*
G01X12899015Y8719849D01*
G01X12900227Y8718030D01*
G01X12901439Y8715909D01*
G01X12902651Y8713485D01*
G01X12903863Y8710455D01*
G01X12905076Y8707121D01*
G01X12905985Y8703485D01*
G01X12906591Y8700758D01*
G01X12906894Y8698636D01*
G01X12906515Y8697727D01*
G01X12905379Y8697424D01*
G01X12904091Y8697879D01*
G01X12903257Y8699242D01*
G01X12902045Y8702273D01*
G01X12900530Y8705000D01*
G01X12899015Y8707424D01*
G01X12897197Y8709849D01*
G01X12895076Y8711970D01*
G01X12893560Y8713182D01*
G01X12891439Y8714697D01*
G01X12889015Y8716212D01*
G01X12886288Y8717424D01*
G01X12883560Y8718333D01*
G01X12881136Y8718940D01*
G01X12878106Y8719546D01*
G01X12874470Y8719849D01*
G01X12871439Y8719546D01*
G01X12868409Y8718940D01*
G01X12864772Y8717727D01*
G01X12861742Y8716212D01*
G01X12859621Y8714697D01*
G01X12855075Y8710152D01*
G01X12853863Y8708636D01*
G01X12851742Y8704394D01*
G01X12850530Y8701667D01*
G01X12849621Y8698333D01*
G01X12849015Y8695303D01*
G01X12848712Y8689545D01*
G01X12849015Y8683788D01*
G01X12850227Y8678333D01*
G01X12851136Y8675606D01*
G01X12852348Y8672273D01*
G01X12854772Y8666818D01*
G01X12856288Y8664091D01*
G01X12859318Y8659242D01*
G01X12862954Y8653788D01*
G01X12864469Y8651667D01*
G01X12866288Y8649242D01*
G01X12868712Y8646212D01*
G01X12870530Y8644091D01*
G01X12871742Y8642576D01*
G01X12873257Y8641061D01*
G01X12876288Y8637424D01*
G01X12879318Y8634394D01*
G01X12882954Y8630152D01*
G01X12898106Y8615000D01*
G01X12900530Y8613182D01*
G01X12907197Y8606515D01*
G37*
G36*
G01X13136894Y8598257D02*
G01X13136288Y8596818D01*
G01X13134470Y8595000D01*
G01X13132954Y8593788D01*
G01X13051742Y8593182D01*
G01X12970530Y8593788D01*
G01X12969015Y8595000D01*
G01X12967500Y8597121D01*
G01X12966591Y8599545D01*
G01X12966894Y8601970D01*
G01X12969587Y8606818D01*
G01X12983561Y8606818D01*
G01X13000379Y8606136D01*
G01X13051439Y8605909D01*
G01X13119924Y8606212D01*
G01X13119924Y8607727D01*
G01X13118712Y8610152D01*
G01X13117500Y8612273D01*
G01X13116591Y8614091D01*
G01X13115379Y8616212D01*
G01X13113864Y8618939D01*
G01X13112045Y8621970D01*
G01X13110530Y8624697D01*
G01X13109318Y8626818D01*
G01X13108106Y8629242D01*
G01X13105682Y8633485D01*
G01X13099621Y8644394D01*
G01X13098409Y8646515D01*
G01X13097197Y8648333D01*
G01X13095682Y8651061D01*
G01X13093864Y8654091D01*
G01X13092348Y8657121D01*
G01X13091136Y8659242D01*
G01X13090227Y8660757D01*
G01X13089318Y8662576D01*
G01X13087803Y8665000D01*
G01X13086288Y8667727D01*
G01X13083864Y8671970D01*
G01X13080833Y8677424D01*
G01X13079621Y8679545D01*
G01X13078409Y8681970D01*
G01X13077197Y8684091D01*
G01X13075985Y8685909D01*
G01X13072954Y8691364D01*
G01X13071742Y8693485D01*
G01X13070530Y8695909D01*
G01X13065682Y8704394D01*
G01X13062651Y8709849D01*
G01X13061439Y8711970D01*
G01X13060227Y8713788D01*
G01X13057197Y8719243D01*
G01X13054772Y8723485D01*
G01X13053257Y8725909D01*
G01X13052348Y8726742D01*
G01X13051439Y8726818D01*
G01X13050227Y8725303D01*
G01X13049015Y8722879D01*
G01X13047500Y8720455D01*
G01X13046288Y8718333D01*
G01X13045076Y8715909D01*
G01X13043560Y8713182D01*
G01X13042045Y8710758D01*
G01X13040833Y8708636D01*
G01X13039621Y8706212D01*
G01X13034773Y8697727D01*
G01X13031742Y8692273D01*
G01X13029318Y8688030D01*
G01X13027803Y8685303D01*
G01X13026288Y8682879D01*
G01X13023257Y8677424D01*
G01X13019621Y8671061D01*
G01X13018409Y8668636D01*
G01X13015985Y8664394D01*
G01X13012954Y8658939D01*
G01X13010530Y8654697D01*
G01X13005985Y8646515D01*
G01X13004470Y8644091D01*
G01X13002954Y8641364D01*
G01X13001136Y8638333D01*
G01X12999621Y8635303D01*
G01X12994773Y8626818D01*
G01X12991742Y8621364D01*
G01X12989318Y8617121D01*
G01X12987803Y8614394D01*
G01X12986288Y8611970D01*
G01X12984773Y8609242D01*
G01X12983561Y8606818D01*
G01X12983561Y8606818D01*
G01X12969587Y8606818D01*
G01X12969924Y8607424D01*
G01X12972348Y8611667D01*
G01X12978409Y8622576D01*
G01X12980833Y8626818D01*
G01X12982348Y8629545D01*
G01X12983864Y8631970D01*
G01X12985379Y8634697D01*
G01X12987197Y8637727D01*
G01X12988712Y8640758D01*
G01X12991136Y8645000D01*
G01X12994167Y8650454D01*
G01X12996591Y8654697D01*
G01X12999621Y8660151D01*
G01X13000833Y8662273D01*
G01X13002045Y8664091D01*
G01X13006591Y8672273D01*
G01X13008409Y8675303D01*
G01X13009924Y8678333D01*
G01X13012348Y8682576D01*
G01X13015379Y8688030D01*
G01X13016591Y8690151D01*
G01X13017803Y8691970D01*
G01X13019015Y8694091D01*
G01X13020227Y8696515D01*
G01X13021439Y8698636D01*
G01X13022348Y8700152D01*
G01X13023257Y8701970D01*
G01X13024773Y8704394D01*
G01X13026288Y8707121D01*
G01X13027500Y8709243D01*
G01X13028712Y8711667D01*
G01X13031136Y8715909D01*
G01X13032651Y8718636D01*
G01X13034166Y8721061D01*
G01X13035682Y8723788D01*
G01X13037197Y8726818D01*
G01X13038409Y8728939D01*
G01X13039621Y8730758D01*
G01X13041136Y8733485D01*
G01X13042954Y8736515D01*
G01X13044469Y8739546D01*
G01X13045682Y8741667D01*
G01X13047197Y8743788D01*
G01X13048257Y8745000D01*
G01X13049621Y8745606D01*
G01X13052045Y8746212D01*
G01X13054469Y8745606D01*
G01X13056894Y8743485D01*
G01X13058409Y8741061D01*
G01X13065985Y8727424D01*
G01X13067803Y8724394D01*
G01X13069318Y8721364D01*
G01X13074167Y8712879D01*
G01X13080227Y8701970D01*
G01X13081439Y8699848D01*
G01X13082651Y8698030D01*
G01X13084167Y8695303D01*
G01X13085682Y8692273D01*
G01X13086894Y8690151D01*
G01X13088106Y8688333D01*
G01X13091136Y8682879D01*
G01X13094773Y8676515D01*
G01X13095985Y8674091D01*
G01X13098409Y8669848D01*
G01X13104470Y8658939D01*
G01X13105682Y8656818D01*
G01X13106894Y8655000D01*
G01X13109924Y8649545D01*
G01X13112348Y8645303D01*
G01X13116894Y8637121D01*
G01X13118712Y8634091D01*
G01X13120227Y8631061D01*
G01X13122651Y8626818D01*
G01X13128712Y8615909D01*
G01X13131136Y8611667D01*
G01X13132651Y8608939D01*
G01X13134167Y8606515D01*
G01X13135682Y8603788D01*
G01X13136894Y8600152D01*
G01X13136894Y8598257D01*
G37*
G36*
G01X13062954Y8619545D02*
G01X13061439Y8616515D01*
G01X13059015Y8614394D01*
G01X13056591Y8612879D01*
G01X13054772Y8612197D01*
G01X13051742Y8611970D01*
G01X13048636Y8612273D01*
G01X13046591Y8613182D01*
G01X13044166Y8615000D01*
G01X13042348Y8617121D01*
G01X13041136Y8619545D01*
G01X13040530Y8621970D01*
G01X13040227Y8625303D01*
G01X13040833Y8628030D01*
G01X13042045Y8630152D01*
G01X13043560Y8632273D01*
G01X13045682Y8633788D01*
G01X13048106Y8635000D01*
G01X13052045Y8635606D01*
G01X13055985Y8635000D01*
G01X13058409Y8633788D01*
G01X13060227Y8632273D01*
G01X13061439Y8630758D01*
G01X13062651Y8628333D01*
G01X13063560Y8624697D01*
G01X13063560Y8621970D01*
G01X13062954Y8619545D01*
G37*
G36*
G01X13052954Y8696212D02*
G01X13060227Y8696212D01*
G01X13060530Y8694697D01*
G01X13060833Y8667424D01*
G01X13060833Y8641667D01*
G01X13043257Y8641667D01*
G01X13042954Y8643182D01*
G01X13042651Y8670151D01*
G01X13042651Y8695606D01*
G01X13044166Y8695909D01*
G01X13052954Y8696212D01*
G37*
G36*
G01X12169318Y8821667D02*
G01X12166287Y8820758D01*
G01X12163560Y8820152D01*
G01X12161439Y8819546D01*
G01X12155984Y8819243D01*
G01X12150833Y8819546D01*
G01X12146590Y8820152D01*
G01X12144166Y8820758D01*
G01X12141439Y8821667D01*
G01X12139015Y8822576D01*
G01X12136893Y8823485D01*
G01X12134469Y8824697D01*
G01X12132348Y8826212D01*
G01X12130833Y8827424D01*
G01X12128408Y8828940D01*
G01X12124772Y8832576D01*
G01X12123560Y8834091D01*
G01X12122651Y8835606D01*
G01X12121439Y8837121D01*
G01X12120227Y8838940D01*
G01X12117802Y8843182D01*
G01X12116590Y8845909D01*
G01X12115378Y8848939D01*
G01X12114166Y8852273D01*
G01X12112954Y8856515D01*
G01X12112348Y8859849D01*
G01X12129318Y8859849D01*
G01X12129621Y8854091D01*
G01X12130227Y8847424D01*
G01X12130833Y8844394D01*
G01X12131742Y8841061D01*
G01X12132651Y8838636D01*
G01X12133863Y8836212D01*
G01X12135378Y8834091D01*
G01X12138409Y8831061D01*
G01X12140227Y8829546D01*
G01X12142348Y8828333D01*
G01X12144772Y8827424D01*
G01X12144772Y8827424D01*
G01X12147196Y8826818D01*
G01X12151439Y8826212D01*
G01X12152651Y8826212D01*
G01X12154772Y8826515D01*
G01X12157802Y8827121D01*
G01X12160227Y8828030D01*
G01X12162045Y8828940D01*
G01X12163560Y8830152D01*
G01X12165378Y8831667D01*
G01X12166893Y8833485D01*
G01X12168408Y8835000D01*
G01X12169621Y8836515D01*
G01X12170833Y8838636D01*
G01X12172348Y8841364D01*
G01X12173560Y8844394D01*
G01X12174772Y8846818D01*
G01X12175681Y8849546D01*
G01X12176590Y8852576D01*
G01X12177499Y8855909D01*
G01X12178711Y8863182D01*
G01X12179015Y8867424D01*
G01X12179318Y8870455D01*
G01X12179621Y8875909D01*
G01X12179318Y8881364D01*
G01X12178711Y8886212D01*
G01X12178105Y8888939D01*
G01X12177196Y8891970D01*
G01X12176287Y8894394D01*
G01X12175378Y8896515D01*
G01X12173863Y8898939D01*
G01X12172045Y8901061D01*
G01X12170530Y8902576D01*
G01X12168408Y8904394D01*
G01X12165378Y8905909D01*
G01X12162045Y8907121D01*
G01X12156893Y8907727D01*
G01X12152651Y8907424D01*
G01X12149924Y8906515D01*
G01X12147196Y8905303D01*
G01X12145378Y8904091D01*
G01X12142954Y8902273D01*
G01X12141136Y8900152D01*
G01X12138712Y8897121D01*
G01X12137802Y8895303D01*
G01X12135378Y8891061D01*
G01X12134469Y8888939D01*
G01X12133560Y8886515D01*
G01X12132651Y8883788D01*
G01X12131439Y8878939D01*
G01X12130833Y8875909D01*
G01X12130227Y8872273D01*
G01X12129924Y8868333D01*
G01X12129621Y8865606D01*
G01X12129318Y8859849D01*
G01X12112348Y8859849D01*
G01X12112045Y8861970D01*
G01X12111439Y8868636D01*
G01X12111439Y8870455D01*
G01X12112045Y8877121D01*
G01X12112651Y8879849D01*
G01X12113560Y8882879D01*
G01X12114469Y8885606D01*
G01X12115378Y8888030D01*
G01X12116590Y8890455D01*
G01X12118105Y8893182D01*
G01X12119924Y8895909D01*
G01X12121439Y8898030D01*
G01X12122651Y8899545D01*
G01X12127196Y8904091D01*
G01X12129621Y8905909D01*
G01X12132651Y8908030D01*
G01X12138106Y8910758D01*
G01X12140530Y8911667D01*
G01X12145378Y8912879D01*
G01X12149015Y8913485D01*
G01X12155984Y8913788D01*
G01X12161742Y8913485D01*
G01X12164772Y8912576D01*
G01X12168712Y8911364D01*
G01X12171742Y8910152D01*
G01X12175984Y8907727D01*
G01X12178711Y8905909D01*
G01X12181136Y8904091D01*
G01X12184166Y8901061D01*
G01X12185378Y8899545D01*
G01X12186287Y8898030D01*
G01X12187499Y8896515D01*
G01X12188711Y8894697D01*
G01X12191136Y8890455D01*
G01X12193560Y8885000D01*
G01X12194469Y8882576D01*
G01X12195075Y8880152D01*
G01X12195984Y8877424D01*
G01X12196590Y8874394D01*
G01X12196893Y8872273D01*
G01X12197499Y8866212D01*
G01X12197802Y8863788D01*
G01X12197499Y8861364D01*
G01X12196893Y8855909D01*
G01X12195681Y8851061D01*
G01X12194772Y8848636D01*
G01X12193560Y8845606D01*
G01X12192045Y8842576D01*
G01X12190530Y8839849D01*
G01X12189014Y8837424D01*
G01X12187499Y8835303D01*
G01X12185681Y8832879D01*
G01X12182045Y8829243D01*
G01X12178408Y8826212D01*
G01X12176590Y8825000D01*
G01X12171742Y8822576D01*
G01X12169318Y8821667D01*
G37*
G36*
G01X12258106Y8825606D02*
G01X12261439Y8825303D01*
G01X12262348Y8824924D01*
G01X12262651Y8823788D01*
G01X12262651Y8822273D01*
G01X12209317Y8822273D01*
G01X12209317Y8825303D01*
G01X12214469Y8825303D01*
G01X12220530Y8825606D01*
G01X12222954Y8826515D01*
G01X12225984Y8828333D01*
G01X12227802Y8830758D01*
G01X12228409Y8832879D01*
G01X12229015Y8835303D01*
G01X12229318Y8838030D01*
G01X12229621Y8840152D01*
G01X12229924Y8872879D01*
G01X12229924Y8904697D01*
G01X12206893Y8904697D01*
G01X12206893Y8911364D01*
G01X12229924Y8911364D01*
G01X12229924Y8921667D01*
G01X12229621Y8932879D01*
G01X12229015Y8941970D01*
G01X12228409Y8944394D01*
G01X12227499Y8946818D01*
G01X12226287Y8948940D01*
G01X12224772Y8950758D01*
G01X12222954Y8951970D01*
G01X12219924Y8953182D01*
G01X12216287Y8953788D01*
G01X12213863Y8953485D01*
G01X12211742Y8952879D01*
G01X12209317Y8951667D01*
G01X12207196Y8950152D01*
G01X12203560Y8945606D01*
G01X12202651Y8944091D01*
G01X12201439Y8942576D01*
G01X12199621Y8940152D01*
G01X12196893Y8938031D01*
G01X12194469Y8936818D01*
G01X12192045Y8936212D01*
G01X12189014Y8937121D01*
G01X12186893Y8938940D01*
G01X12185681Y8940455D01*
G01X12184469Y8942576D01*
G01X12184166Y8945000D01*
G01X12184772Y8947424D01*
G01X12185681Y8949546D01*
G01X12186893Y8951061D01*
G01X12188408Y8952576D01*
G01X12189924Y8953788D01*
G01X12192045Y8955303D01*
G01X12194469Y8956818D01*
G01X12198711Y8958637D01*
G01X12201742Y8959546D01*
G01X12204772Y8960152D01*
G01X12209924Y8960455D01*
G01X12215075Y8960152D01*
G01X12217802Y8959546D01*
G01X12220833Y8958637D01*
G01X12223560Y8957424D01*
G01X12225984Y8956212D01*
G01X12228105Y8955000D01*
G01X12229924Y8953788D01*
G01X12231439Y8952576D01*
G01X12235984Y8948030D01*
G01X12237196Y8946515D01*
G01X12238712Y8944394D01*
G01X12240227Y8941970D01*
G01X12241439Y8939546D01*
G01X12242651Y8936515D01*
G01X12243560Y8933182D01*
G01X12244166Y8930455D01*
G01X12244772Y8928031D01*
G01X12245378Y8923788D01*
G01X12245681Y8916212D01*
G01X12245681Y8911364D01*
G01X12263257Y8911364D01*
G01X12263257Y8904697D01*
G01X12245681Y8904697D01*
G01X12245681Y8872273D01*
G01X12245984Y8838940D01*
G01X12246287Y8835909D01*
G01X12246893Y8832576D01*
G01X12248106Y8830455D01*
G01X12249621Y8828940D01*
G01X12251136Y8827727D01*
G01X12252954Y8826818D01*
G01X12255075Y8826212D01*
G01X12258106Y8825606D01*
G37*
G36*
G01X12361742Y8826212D02*
G01X12364772Y8825606D01*
G01X12367500Y8825000D01*
G01X12368106Y8823485D01*
G01X12362651Y8822576D01*
G01X12346287Y8822273D01*
G01X12324469Y8822273D01*
G01X12324469Y8823788D01*
G01X12324924Y8824924D01*
G01X12326287Y8825303D01*
G01X12329015Y8825606D01*
G01X12331136Y8825909D01*
G01X12333863Y8826818D01*
G01X12335984Y8828637D01*
G01X12337196Y8830455D01*
G01X12338106Y8833485D01*
G01X12338409Y8838636D01*
G01X12338712Y8842576D01*
G01X12339015Y8866515D01*
G01X12338787Y8883939D01*
G01X12338106Y8890152D01*
G01X12333560Y8894697D01*
G01X12332045Y8895909D01*
G01X12330530Y8896818D01*
G01X12328712Y8898030D01*
G01X12326590Y8899242D01*
G01X12323863Y8900455D01*
G01X12320530Y8901364D01*
G01X12316590Y8901970D01*
G01X12313257Y8901970D01*
G01X12310530Y8901364D01*
G01X12308105Y8900152D01*
G01X12305681Y8897727D01*
G01X12304469Y8895909D01*
G01X12303560Y8893485D01*
G01X12302954Y8891061D01*
G01X12302348Y8888030D01*
G01X12302045Y8884091D01*
G01X12301742Y8881364D01*
G01X12301439Y8858030D01*
G01X12301742Y8834697D01*
G01X12302348Y8832273D01*
G01X12303560Y8829546D01*
G01X12305075Y8827727D01*
G01X12307196Y8826515D01*
G01X12311439Y8825606D01*
G01X12315075Y8825000D01*
G01X12315757Y8824470D01*
G01X12315984Y8823485D01*
G01X12310454Y8822576D01*
G01X12293863Y8822273D01*
G01X12271742Y8822273D01*
G01X12271742Y8823788D01*
G01X12272196Y8824924D01*
G01X12273560Y8825303D01*
G01X12276287Y8825606D01*
G01X12279015Y8826212D01*
G01X12281439Y8827424D01*
G01X12282954Y8828940D01*
G01X12284166Y8831061D01*
G01X12284772Y8833485D01*
G01X12285378Y8837727D01*
G01X12285984Y8889848D01*
G01X12286590Y8894697D01*
G01X12287499Y8897727D01*
G01X12288712Y8900758D01*
G01X12289924Y8903182D01*
G01X12291136Y8905303D01*
G01X12292348Y8906818D01*
G01X12293863Y8908333D01*
G01X12295378Y8909546D01*
G01X12297499Y8911061D01*
G01X12300833Y8912576D01*
G01X12304772Y8913485D01*
G01X12309924Y8913788D01*
G01X12313863Y8913485D01*
G01X12316590Y8912576D01*
G01X12319318Y8911364D01*
G01X12321742Y8910152D01*
G01X12323863Y8908939D01*
G01X12325378Y8907727D01*
G01X12327802Y8905909D01*
G01X12329924Y8904091D01*
G01X12331439Y8902879D01*
G01X12334469Y8899848D01*
G01X12336893Y8896818D01*
G01X12338409Y8895909D01*
G01X12338863Y8897955D01*
G01X12339015Y8904697D01*
G01X12339015Y8913788D01*
G01X12341439Y8913788D01*
G01X12344772Y8913182D01*
G01X12346894Y8912273D01*
G01X12349318Y8911364D01*
G01X12358409Y8907727D01*
G01X12361136Y8906515D01*
G01X12363257Y8905606D01*
G01X12365681Y8904697D01*
G01X12368106Y8903485D01*
G01X12368939Y8902652D01*
G01X12369015Y8901364D01*
G01X12368333Y8900303D01*
G01X12366893Y8900152D01*
G01X12364166Y8900758D01*
G01X12361136Y8901061D01*
G01X12359318Y8900833D01*
G01X12358106Y8900152D01*
G01X12356590Y8898030D01*
G01X12355681Y8895303D01*
G01X12355378Y8892576D01*
G01X12355075Y8890455D01*
G01X12354772Y8862879D01*
G01X12355075Y8835303D01*
G01X12355681Y8832576D01*
G01X12356590Y8829849D01*
G01X12357803Y8828030D01*
G01X12359621Y8826818D01*
G01X12361742Y8826212D01*
G37*
G36*
G01X12413560Y8825909D02*
G01X12417802Y8825303D01*
G01X12418712Y8824924D01*
G01X12419015Y8823788D01*
G01X12419015Y8822273D01*
G01X12375984Y8822273D01*
G01X12375984Y8823788D01*
G01X12376439Y8824924D01*
G01X12377803Y8825303D01*
G01X12380530Y8825606D01*
G01X12382954Y8826212D01*
G01X12385984Y8827727D01*
G01X12387803Y8830152D01*
G01X12388409Y8832273D01*
G01X12389015Y8834697D01*
G01X12389318Y8875000D01*
G01X12389318Y8913788D01*
G01X12392045Y8913788D01*
G01X12395681Y8913182D01*
G01X12397802Y8912273D01*
G01X12400227Y8911364D01*
G01X12406287Y8908939D01*
G01X12409015Y8907727D01*
G01X12418105Y8904091D01*
G01X12419924Y8903182D01*
G01X12419924Y8901364D01*
G01X12419242Y8900303D01*
G01X12417802Y8900152D01*
G01X12415075Y8900758D01*
G01X12412045Y8901061D01*
G01X12410227Y8900833D01*
G01X12409015Y8900152D01*
G01X12407499Y8898030D01*
G01X12406590Y8895303D01*
G01X12406287Y8892576D01*
G01X12405984Y8890455D01*
G01X12405681Y8862273D01*
G01X12405984Y8834091D01*
G01X12406590Y8831667D01*
G01X12407499Y8829546D01*
G01X12408712Y8828030D01*
G01X12410833Y8826515D01*
G01X12413560Y8825909D01*
G37*
G36*
G01X12405681Y8945606D02*
G01X12403560Y8943485D01*
G01X12401742Y8942273D01*
G01X12400227Y8941364D01*
G01X12397499Y8941061D01*
G01X12394166Y8941667D01*
G01X12392045Y8942879D01*
G01X12390530Y8944394D01*
G01X12389318Y8946212D01*
G01X12388409Y8948637D01*
G01X12388106Y8952273D01*
G01X12388712Y8955303D01*
G01X12389924Y8957121D01*
G01X12392045Y8958940D01*
G01X12395075Y8960152D01*
G01X12398712Y8960455D01*
G01X12401742Y8959849D01*
G01X12403560Y8958637D01*
G01X12405075Y8957121D01*
G01X12406287Y8955303D01*
G01X12407196Y8952273D01*
G01X12407196Y8948637D01*
G01X12405681Y8945606D01*
G37*
G36*
G01X12570227Y8862879D02*
G01X12570909Y8863788D01*
G01X12572348Y8864091D01*
G01X12574166Y8864091D01*
G01X12574166Y8819243D01*
G01X12572348Y8819243D01*
G01X12570909Y8819697D01*
G01X12570227Y8821061D01*
G01X12569318Y8823788D01*
G01X12567500Y8825606D01*
G01X12564166Y8826515D01*
G01X12561136Y8826212D01*
G01X12558409Y8825303D01*
G01X12555075Y8824394D01*
G01X12552348Y8823485D01*
G01X12543257Y8820758D01*
G01X12540530Y8820152D01*
G01X12536287Y8819546D01*
G01X12528712Y8819243D01*
G01X12521136Y8819546D01*
G01X12515075Y8820758D01*
G01X12512651Y8821667D01*
G01X12509621Y8822879D01*
G01X12507196Y8824091D01*
G01X12504772Y8825606D01*
G01X12501742Y8827727D01*
G01X12498712Y8830152D01*
G01X12496590Y8832576D01*
G01X12493560Y8836212D01*
G01X12492348Y8838333D01*
G01X12489924Y8843182D01*
G01X12489015Y8845909D01*
G01X12488409Y8848636D01*
G01X12487803Y8851667D01*
G01X12487500Y8857121D01*
G01X12487803Y8861364D01*
G01X12489015Y8866212D01*
G01X12489924Y8868636D01*
G01X12491136Y8871061D01*
G01X12492651Y8873485D01*
G01X12494772Y8876515D01*
G01X12496590Y8878939D01*
G01X12498106Y8880455D01*
G01X12500530Y8882273D01*
G01X12503560Y8884697D01*
G01X12506590Y8886818D01*
G01X12511439Y8889848D01*
G01X12514469Y8891667D01*
G01X12517196Y8893182D01*
G01X12519318Y8894394D01*
G01X12521742Y8895606D01*
G01X12525984Y8898030D01*
G01X12528409Y8899242D01*
G01X12530833Y8900758D01*
G01X12533863Y8902273D01*
G01X12535984Y8903485D01*
G01X12537803Y8904697D01*
G01X12539924Y8905909D01*
G01X12542348Y8907424D01*
G01X12545075Y8909243D01*
G01X12547197Y8910758D01*
G01X12552045Y8914394D01*
G01X12555075Y8917424D01*
G01X12556288Y8918940D01*
G01X12557197Y8920455D01*
G01X12558409Y8922576D01*
G01X12559318Y8926212D01*
G01X12559621Y8931061D01*
G01X12559015Y8935000D01*
G01X12557803Y8937727D01*
G01X12556591Y8939849D01*
G01X12555378Y8941364D01*
G01X12553863Y8942879D01*
G01X12550833Y8945303D01*
G01X12549015Y8946515D01*
G01X12546591Y8947727D01*
G01X12543257Y8948637D01*
G01X12540530Y8949243D01*
G01X12535378Y8949546D01*
G01X12530227Y8949243D01*
G01X12527802Y8948637D01*
G01X12525075Y8947727D01*
G01X12522651Y8946818D01*
G01X12520530Y8945909D01*
G01X12516287Y8943485D01*
G01X12514469Y8942273D01*
G01X12512954Y8940758D01*
G01X12511439Y8939546D01*
G01X12510227Y8938334D01*
G01X12509015Y8936818D01*
G01X12507499Y8935000D01*
G01X12506287Y8932879D01*
G01X12503863Y8928031D01*
G01X12502954Y8925606D01*
G01X12502348Y8923182D01*
G01X12501439Y8920152D01*
G01X12500530Y8915909D01*
G01X12499621Y8912576D01*
G01X12498863Y8911667D01*
G01X12497803Y8911364D01*
G01X12496818Y8911743D01*
G01X12496287Y8912879D01*
G01X12495984Y8935909D01*
G01X12495984Y8957424D01*
G01X12497803Y8957424D01*
G01X12499242Y8956970D01*
G01X12499924Y8955606D01*
G01X12501439Y8952273D01*
G01X12502878Y8950985D01*
G01X12504772Y8950152D01*
G01X12509015Y8950152D01*
G01X12512651Y8951364D01*
G01X12515681Y8952576D01*
G01X12519015Y8953788D01*
G01X12522651Y8955000D01*
G01X12526590Y8955909D01*
G01X12529621Y8956515D01*
G01X12533863Y8957121D01*
G01X12538106Y8957424D01*
G01X12542348Y8957121D01*
G01X12546591Y8956515D01*
G01X12552954Y8954394D01*
G01X12555682Y8953182D01*
G01X12557803Y8951970D01*
G01X12560530Y8950152D01*
G01X12562954Y8948334D01*
G01X12565985Y8945303D01*
G01X12567500Y8943485D01*
G01X12568712Y8941667D01*
G01X12570227Y8939546D01*
G01X12572954Y8934091D01*
G01X12573863Y8931364D01*
G01X12574469Y8928637D01*
G01X12575075Y8925000D01*
G01X12575378Y8920758D01*
G01X12575075Y8918334D01*
G01X12574469Y8915303D01*
G01X12573560Y8911970D01*
G01X12572348Y8908939D01*
G01X12571136Y8906515D01*
G01X12568106Y8902273D01*
G01X12566894Y8900758D01*
G01X12563863Y8897727D01*
G01X12560227Y8894697D01*
G01X12558712Y8893485D01*
G01X12556288Y8891970D01*
G01X12553560Y8890152D01*
G01X12551136Y8888636D01*
G01X12548409Y8886818D01*
G01X12545378Y8885000D01*
G01X12542651Y8883485D01*
G01X12523560Y8872576D01*
G01X12521136Y8871061D01*
G01X12518106Y8869242D01*
G01X12515984Y8867727D01*
G01X12514469Y8866515D01*
G01X12509924Y8861970D01*
G01X12508712Y8860152D01*
G01X12507196Y8857727D01*
G01X12505984Y8854697D01*
G01X12505378Y8852273D01*
G01X12504772Y8849243D01*
G01X12504772Y8845606D01*
G01X12505378Y8842576D01*
G01X12506590Y8839546D01*
G01X12508106Y8836818D01*
G01X12509621Y8835000D01*
G01X12511136Y8833485D01*
G01X12512954Y8831970D01*
G01X12514772Y8830758D01*
G01X12516893Y8829546D01*
G01X12519924Y8828333D01*
G01X12524166Y8827424D01*
G01X12527802Y8826818D01*
G01X12532651Y8826515D01*
G01X12537499Y8826818D01*
G01X12540530Y8827424D01*
G01X12543863Y8828333D01*
G01X12548712Y8830152D01*
G01X12551136Y8831364D01*
G01X12553560Y8832879D01*
G01X12555682Y8834394D01*
G01X12558106Y8836212D01*
G01X12560227Y8838333D01*
G01X12562045Y8840758D01*
G01X12563863Y8843788D01*
G01X12565075Y8845909D01*
G01X12565985Y8847727D01*
G01X12566894Y8850152D01*
G01X12568712Y8856212D01*
G01X12569318Y8858636D01*
G01X12569621Y8860758D01*
G01X12570227Y8862879D01*
G37*
G54D11*
G01X4557380Y5316734D02*
G01X4557380Y5251710D01*
G01X4557380Y5316734D02*
G01X4535790Y5316734D01*
G01X4526392Y5313686D01*
G01X4520296Y5307590D01*
G01X4517248Y5301240D01*
G01X4513946Y5292096D01*
G01X4513946Y5276602D01*
G01X4517248Y5267204D01*
G01X4520296Y5261108D01*
G01X4526392Y5254758D01*
G01X4535790Y5251710D01*
G01X4557380Y5251710D01*
G01X4483974Y5276602D02*
G01X4446636Y5276602D01*
G01X4446636Y5282698D01*
G01X4449938Y5289048D01*
G01X4452986Y5292096D01*
G01X4459082Y5295144D01*
G01X4468480Y5295144D01*
G01X4474576Y5292096D01*
G01X4480672Y5285746D01*
G01X4483974Y5276602D01*
G01X4483974Y5270252D01*
G01X4480672Y5261108D01*
G01X4474576Y5254758D01*
G01X4468480Y5251710D01*
G01X4459082Y5251710D01*
G01X4452986Y5254758D01*
G01X4446636Y5261108D01*
G01X4379326Y5285746D02*
G01X4385676Y5292096D01*
G01X4391772Y5295144D01*
G01X4401170Y5295144D01*
G01X4407266Y5292096D01*
G01X4413362Y5285746D01*
G01X4416664Y5276602D01*
G01X4416664Y5270252D01*
G01X4413362Y5261108D01*
G01X4407266Y5254758D01*
G01X4401170Y5251710D01*
G01X4391772Y5251710D01*
G01X4385676Y5254758D01*
G01X4379326Y5261108D01*
G01X4333860Y5295144D02*
G01X4339956Y5292096D01*
G01X4346052Y5285746D01*
G01X4349354Y5276602D01*
G01X4349354Y5270252D01*
G01X4346052Y5261108D01*
G01X4339956Y5254758D01*
G01X4333860Y5251710D01*
G01X4324462Y5251710D01*
G01X4318366Y5254758D01*
G01X4312016Y5261108D01*
G01X4308968Y5270252D01*
G01X4308968Y5276602D01*
G01X4312016Y5285746D01*
G01X4318366Y5292096D01*
G01X4324462Y5295144D01*
G01X4333860Y5295144D01*
G01X4278996Y5295144D02*
G01X4278996Y5264156D01*
G01X4275694Y5254758D01*
G01X4269598Y5251710D01*
G01X4260200Y5251710D01*
G01X4254104Y5254758D01*
G01X4244960Y5264156D01*
G01X4244960Y5295144D02*
G01X4244960Y5251710D01*
G01X4214988Y5295144D02*
G01X4214988Y5230120D01*
G01X4214988Y5285746D02*
G01X4208638Y5292096D01*
G01X4202542Y5295144D01*
G01X4193144Y5295144D01*
G01X4187048Y5292096D01*
G01X4180952Y5285746D01*
G01X4177650Y5276602D01*
G01X4177650Y5270252D01*
G01X4180952Y5261108D01*
G01X4187048Y5254758D01*
G01X4193144Y5251710D01*
G01X4202542Y5251710D01*
G01X4208638Y5254758D01*
G01X4214988Y5261108D01*
G01X4147678Y5316734D02*
G01X4147678Y5251710D01*
G01X4117452Y5316734D02*
G01X4114404Y5313686D01*
G01X4111356Y5316734D01*
G01X4114404Y5320036D01*
G01X4117452Y5316734D01*
G01X4114404Y5295144D02*
G01X4114404Y5251710D01*
G01X4081384Y5295144D02*
G01X4081384Y5251710D01*
G01X4081384Y5282698D02*
G01X4071986Y5292096D01*
G01X4065890Y5295144D01*
G01X4056492Y5295144D01*
G01X4050396Y5292096D01*
G01X4047348Y5282698D01*
G01X4047348Y5251710D01*
G01X3980038Y5295144D02*
G01X3980038Y5245614D01*
G01X3983340Y5236216D01*
G01X3986388Y5233168D01*
G01X3992484Y5230120D01*
G01X4001882Y5230120D01*
G01X4007978Y5233168D01*
G01X3980038Y5285746D02*
G01X3986388Y5292096D01*
G01X3992484Y5295144D01*
G01X4001882Y5295144D01*
G01X4007978Y5292096D01*
G01X4014074Y5285746D01*
G01X4017376Y5276602D01*
G01X4017376Y5270252D01*
G01X4014074Y5261108D01*
G01X4007978Y5254758D01*
G01X4001882Y5251710D01*
G01X3992484Y5251710D01*
G01X3986388Y5254758D01*
G01X3980038Y5261108D01*
G01X3843386Y5285746D02*
G01X3849736Y5292096D01*
G01X3855832Y5295144D01*
G01X3865230Y5295144D01*
G01X3871326Y5292096D01*
G01X3877422Y5285746D01*
G01X3880724Y5276602D01*
G01X3880724Y5270252D01*
G01X3877422Y5261108D01*
G01X3871326Y5254758D01*
G01X3865230Y5251710D01*
G01X3855832Y5251710D01*
G01X3849736Y5254758D01*
G01X3843386Y5261108D01*
G01X3776076Y5295144D02*
G01X3776076Y5251710D01*
G01X3776076Y5285746D02*
G01X3782426Y5292096D01*
G01X3788522Y5295144D01*
G01X3797920Y5295144D01*
G01X3804016Y5292096D01*
G01X3810112Y5285746D01*
G01X3813414Y5276602D01*
G01X3813414Y5270252D01*
G01X3810112Y5261108D01*
G01X3804016Y5254758D01*
G01X3797920Y5251710D01*
G01X3788522Y5251710D01*
G01X3782426Y5254758D01*
G01X3776076Y5261108D01*
G01X3746104Y5295144D02*
G01X3746104Y5230120D01*
G01X3746104Y5285746D02*
G01X3739754Y5292096D01*
G01X3733658Y5295144D01*
G01X3724260Y5295144D01*
G01X3718164Y5292096D01*
G01X3712068Y5285746D01*
G01X3708766Y5276602D01*
G01X3708766Y5270252D01*
G01X3712068Y5261108D01*
G01X3718164Y5254758D01*
G01X3724260Y5251710D01*
G01X3733658Y5251710D01*
G01X3739754Y5254758D01*
G01X3746104Y5261108D01*
G01X3644758Y5285746D02*
G01X3647806Y5292096D01*
G01X3656950Y5295144D01*
G01X3666348Y5295144D01*
G01X3675492Y5292096D01*
G01X3678794Y5285746D01*
G01X3675492Y5279650D01*
G01X3669396Y5276602D01*
G01X3653902Y5273554D01*
G01X3647806Y5270252D01*
G01X3644758Y5264156D01*
G01X3644758Y5261108D01*
G01X3647806Y5254758D01*
G01X3656950Y5251710D01*
G01X3666348Y5251710D01*
G01X3675492Y5254758D01*
G01X3678794Y5261108D01*
G01X3523600Y5329180D02*
G01X3529950Y5323084D01*
G01X3536046Y5313686D01*
G01X3542142Y5301240D01*
G01X3545444Y5285746D01*
G01X3545444Y5273554D01*
G01X3542142Y5258060D01*
G01X3536046Y5245614D01*
G01X3529950Y5236216D01*
G01X3523600Y5230120D01*
G01X3493628Y5316734D02*
G01X3493628Y5251710D01*
G01X3493628Y5316734D02*
G01X3471784Y5316734D01*
G01X3462640Y5313686D01*
G01X3456290Y5307590D01*
G01X3453242Y5301240D01*
G01X3450194Y5292096D01*
G01X3450194Y5276602D01*
G01X3453242Y5267204D01*
G01X3456290Y5261108D01*
G01X3462640Y5254758D01*
G01X3471784Y5251710D01*
G01X3493628Y5251710D01*
G01X3420222Y5316734D02*
G01X3420222Y5251710D01*
G01X3420222Y5316734D02*
G01X3376788Y5251710D01*
G01X3376788Y5316734D02*
G01X3376788Y5251710D01*
G01X3346816Y5316734D02*
G01X3346816Y5251710D01*
G01X3346816Y5316734D02*
G01X3318876Y5316734D01*
G01X3309478Y5313686D01*
G01X3306430Y5310638D01*
G01X3303382Y5304542D01*
G01X3303382Y5295144D01*
G01X3306430Y5289048D01*
G01X3309478Y5285746D01*
G01X3318876Y5282698D01*
G01X3346816Y5282698D01*
G01X3270108Y5289048D02*
G01X3273410Y5285746D01*
G01X3270108Y5282698D01*
G01X3267060Y5285746D01*
G01X3270108Y5289048D01*
G01X3270108Y5267204D02*
G01X3273410Y5264156D01*
G01X3270108Y5261108D01*
G01X3267060Y5264156D01*
G01X3270108Y5267204D01*
G01X3121264Y5301240D02*
G01X3124312Y5307590D01*
G01X3130408Y5313686D01*
G01X3136758Y5316734D01*
G01X3148950Y5316734D01*
G01X3155300Y5313686D01*
G01X3161396Y5307590D01*
G01X3164444Y5301240D01*
G01X3167746Y5292096D01*
G01X3167746Y5276602D01*
G01X3164444Y5267204D01*
G01X3161396Y5261108D01*
G01X3155300Y5254758D01*
G01X3148950Y5251710D01*
G01X3136758Y5251710D01*
G01X3130408Y5254758D01*
G01X3124312Y5261108D01*
G01X3121264Y5267204D01*
G01X3084942Y5316734D02*
G01X3050906Y5316734D01*
G01X3069448Y5292096D01*
G01X3060304Y5292096D01*
G01X3053954Y5289048D01*
G01X3050906Y5285746D01*
G01X3047858Y5276602D01*
G01X3047858Y5270252D01*
G01X3050906Y5261108D01*
G01X3057256Y5254758D01*
G01X3066400Y5251710D01*
G01X3075798Y5251710D01*
G01X3084942Y5254758D01*
G01X3087990Y5258060D01*
G01X3091292Y5264156D01*
G01X3011536Y5316734D02*
G01X2977500Y5316734D01*
G01X2996042Y5292096D01*
G01X2986898Y5292096D01*
G01X2980548Y5289048D01*
G01X2977500Y5285746D01*
G01X2974452Y5276602D01*
G01X2974452Y5270252D01*
G01X2977500Y5261108D01*
G01X2983850Y5254758D01*
G01X2992994Y5251710D01*
G01X3002392Y5251710D01*
G01X3011536Y5254758D01*
G01X3014584Y5258060D01*
G01X3017886Y5264156D01*
G01X2850246Y5316734D02*
G01X2856342Y5316734D01*
G01X2862692Y5313686D01*
G01X2865740Y5304542D01*
G01X2865740Y5251710D01*
G01X2875138Y5295144D02*
G01X2853294Y5295144D01*
G01X2804780Y5295144D02*
G01X2810876Y5292096D01*
G01X2816972Y5285746D01*
G01X2820274Y5276602D01*
G01X2820274Y5270252D01*
G01X2816972Y5261108D01*
G01X2810876Y5254758D01*
G01X2804780Y5251710D01*
G01X2795382Y5251710D01*
G01X2789286Y5254758D01*
G01X2782936Y5261108D01*
G01X2779888Y5270252D01*
G01X2779888Y5276602D01*
G01X2782936Y5285746D01*
G01X2789286Y5292096D01*
G01X2795382Y5295144D01*
G01X2804780Y5295144D01*
G01X2749916Y5295144D02*
G01X2749916Y5251710D01*
G01X2749916Y5276602D02*
G01X2746614Y5285746D01*
G01X2740518Y5292096D01*
G01X2734422Y5295144D01*
G01X2725024Y5295144D01*
G01X2625710Y5316734D02*
G01X2625710Y5251710D01*
G01X2625710Y5285746D02*
G01X2619360Y5292096D01*
G01X2613264Y5295144D01*
G01X2603866Y5295144D01*
G01X2597770Y5292096D01*
G01X2591420Y5285746D01*
G01X2588372Y5276602D01*
G01X2588372Y5270252D01*
G01X2591420Y5261108D01*
G01X2597770Y5254758D01*
G01X2603866Y5251710D01*
G01X2613264Y5251710D01*
G01X2619360Y5254758D01*
G01X2625710Y5261108D01*
G01X2521062Y5295144D02*
G01X2521062Y5251710D01*
G01X2521062Y5285746D02*
G01X2527412Y5292096D01*
G01X2533508Y5295144D01*
G01X2542906Y5295144D01*
G01X2549002Y5292096D01*
G01X2555098Y5285746D01*
G01X2558400Y5276602D01*
G01X2558400Y5270252D01*
G01X2555098Y5261108D01*
G01X2549002Y5254758D01*
G01X2542906Y5251710D01*
G01X2533508Y5251710D01*
G01X2527412Y5254758D01*
G01X2521062Y5261108D01*
G01X2453752Y5285746D02*
G01X2460102Y5292096D01*
G01X2466198Y5295144D01*
G01X2475596Y5295144D01*
G01X2481692Y5292096D01*
G01X2487788Y5285746D01*
G01X2491090Y5276602D01*
G01X2491090Y5270252D01*
G01X2487788Y5261108D01*
G01X2481692Y5254758D01*
G01X2475596Y5251710D01*
G01X2466198Y5251710D01*
G01X2460102Y5254758D01*
G01X2453752Y5261108D01*
G01X2423780Y5316734D02*
G01X2423780Y5251710D01*
G01X2392792Y5295144D02*
G01X2423780Y5264156D01*
G01X2411334Y5276602D02*
G01X2389744Y5251710D01*
G01X2359772Y5295144D02*
G01X2359772Y5264156D01*
G01X2356470Y5254758D01*
G01X2350374Y5251710D01*
G01X2340976Y5251710D01*
G01X2334880Y5254758D01*
G01X2325736Y5264156D01*
G01X2325736Y5295144D02*
G01X2325736Y5251710D01*
G01X2295764Y5295144D02*
G01X2295764Y5230120D01*
G01X2295764Y5285746D02*
G01X2289414Y5292096D01*
G01X2283318Y5295144D01*
G01X2273920Y5295144D01*
G01X2267824Y5292096D01*
G01X2261728Y5285746D01*
G01X2258426Y5276602D01*
G01X2258426Y5270252D01*
G01X2261728Y5261108D01*
G01X2267824Y5254758D01*
G01X2273920Y5251710D01*
G01X2283318Y5251710D01*
G01X2289414Y5254758D01*
G01X2295764Y5261108D01*
G01X2228454Y5329180D02*
G01X2222104Y5323084D01*
G01X2216008Y5313686D01*
G01X2209658Y5301240D01*
G01X2206610Y5285746D01*
G01X2206610Y5273554D01*
G01X2209658Y5258060D01*
G01X2216008Y5245614D01*
G01X2222104Y5236216D01*
G01X2228454Y5230120D01*
G01X3103290Y4399180D02*
G01X3109386Y4393084D01*
G01X3115736Y4383686D01*
G01X3121832Y4371240D01*
G01X3124880Y4355746D01*
G01X3124880Y4343554D01*
G01X3121832Y4328060D01*
G01X3115736Y4315614D01*
G01X3109386Y4306216D01*
G01X3103290Y4300120D01*
G01X3073318Y4386734D02*
G01X3073318Y4321710D01*
G01X3073318Y4386734D02*
G01X3051474Y4386734D01*
G01X3042330Y4383686D01*
G01X3035980Y4377590D01*
G01X3032932Y4371240D01*
G01X3029884Y4362096D01*
G01X3029884Y4346602D01*
G01X3032932Y4337204D01*
G01X3035980Y4331108D01*
G01X3042330Y4324758D01*
G01X3051474Y4321710D01*
G01X3073318Y4321710D01*
G01X2999912Y4386734D02*
G01X2999912Y4321710D01*
G01X2999912Y4386734D02*
G01X2956478Y4321710D01*
G01X2956478Y4386734D02*
G01X2956478Y4321710D01*
G01X2926506Y4386734D02*
G01X2926506Y4321710D01*
G01X2926506Y4386734D02*
G01X2898566Y4386734D01*
G01X2889168Y4383686D01*
G01X2886120Y4380638D01*
G01X2883072Y4374542D01*
G01X2883072Y4365144D01*
G01X2886120Y4359048D01*
G01X2889168Y4355746D01*
G01X2898566Y4352698D01*
G01X2926506Y4352698D01*
G01X2849798Y4359048D02*
G01X2853100Y4355746D01*
G01X2849798Y4352698D01*
G01X2846750Y4355746D01*
G01X2849798Y4359048D01*
G01X2849798Y4337204D02*
G01X2853100Y4334156D01*
G01X2849798Y4331108D01*
G01X2846750Y4334156D01*
G01X2849798Y4337204D01*
G01X2747436Y4386734D02*
G01X2747436Y4321710D01*
G01X2747436Y4386734D02*
G01X2719496Y4386734D01*
G01X2710098Y4383686D01*
G01X2707050Y4380638D01*
G01X2704002Y4374542D01*
G01X2704002Y4368192D01*
G01X2707050Y4362096D01*
G01X2710098Y4359048D01*
G01X2719496Y4355746D01*
G01X2747436Y4355746D01*
G01X2725592Y4355746D02*
G01X2704002Y4321710D01*
G01X2667680Y4386734D02*
G01X2633644Y4386734D01*
G01X2652186Y4362096D01*
G01X2643042Y4362096D01*
G01X2636692Y4359048D01*
G01X2633644Y4355746D01*
G01X2630596Y4346602D01*
G01X2630596Y4340252D01*
G01X2633644Y4331108D01*
G01X2639994Y4324758D01*
G01X2649138Y4321710D01*
G01X2658536Y4321710D01*
G01X2667680Y4324758D01*
G01X2670728Y4328060D01*
G01X2674030Y4334156D01*
G01X2563286Y4377590D02*
G01X2566588Y4383686D01*
G01X2575732Y4386734D01*
G01X2581828Y4386734D01*
G01X2591226Y4383686D01*
G01X2597322Y4374542D01*
G01X2600624Y4359048D01*
G01X2600624Y4343554D01*
G01X2597322Y4331108D01*
G01X2591226Y4324758D01*
G01X2581828Y4321710D01*
G01X2578780Y4321710D01*
G01X2569636Y4324758D01*
G01X2563286Y4331108D01*
G01X2560238Y4340252D01*
G01X2560238Y4343554D01*
G01X2563286Y4352698D01*
G01X2569636Y4359048D01*
G01X2578780Y4362096D01*
G01X2581828Y4362096D01*
G01X2591226Y4359048D01*
G01X2597322Y4352698D01*
G01X2600624Y4343554D01*
G01X2436032Y4386734D02*
G01X2442128Y4386734D01*
G01X2448478Y4383686D01*
G01X2451526Y4374542D01*
G01X2451526Y4321710D01*
G01X2460924Y4365144D02*
G01X2439080Y4365144D01*
G01X2390566Y4365144D02*
G01X2396662Y4362096D01*
G01X2402758Y4355746D01*
G01X2406060Y4346602D01*
G01X2406060Y4340252D01*
G01X2402758Y4331108D01*
G01X2396662Y4324758D01*
G01X2390566Y4321710D01*
G01X2381168Y4321710D01*
G01X2375072Y4324758D01*
G01X2368722Y4331108D01*
G01X2365674Y4340252D01*
G01X2365674Y4346602D01*
G01X2368722Y4355746D01*
G01X2375072Y4362096D01*
G01X2381168Y4365144D01*
G01X2390566Y4365144D01*
G01X2335702Y4365144D02*
G01X2335702Y4321710D01*
G01X2335702Y4346602D02*
G01X2332400Y4355746D01*
G01X2326304Y4362096D01*
G01X2320208Y4365144D01*
G01X2310810Y4365144D01*
G01X2211496Y4386734D02*
G01X2211496Y4321710D01*
G01X2211496Y4355746D02*
G01X2205146Y4362096D01*
G01X2199050Y4365144D01*
G01X2189652Y4365144D01*
G01X2183556Y4362096D01*
G01X2177206Y4355746D01*
G01X2174158Y4346602D01*
G01X2174158Y4340252D01*
G01X2177206Y4331108D01*
G01X2183556Y4324758D01*
G01X2189652Y4321710D01*
G01X2199050Y4321710D01*
G01X2205146Y4324758D01*
G01X2211496Y4331108D01*
G01X2106848Y4365144D02*
G01X2106848Y4321710D01*
G01X2106848Y4355746D02*
G01X2113198Y4362096D01*
G01X2119294Y4365144D01*
G01X2128692Y4365144D01*
G01X2134788Y4362096D01*
G01X2140884Y4355746D01*
G01X2144186Y4346602D01*
G01X2144186Y4340252D01*
G01X2140884Y4331108D01*
G01X2134788Y4324758D01*
G01X2128692Y4321710D01*
G01X2119294Y4321710D01*
G01X2113198Y4324758D01*
G01X2106848Y4331108D01*
G01X2039538Y4355746D02*
G01X2045888Y4362096D01*
G01X2051984Y4365144D01*
G01X2061382Y4365144D01*
G01X2067478Y4362096D01*
G01X2073574Y4355746D01*
G01X2076876Y4346602D01*
G01X2076876Y4340252D01*
G01X2073574Y4331108D01*
G01X2067478Y4324758D01*
G01X2061382Y4321710D01*
G01X2051984Y4321710D01*
G01X2045888Y4324758D01*
G01X2039538Y4331108D01*
G01X2009566Y4386734D02*
G01X2009566Y4321710D01*
G01X1978578Y4365144D02*
G01X2009566Y4334156D01*
G01X1997120Y4346602D02*
G01X1975530Y4321710D01*
G01X1945558Y4365144D02*
G01X1945558Y4334156D01*
G01X1942256Y4324758D01*
G01X1936160Y4321710D01*
G01X1926762Y4321710D01*
G01X1920666Y4324758D01*
G01X1911522Y4334156D01*
G01X1911522Y4365144D02*
G01X1911522Y4321710D01*
G01X1881550Y4365144D02*
G01X1881550Y4300120D01*
G01X1881550Y4355746D02*
G01X1875200Y4362096D01*
G01X1869104Y4365144D01*
G01X1859706Y4365144D01*
G01X1853610Y4362096D01*
G01X1847514Y4355746D01*
G01X1844212Y4346602D01*
G01X1844212Y4340252D01*
G01X1847514Y4331108D01*
G01X1853610Y4324758D01*
G01X1859706Y4321710D01*
G01X1869104Y4321710D01*
G01X1875200Y4324758D01*
G01X1881550Y4331108D01*
G01X1814240Y4399180D02*
G01X1807890Y4393084D01*
G01X1801794Y4383686D01*
G01X1795444Y4371240D01*
G01X1792396Y4355746D01*
G01X1792396Y4343554D01*
G01X1795444Y4328060D01*
G01X1801794Y4315614D01*
G01X1807890Y4306216D01*
G01X1814240Y4300120D01*
G54D12*
G01X4516932Y5181940D02*
G01X4519980Y5188290D01*
G01X4526330Y5194386D01*
G01X4532426Y5197434D01*
G01X4544872Y5197434D01*
G01X4550968Y5194386D01*
G01X4557318Y5188290D01*
G01X4560366Y5181940D01*
G01X4563414Y5172796D01*
G01X4563414Y5157302D01*
G01X4560366Y5147904D01*
G01X4557318Y5141808D01*
G01X4550968Y5135458D01*
G01X4544872Y5132410D01*
G01X4532426Y5132410D01*
G01X4526330Y5135458D01*
G01X4519980Y5141808D01*
G01X4516932Y5147904D01*
G01X4480610Y5197434D02*
G01X4446574Y5197434D01*
G01X4465116Y5172796D01*
G01X4455972Y5172796D01*
G01X4449622Y5169748D01*
G01X4446574Y5166446D01*
G01X4443526Y5157302D01*
G01X4443526Y5150952D01*
G01X4446574Y5141808D01*
G01X4452670Y5135458D01*
G01X4462068Y5132410D01*
G01X4471466Y5132410D01*
G01X4480610Y5135458D01*
G01X4483658Y5138760D01*
G01X4486706Y5144856D01*
G01X4407204Y5197434D02*
G01X4373168Y5197434D01*
G01X4391710Y5172796D01*
G01X4382566Y5172796D01*
G01X4376216Y5169748D01*
G01X4373168Y5166446D01*
G01X4370120Y5157302D01*
G01X4370120Y5150952D01*
G01X4373168Y5141808D01*
G01X4379264Y5135458D01*
G01X4388662Y5132410D01*
G01X4398060Y5132410D01*
G01X4407204Y5135458D01*
G01X4410252Y5138760D01*
G01X4413300Y5144856D01*
G01X3457380Y4529234D02*
G01X3457380Y4464210D01*
G01X3457380Y4529234D02*
G01X3429440Y4529234D01*
G01X3420296Y4526186D01*
G01X3417248Y4523138D01*
G01X3413946Y4516788D01*
G01X3413946Y4510692D01*
G01X3417248Y4504596D01*
G01X3420296Y4501548D01*
G01X3429440Y4498246D01*
G01X3457380Y4498246D01*
G01X3435790Y4498246D02*
G01X3413946Y4464210D01*
G01X3377624Y4529234D02*
G01X3343588Y4529234D01*
G01X3362130Y4504596D01*
G01X3352986Y4504596D01*
G01X3346636Y4501548D01*
G01X3343588Y4498246D01*
G01X3340540Y4489102D01*
G01X3340540Y4482752D01*
G01X3343588Y4473608D01*
G01X3349684Y4467258D01*
G01X3359082Y4464210D01*
G01X3368480Y4464210D01*
G01X3377624Y4467258D01*
G01X3380672Y4470560D01*
G01X3383720Y4476656D01*
G01X3273230Y4520090D02*
G01X3276278Y4526186D01*
G01X3285676Y4529234D01*
G01X3291772Y4529234D01*
G01X3301170Y4526186D01*
G01X3307266Y4516788D01*
G01X3310314Y4501548D01*
G01X3310314Y4486054D01*
G01X3307266Y4473608D01*
G01X3301170Y4467258D01*
G01X3291772Y4464210D01*
G01X3288724Y4464210D01*
G01X3279580Y4467258D01*
G01X3273230Y4473608D01*
G01X3270182Y4482752D01*
G01X3270182Y4486054D01*
G01X3273230Y4495198D01*
G01X3279580Y4501548D01*
G01X3288724Y4504596D01*
G01X3291772Y4504596D01*
G01X3301170Y4501548D01*
G01X3307266Y4495198D01*
G01X3310314Y4486054D01*
G04 Text End*

G04 PolygonModel Start*
G54D11*
G01X4501981Y5093457D02*
G01X4391100Y5093919D01*
G01X4558026Y5093503D02*
G01X4668879Y5093500D01*
G01X4501981Y4951489D02*
G01X4391100Y4951489D01*
G01X4558026Y4951537D02*
G01X4668879Y4951537D01*
G01X4391100Y5093500D02*
G01X4391100Y4951489D01*
G01X4668879Y4951537D02*
G01X4668879Y5093500D01*
G54D12*
G01X3355794Y4416468D02*
G01X3451682Y4416468D01*
G01X3451682Y4416468D02*
G01X3451682Y4284348D01*
G01X3451682Y4284348D02*
G01X3355794Y4284348D01*
G01X3270552Y4416468D02*
G01X3174664Y4416468D01*
G01X3174664Y4416468D02*
G01X3174664Y4284348D01*
G01X3174664Y4284348D02*
G01X3270552Y4284348D01*

G04 Rect Start*
G54D10*
G01X0Y8137222D02*
G01X0Y8363371D01*
G01X15000000Y8363371D01*
G01X15000000Y8137222D01*
G01X0Y8137222D01*
G04 Rect End*

M02*

