G04 Layer: TopPasteMaskLayer*
G04 EasyEDA Pro v3.2.148, 2026-08-04 10:02:05*
G04 Gerber Generator version 0.3*
G04 Scale: 100 percent, Rotated: No, Reflected: No*
G04 Dimensions in millimeters*
G04 Leading zeros omitted, absolute positions, 4 integers and 5 decimals*
G04 Generated by one-click*
G04 Object Configs: Pad,Via,Track,Text,Image,Dimension,BoardOutline,BoardCutout,CopperFilled,SolidRegion,FPCStiffener,Line,PlaneZone,ComponentProperty,ComponentSilkscreen,TearDrop*
G04 Layer Configs: 1,15,16,2,3,4,5,6,7,8,9,10,11,13,14,56*
G04 Copper Areas: 0*
%FSLAX45Y45*%
%MOMM*%
%ADD10R,0.9X0.8*%
%ADD11R,1.52999X1.29601*%
%ADD12R,0.8X0.9*%
%ADD13R,1.29601X1.52999*%
%ADD14R,1.6X0.7*%
%ADD15R,1.5X1.2*%
%ADD16R,2.2X1.2*%
%ADD17R,1.5X1.6*%
%ADD18R,1.53901X2.06251*%
%ADD19R,2.0043X2.0*%
%ADD20R,2.0X2.0*%
%ADD21R,0.532X1.03749*%
%ADD22R,3.99999X3.49999*%
%ADD23R,1.6X1.0*%
%ADD24R,1.0X1.39954*%
%ADD25R,1.39954X1.0*%
%ADD26R,1.23X1.85999*%
%ADD27R,1.3X0.6*%
%ADD28R,2.49999X3.49999*%
%ADD29R,2.49999X1.1*%
%ADD30R,2.34X3.59999*%
%ADD31R,0.21999X0.665*%
%ADD32R,0.665X0.21999*%
%ADD33R,3.39999X3.39999*%
%ADD34O,1.5X0.27*%
%ADD35O,0.27X1.5*%
%ADD36O,0.63X2.25001*%
%ADD37O,2.03799X0.57399*%
%ADD38O,0.6X2.0*%
%ADD39O,0.5684X1.95021*%
%ADD40R,1.4X1.2*%
%ADD41R,1.2X1.4*%
%ADD42R,0.65001X1.0*%
%ADD43O,1.95021X0.5684*%
G75*


G04 PolygonModel Start*
G36*
G01X13761735Y6809996D02*
G01X13724709Y6809996D01*
G01X13714709Y6819996D01*
G01X13714709Y6850486D01*
G01X13704709Y6860486D01*
G01X13665959Y6860486D01*
G01X13655959Y6850486D01*
G01X13655959Y6819996D01*
G01X13645959Y6809996D01*
G01X13608934Y6809996D01*
G01X13598934Y6819996D01*
G01X13598934Y6948494D01*
G01X13608934Y6958494D01*
G01X13761735Y6958494D01*
G01X13771735Y6948494D01*
G01X13771735Y6819996D01*
G01X13761735Y6809996D01*
G37*
G36*
G01X13761735Y6639993D02*
G01X13771735Y6629993D01*
G01X13771735Y6501495D01*
G01X13761735Y6491495D01*
G01X13608934Y6491495D01*
G01X13598934Y6501495D01*
G01X13598934Y6629993D01*
G01X13608934Y6639993D01*
G01X13645959Y6639993D01*
G01X13655959Y6629993D01*
G01X13655959Y6599503D01*
G01X13665959Y6589503D01*
G01X13704709Y6589503D01*
G01X13714709Y6599503D01*
G01X13714709Y6629993D01*
G01X13724709Y6639993D01*
G01X13761735Y6639993D01*
G37*
G36*
G01X13997095Y6809996D02*
G01X13960069Y6809996D01*
G01X13950069Y6819996D01*
G01X13950069Y6850486D01*
G01X13940069Y6860486D01*
G01X13901319Y6860486D01*
G01X13891319Y6850486D01*
G01X13891319Y6819996D01*
G01X13881319Y6809996D01*
G01X13844294Y6809996D01*
G01X13834294Y6819996D01*
G01X13834294Y6948494D01*
G01X13844294Y6958494D01*
G01X13997095Y6958494D01*
G01X14007095Y6948494D01*
G01X14007095Y6819996D01*
G01X13997095Y6809996D01*
G37*
G36*
G01X13997095Y6639993D02*
G01X14007095Y6629993D01*
G01X14007095Y6501495D01*
G01X13997095Y6491495D01*
G01X13844294Y6491495D01*
G01X13834294Y6501495D01*
G01X13834294Y6629993D01*
G01X13844294Y6639993D01*
G01X13881319Y6639993D01*
G01X13891319Y6629993D01*
G01X13891319Y6599503D01*
G01X13901319Y6589503D01*
G01X13940069Y6589503D01*
G01X13950069Y6599503D01*
G01X13950069Y6629993D01*
G01X13960069Y6639993D01*
G01X13997095Y6639993D01*
G37*
G36*
G01X13184940Y5969549D02*
G01X13184940Y5841550D01*
G01X13179939Y5836549D01*
G01X13064938Y5836549D01*
G01X13059939Y5841550D01*
G01X13059436Y5882554D01*
G01X13104438Y5882554D01*
G01X13104438Y5927552D01*
G01X13060437Y5927552D01*
G01X13059939Y5969549D01*
G01X13064938Y5974550D01*
G01X13179939Y5974550D01*
G01X13184940Y5969549D01*
G37*
G36*
G01X12843945Y5841548D02*
G01X12843945Y5969546D01*
G01X12848947Y5974547D01*
G01X12963948Y5974547D01*
G01X12968946Y5969546D01*
G01X12969449Y5928543D01*
G01X12924448Y5928543D01*
G01X12924448Y5883544D01*
G01X12968449Y5883544D01*
G01X12968946Y5841548D01*
G01X12963948Y5836547D01*
G01X12848947Y5836547D01*
G01X12843945Y5841548D01*
G37*
G36*
G01X13184940Y5788436D02*
G01X13184940Y5660438D01*
G01X13179939Y5655437D01*
G01X13064938Y5655437D01*
G01X13059939Y5660438D01*
G01X13059436Y5701441D01*
G01X13104438Y5701441D01*
G01X13104438Y5746440D01*
G01X13060437Y5746440D01*
G01X13059939Y5788436D01*
G01X13064938Y5793437D01*
G01X13179939Y5793437D01*
G01X13184940Y5788436D01*
G37*
G36*
G01X12843945Y5660435D02*
G01X12843945Y5788434D01*
G01X12848947Y5793435D01*
G01X12963948Y5793435D01*
G01X12968946Y5788434D01*
G01X12969449Y5747430D01*
G01X12924448Y5747430D01*
G01X12924448Y5702432D01*
G01X12968449Y5702432D01*
G01X12968946Y5660435D01*
G01X12963948Y5655434D01*
G01X12848947Y5655434D01*
G01X12843945Y5660435D01*
G37*
G36*
G01X12844502Y5478501D02*
G01X12844502Y5606499D01*
G01X12849504Y5611500D01*
G01X12964505Y5611500D01*
G01X12969503Y5606499D01*
G01X12970006Y5565496D01*
G01X12925005Y5565496D01*
G01X12925005Y5520497D01*
G01X12969006Y5520497D01*
G01X12969503Y5478501D01*
G01X12964505Y5473499D01*
G01X12849504Y5473499D01*
G01X12844502Y5478501D01*
G37*
G36*
G01X13185497Y5606501D02*
G01X13185497Y5478503D01*
G01X13180496Y5473502D01*
G01X13065495Y5473502D01*
G01X13060496Y5478503D01*
G01X13059993Y5519506D01*
G01X13104995Y5519506D01*
G01X13104995Y5564505D01*
G01X13060994Y5564505D01*
G01X13060496Y5606501D01*
G01X13065495Y5611503D01*
G01X13180496Y5611503D01*
G01X13185497Y5606501D01*
G37*
G36*
G01X13187997Y5171489D02*
G01X13187997Y5043490D01*
G01X13182996Y5038489D01*
G01X13067995Y5038489D01*
G01X13062996Y5043490D01*
G01X13062493Y5084494D01*
G01X13107494Y5084494D01*
G01X13107494Y5129492D01*
G01X13063494Y5129492D01*
G01X13062996Y5171489D01*
G01X13067995Y5176490D01*
G01X13182996Y5176490D01*
G01X13187997Y5171489D01*
G37*
G36*
G01X12847002Y5043488D02*
G01X12847002Y5171486D01*
G01X12852003Y5176487D01*
G01X12967004Y5176487D01*
G01X12972003Y5171486D01*
G01X12972506Y5130483D01*
G01X12927505Y5130483D01*
G01X12927505Y5085484D01*
G01X12971505Y5085484D01*
G01X12972003Y5043488D01*
G01X12967004Y5038486D01*
G01X12852003Y5038486D01*
G01X12847002Y5043488D01*
G37*
G36*
G01X12848329Y4862509D02*
G01X12848329Y4990507D01*
G01X12853331Y4995508D01*
G01X12968332Y4995508D01*
G01X12973330Y4990507D01*
G01X12973833Y4949504D01*
G01X12928832Y4949504D01*
G01X12928832Y4904505D01*
G01X12972833Y4904505D01*
G01X12973330Y4862509D01*
G01X12968332Y4857508D01*
G01X12853331Y4857508D01*
G01X12848329Y4862509D01*
G37*
G36*
G01X13189324Y4990510D02*
G01X13189324Y4862511D01*
G01X13184323Y4857510D01*
G01X13069322Y4857510D01*
G01X13064323Y4862511D01*
G01X13063820Y4903515D01*
G01X13108822Y4903515D01*
G01X13108822Y4948513D01*
G01X13064821Y4948513D01*
G01X13064323Y4990510D01*
G01X13069322Y4995511D01*
G01X13184323Y4995511D01*
G01X13189324Y4990510D01*
G37*
G36*
G01X11645499Y4836479D02*
G01X11645499Y4708480D01*
G01X11640498Y4703479D01*
G01X11525497Y4703479D01*
G01X11520498Y4708480D01*
G01X11519995Y4749484D01*
G01X11564996Y4749484D01*
G01X11564996Y4794482D01*
G01X11520996Y4794482D01*
G01X11520498Y4836479D01*
G01X11525497Y4841480D01*
G01X11640498Y4841480D01*
G01X11645499Y4836479D01*
G37*
G36*
G01X11304504Y4708478D02*
G01X11304504Y4836476D01*
G01X11309505Y4841477D01*
G01X11424506Y4841477D01*
G01X11429505Y4836476D01*
G01X11430008Y4795473D01*
G01X11385007Y4795473D01*
G01X11385007Y4750474D01*
G01X11429007Y4750474D01*
G01X11429505Y4708478D01*
G01X11424506Y4703476D01*
G01X11309505Y4703476D01*
G01X11304504Y4708478D01*
G37*
G36*
G01X14191000Y7965494D02*
G01X14318998Y7965494D01*
G01X14323999Y7960492D01*
G01X14323999Y7845491D01*
G01X14318998Y7840493D01*
G01X14277995Y7839990D01*
G01X14277995Y7884991D01*
G01X14232996Y7884991D01*
G01X14232996Y7840990D01*
G01X14191000Y7840493D01*
G01X14185998Y7845491D01*
G01X14185998Y7960492D01*
G01X14191000Y7965494D01*
G37*
G36*
G01X14319000Y7624499D02*
G01X14191002Y7624499D01*
G01X14186001Y7629500D01*
G01X14186001Y7744501D01*
G01X14191002Y7749500D01*
G01X14232005Y7750003D01*
G01X14232005Y7705001D01*
G01X14277004Y7705001D01*
G01X14277004Y7749002D01*
G01X14319000Y7749500D01*
G01X14324002Y7744501D01*
G01X14324002Y7629500D01*
G01X14319000Y7624499D01*
G37*
G36*
G01X14116500Y7624499D02*
G01X13988502Y7624499D01*
G01X13983501Y7629500D01*
G01X13983501Y7744501D01*
G01X13988502Y7749500D01*
G01X14029505Y7750003D01*
G01X14029505Y7705001D01*
G01X14074504Y7705001D01*
G01X14074504Y7749002D01*
G01X14116500Y7749500D01*
G01X14121502Y7744501D01*
G01X14121502Y7629500D01*
G01X14116500Y7624499D01*
G37*
G36*
G01X13988500Y7965494D02*
G01X14116498Y7965494D01*
G01X14121499Y7960492D01*
G01X14121499Y7845491D01*
G01X14116498Y7840493D01*
G01X14075495Y7839990D01*
G01X14075495Y7884991D01*
G01X14030496Y7884991D01*
G01X14030496Y7840990D01*
G01X13988500Y7840493D01*
G01X13983498Y7845491D01*
G01X13983498Y7960492D01*
G01X13988500Y7965494D01*
G37*
G36*
G01X13254503Y9551051D02*
G01X13254503Y9679049D01*
G01X13259504Y9684050D01*
G01X13374505Y9684050D01*
G01X13379504Y9679049D01*
G01X13380007Y9638046D01*
G01X13335005Y9638046D01*
G01X13335005Y9593047D01*
G01X13379006Y9593047D01*
G01X13379504Y9551051D01*
G01X13374505Y9546049D01*
G01X13259504Y9546049D01*
G01X13254503Y9551051D01*
G37*
G36*
G01X13595498Y9679052D02*
G01X13595498Y9551053D01*
G01X13590496Y9546052D01*
G01X13475495Y9546052D01*
G01X13470497Y9551053D01*
G01X13469994Y9592057D01*
G01X13514995Y9592057D01*
G01X13514995Y9637055D01*
G01X13470994Y9637055D01*
G01X13470497Y9679052D01*
G01X13475495Y9684053D01*
G01X13590496Y9684053D01*
G01X13595498Y9679052D01*
G37*
G36*
G01X13594321Y9860000D02*
G01X13594321Y9732002D01*
G01X13589320Y9727001D01*
G01X13474319Y9727001D01*
G01X13469320Y9732002D01*
G01X13468817Y9773005D01*
G01X13513818Y9773005D01*
G01X13513818Y9818004D01*
G01X13469818Y9818004D01*
G01X13469320Y9860000D01*
G01X13474319Y9865002D01*
G01X13589320Y9865002D01*
G01X13594321Y9860000D01*
G37*
G36*
G01X13253326Y9732000D02*
G01X13253326Y9859998D01*
G01X13258327Y9864999D01*
G01X13373328Y9864999D01*
G01X13378327Y9859998D01*
G01X13378830Y9818995D01*
G01X13333829Y9818995D01*
G01X13333829Y9773996D01*
G01X13377829Y9773996D01*
G01X13378327Y9732000D01*
G01X13373328Y9726998D01*
G01X13258327Y9726998D01*
G01X13253326Y9732000D01*
G37*
G36*
G01X4450161Y3708204D02*
G01X4450161Y3735854D01*
G01X4477580Y3765229D01*
G01X4527908Y3765229D01*
G01X4534309Y3758828D01*
G01X4534309Y3685229D01*
G01X4527908Y3678829D01*
G01X4477580Y3678829D01*
G01X4450161Y3708204D01*
G37*
G36*
G01X4398596Y3707078D02*
G01X4371177Y3677703D01*
G01X4320850Y3677703D01*
G01X4314449Y3684104D01*
G01X4314449Y3757703D01*
G01X4320850Y3764104D01*
G01X4371177Y3764104D01*
G01X4398596Y3734729D01*
G01X4398596Y3707078D01*
G37*
G36*
G01X947998Y5335001D02*
G01X942999Y5340003D01*
G01X942999Y5420002D01*
G01X947998Y5425001D01*
G01X1027998Y5425001D01*
G01X1032999Y5420002D01*
G01X1032999Y5395799D01*
G01X995999Y5395799D01*
G01X995999Y5362799D01*
G01X1032999Y5362799D01*
G01X1032999Y5340003D01*
G01X1027998Y5335001D01*
G01X947998Y5335001D01*
G37*
G36*
G01X1187002Y5424999D02*
G01X1192000Y5419997D01*
G01X1192000Y5339997D01*
G01X1187002Y5334999D01*
G01X1107002Y5334999D01*
G01X1102001Y5339997D01*
G01X1102001Y5364201D01*
G01X1139001Y5364201D01*
G01X1139001Y5397201D01*
G01X1102001Y5397201D01*
G01X1102001Y5419997D01*
G01X1107002Y5424999D01*
G01X1187002Y5424999D01*
G37*
G36*
G01X12786263Y6335689D02*
G01X12781262Y6330690D01*
G01X12701262Y6330690D01*
G01X12696263Y6335689D01*
G01X12696263Y6415688D01*
G01X12701262Y6420690D01*
G01X12725466Y6420690D01*
G01X12725466Y6383690D01*
G01X12758465Y6383690D01*
G01X12758465Y6420690D01*
G01X12781262Y6420690D01*
G01X12786263Y6415688D01*
G01X12786263Y6335689D01*
G37*
G36*
G01X12696266Y6574692D02*
G01X12701267Y6579691D01*
G01X12781267Y6579691D01*
G01X12786266Y6574692D01*
G01X12786266Y6494693D01*
G01X12781267Y6489691D01*
G01X12757063Y6489691D01*
G01X12757063Y6526692D01*
G01X12724063Y6526692D01*
G01X12724063Y6489691D01*
G01X12701267Y6489691D01*
G01X12696266Y6494693D01*
G01X12696266Y6574692D01*
G37*
G36*
G01X12695002Y6277002D02*
G01X12700003Y6282000D01*
G01X12780003Y6282000D01*
G01X12785002Y6277002D01*
G01X12785002Y6197002D01*
G01X12780003Y6192001D01*
G01X12755799Y6192001D01*
G01X12755799Y6229001D01*
G01X12722800Y6229001D01*
G01X12722800Y6192001D01*
G01X12700003Y6192001D01*
G01X12695002Y6197002D01*
G01X12695002Y6277002D01*
G37*
G36*
G01X12784999Y6037998D02*
G01X12779998Y6032999D01*
G01X12699998Y6032999D01*
G01X12695000Y6037998D01*
G01X12695000Y6117998D01*
G01X12699998Y6122999D01*
G01X12724202Y6122999D01*
G01X12724202Y6085999D01*
G01X12757202Y6085999D01*
G01X12757202Y6122999D01*
G01X12779998Y6122999D01*
G01X12784999Y6117998D01*
G01X12784999Y6037998D01*
G37*
G36*
G01X947998Y5022501D02*
G01X942999Y5027503D01*
G01X942999Y5107502D01*
G01X947998Y5112501D01*
G01X1027998Y5112501D01*
G01X1032999Y5107502D01*
G01X1032999Y5083299D01*
G01X995999Y5083299D01*
G01X995999Y5050299D01*
G01X1032999Y5050299D01*
G01X1032999Y5027503D01*
G01X1027998Y5022501D01*
G01X947998Y5022501D01*
G37*
G36*
G01X1187002Y5112499D02*
G01X1192001Y5107497D01*
G01X1192001Y5027497D01*
G01X1187002Y5022499D01*
G01X1107002Y5022499D01*
G01X1102001Y5027497D01*
G01X1102001Y5051701D01*
G01X1139001Y5051701D01*
G01X1139001Y5084701D01*
G01X1102001Y5084701D01*
G01X1102001Y5107497D01*
G01X1107002Y5112499D01*
G01X1187002Y5112499D01*
G37*
G36*
G01X947998Y5687177D02*
G01X943000Y5692178D01*
G01X943000Y5772178D01*
G01X947998Y5777177D01*
G01X1027998Y5777177D01*
G01X1032999Y5772178D01*
G01X1032999Y5747975D01*
G01X995999Y5747975D01*
G01X995999Y5714975D01*
G01X1032999Y5714975D01*
G01X1032999Y5692178D01*
G01X1027998Y5687177D01*
G01X947998Y5687177D01*
G37*
G36*
G01X1187002Y5777174D02*
G01X1192001Y5772173D01*
G01X1192001Y5692173D01*
G01X1187002Y5687175D01*
G01X1107002Y5687175D01*
G01X1102001Y5692173D01*
G01X1102001Y5716377D01*
G01X1139001Y5716377D01*
G01X1139001Y5749377D01*
G01X1102001Y5749377D01*
G01X1102001Y5772173D01*
G01X1107002Y5777174D01*
G01X1187002Y5777174D01*
G37*
G36*
G01X12887151Y6333148D02*
G01X12882152Y6338149D01*
G01X12882152Y6418149D01*
G01X12887151Y6423148D01*
G01X12967150Y6423148D01*
G01X12972152Y6418149D01*
G01X12972152Y6393945D01*
G01X12935151Y6393945D01*
G01X12935151Y6360946D01*
G01X12972152Y6360946D01*
G01X12972152Y6338149D01*
G01X12967150Y6333148D01*
G01X12887151Y6333148D01*
G37*
G36*
G01X13126154Y6423145D02*
G01X13131153Y6418144D01*
G01X13131153Y6338144D01*
G01X13126154Y6333145D01*
G01X13046155Y6333145D01*
G01X13041153Y6338144D01*
G01X13041153Y6362348D01*
G01X13078153Y6362348D01*
G01X13078153Y6395347D01*
G01X13041153Y6395347D01*
G01X13041153Y6418144D01*
G01X13046155Y6423145D01*
G01X13126154Y6423145D01*
G37*
G36*
G01X1186666Y5627511D02*
G01X1191664Y5622509D01*
G01X1191664Y5542510D01*
G01X1186666Y5537511D01*
G01X1106666Y5537511D01*
G01X1101665Y5542510D01*
G01X1101665Y5566713D01*
G01X1138665Y5566713D01*
G01X1138665Y5599713D01*
G01X1101665Y5599713D01*
G01X1101665Y5622509D01*
G01X1106666Y5627511D01*
G01X1186666Y5627511D01*
G37*
G36*
G01X947662Y5537513D02*
G01X942663Y5542515D01*
G01X942663Y5622515D01*
G01X947662Y5627513D01*
G01X1027662Y5627513D01*
G01X1032663Y5622515D01*
G01X1032663Y5598311D01*
G01X995663Y5598311D01*
G01X995663Y5565311D01*
G01X1032663Y5565311D01*
G01X1032663Y5542515D01*
G01X1027662Y5537513D01*
G01X947662Y5537513D01*
G37*
G36*
G01X14504476Y7649598D02*
G01X14499477Y7654599D01*
G01X14499477Y7734599D01*
G01X14504476Y7739598D01*
G01X14584476Y7739598D01*
G01X14589477Y7734599D01*
G01X14589477Y7710395D01*
G01X14552477Y7710395D01*
G01X14552477Y7677396D01*
G01X14589477Y7677396D01*
G01X14589477Y7654599D01*
G01X14584476Y7649598D01*
G01X14504476Y7649598D01*
G37*
G36*
G01X14743480Y7739595D02*
G01X14748479Y7734594D01*
G01X14748479Y7654594D01*
G01X14743480Y7649595D01*
G01X14663480Y7649595D01*
G01X14658479Y7654594D01*
G01X14658479Y7678798D01*
G01X14695479Y7678798D01*
G01X14695479Y7711797D01*
G01X14658479Y7711797D01*
G01X14658479Y7734594D01*
G01X14663480Y7739595D01*
G01X14743480Y7739595D01*
G37*
G36*
G01X13515498Y5782501D02*
G01X13510499Y5787503D01*
G01X13510499Y5867502D01*
G01X13515498Y5872501D01*
G01X13595498Y5872501D01*
G01X13600499Y5867502D01*
G01X13600499Y5843299D01*
G01X13563499Y5843299D01*
G01X13563499Y5810299D01*
G01X13600499Y5810299D01*
G01X13600499Y5787503D01*
G01X13595498Y5782501D01*
G01X13515498Y5782501D01*
G37*
G36*
G01X13754502Y5872499D02*
G01X13759501Y5867497D01*
G01X13759501Y5787497D01*
G01X13754502Y5782499D01*
G01X13674502Y5782499D01*
G01X13669501Y5787497D01*
G01X13669501Y5811701D01*
G01X13706501Y5811701D01*
G01X13706501Y5844701D01*
G01X13669501Y5844701D01*
G01X13669501Y5867497D01*
G01X13674502Y5872499D01*
G01X13754502Y5872499D01*
G37*
G36*
G01X11549998Y5192998D02*
G01X11544997Y5187999D01*
G01X11464997Y5187999D01*
G01X11459998Y5192998D01*
G01X11459998Y5272998D01*
G01X11464997Y5277999D01*
G01X11489201Y5277999D01*
G01X11489201Y5240999D01*
G01X11522200Y5240999D01*
G01X11522200Y5277999D01*
G01X11544997Y5277999D01*
G01X11549998Y5272998D01*
G01X11549998Y5192998D01*
G37*
G36*
G01X11460001Y5432002D02*
G01X11465002Y5437000D01*
G01X11545002Y5437000D01*
G01X11550001Y5432002D01*
G01X11550001Y5352002D01*
G01X11545002Y5347000D01*
G01X11520798Y5347000D01*
G01X11520798Y5384001D01*
G01X11487799Y5384001D01*
G01X11487799Y5347000D01*
G01X11465002Y5347000D01*
G01X11460001Y5352002D01*
G01X11460001Y5432002D01*
G37*
G36*
G01X1417662Y5747837D02*
G01X1412663Y5752839D01*
G01X1412663Y5832838D01*
G01X1417662Y5837837D01*
G01X1497661Y5837837D01*
G01X1502663Y5832838D01*
G01X1502663Y5808635D01*
G01X1465663Y5808635D01*
G01X1465663Y5775635D01*
G01X1502663Y5775635D01*
G01X1502663Y5752839D01*
G01X1497661Y5747837D01*
G01X1417662Y5747837D01*
G37*
G36*
G01X1656665Y5837835D02*
G01X1661664Y5832833D01*
G01X1661664Y5752834D01*
G01X1656665Y5747835D01*
G01X1576666Y5747835D01*
G01X1571664Y5752834D01*
G01X1571664Y5777037D01*
G01X1608665Y5777037D01*
G01X1608665Y5810037D01*
G01X1571664Y5810037D01*
G01X1571664Y5832833D01*
G01X1576666Y5837835D01*
G01X1656665Y5837835D01*
G37*
G36*
G01X14302531Y8591851D02*
G01X14302531Y8627982D01*
G01X14312531Y8637982D01*
G01X14333588Y8637982D01*
G01X14343588Y8647982D01*
G01X14343588Y8685818D01*
G01X14333588Y8695818D01*
G01X14312531Y8695818D01*
G01X14302531Y8705818D01*
G01X14302531Y8741949D01*
G01X14312531Y8751949D01*
G01X14413283Y8751949D01*
G01X14423283Y8741949D01*
G01X14423283Y8591851D01*
G01X14413283Y8581851D01*
G01X14312531Y8581851D01*
G01X14302531Y8591851D01*
G37*
G36*
G01X14127530Y8591851D02*
G01X14117530Y8581851D01*
G01X14016779Y8581851D01*
G01X14006779Y8591851D01*
G01X14006779Y8741949D01*
G01X14016779Y8751949D01*
G01X14117530Y8751949D01*
G01X14127530Y8741949D01*
G01X14127530Y8705818D01*
G01X14117530Y8695818D01*
G01X14096474Y8695818D01*
G01X14086474Y8685818D01*
G01X14086474Y8647982D01*
G01X14096474Y8637982D01*
G01X14117530Y8637982D01*
G01X14127530Y8627982D01*
G01X14127530Y8591851D01*
G37*
G36*
G01X14302531Y8807633D02*
G01X14302531Y8843764D01*
G01X14312531Y8853764D01*
G01X14333588Y8853764D01*
G01X14343588Y8863764D01*
G01X14343588Y8901600D01*
G01X14333588Y8911600D01*
G01X14312531Y8911600D01*
G01X14302531Y8921600D01*
G01X14302531Y8957732D01*
G01X14312531Y8967732D01*
G01X14413283Y8967732D01*
G01X14423283Y8957732D01*
G01X14423283Y8807633D01*
G01X14413283Y8797633D01*
G01X14312531Y8797633D01*
G01X14302531Y8807633D01*
G37*
G36*
G01X14127530Y8807633D02*
G01X14117530Y8797633D01*
G01X14016779Y8797633D01*
G01X14006779Y8807633D01*
G01X14006779Y8957732D01*
G01X14016779Y8967732D01*
G01X14117530Y8967732D01*
G01X14127530Y8957732D01*
G01X14127530Y8921600D01*
G01X14117530Y8911600D01*
G01X14096474Y8911600D01*
G01X14086474Y8901600D01*
G01X14086474Y8863764D01*
G01X14096474Y8853764D01*
G01X14117530Y8853764D01*
G01X14127530Y8843764D01*
G01X14127530Y8807633D01*
G37*
G36*
G01X4640999Y5703498D02*
G01X4635997Y5698499D01*
G01X4555997Y5698499D01*
G01X4550999Y5703498D01*
G01X4550999Y5783498D01*
G01X4555997Y5788499D01*
G01X4580201Y5788499D01*
G01X4580201Y5751499D01*
G01X4613201Y5751499D01*
G01X4613201Y5788499D01*
G01X4635997Y5788499D01*
G01X4640999Y5783498D01*
G01X4640999Y5703498D01*
G37*
G36*
G01X4551001Y5942502D02*
G01X4556003Y5947501D01*
G01X4636002Y5947501D01*
G01X4641001Y5942502D01*
G01X4641001Y5862502D01*
G01X4636002Y5857501D01*
G01X4611799Y5857501D01*
G01X4611799Y5894501D01*
G01X4578799Y5894501D01*
G01X4578799Y5857501D01*
G01X4556003Y5857501D01*
G01X4551001Y5862502D01*
G01X4551001Y5942502D01*
G37*
G36*
G01X3058229Y3320121D02*
G01X3063228Y3315120D01*
G01X3063228Y3235120D01*
G01X3058229Y3230121D01*
G01X2978229Y3230121D01*
G01X2973228Y3235120D01*
G01X2973228Y3259323D01*
G01X3010228Y3259323D01*
G01X3010228Y3292323D01*
G01X2973228Y3292323D01*
G01X2973228Y3315120D01*
G01X2978229Y3320121D01*
G01X3058229Y3320121D01*
G37*
G36*
G01X2819225Y3230124D02*
G01X2814227Y3235125D01*
G01X2814227Y3315125D01*
G01X2819225Y3320123D01*
G01X2899225Y3320123D01*
G01X2904226Y3315125D01*
G01X2904226Y3290921D01*
G01X2867226Y3290921D01*
G01X2867226Y3257921D01*
G01X2904226Y3257921D01*
G01X2904226Y3235125D01*
G01X2899225Y3230124D01*
G01X2819225Y3230124D01*
G37*
G36*
G01X4940501Y3932864D02*
G01X4945502Y3937863D01*
G01X5025502Y3937863D01*
G01X5030501Y3932864D01*
G01X5030501Y3852864D01*
G01X5025502Y3847863D01*
G01X5001299Y3847863D01*
G01X5001299Y3884863D01*
G01X4968299Y3884863D01*
G01X4968299Y3847863D01*
G01X4945502Y3847863D01*
G01X4940501Y3852864D01*
G01X4940501Y3932864D01*
G37*
G36*
G01X5030498Y3693860D02*
G01X5025497Y3688862D01*
G01X4945497Y3688862D01*
G01X4940499Y3693860D01*
G01X4940499Y3773860D01*
G01X4945497Y3778861D01*
G01X4969701Y3778861D01*
G01X4969701Y3741861D01*
G01X5002701Y3741861D01*
G01X5002701Y3778861D01*
G01X5025497Y3778861D01*
G01X5030498Y3773860D01*
G01X5030498Y3693860D01*
G37*
G36*
G01X3580162Y3277150D02*
G01X3575163Y3282151D01*
G01X3575163Y3362151D01*
G01X3580162Y3367150D01*
G01X3660162Y3367150D01*
G01X3665163Y3362151D01*
G01X3665163Y3337947D01*
G01X3628163Y3337947D01*
G01X3628163Y3304948D01*
G01X3665163Y3304948D01*
G01X3665163Y3282151D01*
G01X3660162Y3277150D01*
G01X3580162Y3277150D01*
G37*
G36*
G01X3819166Y3367147D02*
G01X3824164Y3362146D01*
G01X3824164Y3282146D01*
G01X3819166Y3277147D01*
G01X3739166Y3277147D01*
G01X3734164Y3282146D01*
G01X3734164Y3306350D01*
G01X3771165Y3306350D01*
G01X3771165Y3339349D01*
G01X3734164Y3339349D01*
G01X3734164Y3362146D01*
G01X3739166Y3367147D01*
G01X3819166Y3367147D01*
G37*
G36*
G01X3579304Y3410757D02*
G01X3574305Y3415758D01*
G01X3574305Y3495758D01*
G01X3579304Y3500757D01*
G01X3659304Y3500757D01*
G01X3664305Y3495758D01*
G01X3664305Y3471554D01*
G01X3627305Y3471554D01*
G01X3627305Y3438554D01*
G01X3664305Y3438554D01*
G01X3664305Y3415758D01*
G01X3659304Y3410757D01*
G01X3579304Y3410757D01*
G37*
G36*
G01X3818308Y3500754D02*
G01X3823306Y3495753D01*
G01X3823306Y3415753D01*
G01X3818308Y3410754D01*
G01X3738308Y3410754D01*
G01X3733306Y3415753D01*
G01X3733306Y3439957D01*
G01X3770307Y3439957D01*
G01X3770307Y3472956D01*
G01X3733306Y3472956D01*
G01X3733306Y3495753D01*
G01X3738308Y3500754D01*
G01X3818308Y3500754D01*
G37*
G36*
G01X5237501Y3689502D02*
G01X5242503Y3694501D01*
G01X5322502Y3694501D01*
G01X5327501Y3689502D01*
G01X5327501Y3609502D01*
G01X5322502Y3604501D01*
G01X5298299Y3604501D01*
G01X5298299Y3641501D01*
G01X5265299Y3641501D01*
G01X5265299Y3604501D01*
G01X5242503Y3604501D01*
G01X5237501Y3609502D01*
G01X5237501Y3689502D01*
G37*
G36*
G01X5327499Y3450498D02*
G01X5322497Y3445499D01*
G01X5242498Y3445499D01*
G01X5237499Y3450498D01*
G01X5237499Y3530498D01*
G01X5242498Y3535499D01*
G01X5266701Y3535499D01*
G01X5266701Y3498499D01*
G01X5299701Y3498499D01*
G01X5299701Y3535499D01*
G01X5322497Y3535499D01*
G01X5327499Y3530498D01*
G01X5327499Y3450498D01*
G37*
G36*
G01X5915175Y3634310D02*
G01X5920173Y3629309D01*
G01X5920173Y3549309D01*
G01X5915175Y3544310D01*
G01X5835175Y3544310D01*
G01X5830174Y3549309D01*
G01X5830174Y3573513D01*
G01X5867174Y3573513D01*
G01X5867174Y3606512D01*
G01X5830174Y3606512D01*
G01X5830174Y3629309D01*
G01X5835175Y3634310D01*
G01X5915175Y3634310D01*
G37*
G36*
G01X5676171Y3544313D02*
G01X5671172Y3549314D01*
G01X5671172Y3629314D01*
G01X5676171Y3634313D01*
G01X5756171Y3634313D01*
G01X5761172Y3629314D01*
G01X5761172Y3605110D01*
G01X5724172Y3605110D01*
G01X5724172Y3572111D01*
G01X5761172Y3572111D01*
G01X5761172Y3549314D01*
G01X5756171Y3544313D01*
G01X5676171Y3544313D01*
G37*
G36*
G01X4095789Y3499567D02*
G01X4100788Y3494566D01*
G01X4100788Y3414566D01*
G01X4095789Y3409567D01*
G01X4015790Y3409567D01*
G01X4010788Y3414566D01*
G01X4010788Y3438769D01*
G01X4047788Y3438769D01*
G01X4047788Y3471769D01*
G01X4010788Y3471769D01*
G01X4010788Y3494566D01*
G01X4015790Y3499567D01*
G01X4095789Y3499567D01*
G37*
G36*
G01X3856786Y3409570D02*
G01X3851787Y3414571D01*
G01X3851787Y3494571D01*
G01X3856786Y3499569D01*
G01X3936785Y3499569D01*
G01X3941787Y3494571D01*
G01X3941787Y3470367D01*
G01X3904786Y3470367D01*
G01X3904786Y3437367D01*
G01X3941787Y3437367D01*
G01X3941787Y3414571D01*
G01X3936785Y3409570D01*
G01X3856786Y3409570D01*
G37*
G36*
G01X4095789Y3367207D02*
G01X4100788Y3362205D01*
G01X4100788Y3282206D01*
G01X4095789Y3277207D01*
G01X4015790Y3277207D01*
G01X4010788Y3282206D01*
G01X4010788Y3306409D01*
G01X4047788Y3306409D01*
G01X4047788Y3339409D01*
G01X4010788Y3339409D01*
G01X4010788Y3362205D01*
G01X4015790Y3367207D01*
G01X4095789Y3367207D01*
G37*
G36*
G01X3856786Y3277209D02*
G01X3851787Y3282211D01*
G01X3851787Y3362210D01*
G01X3856786Y3367209D01*
G01X3936785Y3367209D01*
G01X3941787Y3362210D01*
G01X3941787Y3338007D01*
G01X3904786Y3338007D01*
G01X3904786Y3305007D01*
G01X3941787Y3305007D01*
G01X3941787Y3282211D01*
G01X3936785Y3277209D01*
G01X3856786Y3277209D01*
G37*
G36*
G01X4095789Y3092809D02*
G01X4100788Y3087808D01*
G01X4100788Y3007808D01*
G01X4095789Y3002810D01*
G01X4015790Y3002810D01*
G01X4010788Y3007808D01*
G01X4010788Y3032012D01*
G01X4047788Y3032012D01*
G01X4047788Y3065012D01*
G01X4010788Y3065012D01*
G01X4010788Y3087808D01*
G01X4015790Y3092809D01*
G01X4095789Y3092809D01*
G37*
G36*
G01X3856786Y3002812D02*
G01X3851787Y3007813D01*
G01X3851787Y3087813D01*
G01X3856786Y3092812D01*
G01X3936785Y3092812D01*
G01X3941787Y3087813D01*
G01X3941787Y3063610D01*
G01X3904786Y3063610D01*
G01X3904786Y3030610D01*
G01X3941787Y3030610D01*
G01X3941787Y3007813D01*
G01X3936785Y3002812D01*
G01X3856786Y3002812D01*
G37*
G36*
G01X4095789Y2960477D02*
G01X4100788Y2955476D01*
G01X4100788Y2875476D01*
G01X4095789Y2870477D01*
G01X4015790Y2870477D01*
G01X4010788Y2875476D01*
G01X4010788Y2899679D01*
G01X4047788Y2899679D01*
G01X4047788Y2932679D01*
G01X4010788Y2932679D01*
G01X4010788Y2955476D01*
G01X4015790Y2960477D01*
G01X4095789Y2960477D01*
G37*
G36*
G01X3856786Y2870480D02*
G01X3851787Y2875481D01*
G01X3851787Y2955481D01*
G01X3856786Y2960479D01*
G01X3936785Y2960479D01*
G01X3941787Y2955481D01*
G01X3941787Y2931277D01*
G01X3904786Y2931277D01*
G01X3904786Y2898277D01*
G01X3941787Y2898277D01*
G01X3941787Y2875481D01*
G01X3936785Y2870480D01*
G01X3856786Y2870480D01*
G37*
G36*
G01X3593040Y3043578D02*
G01X3598041Y3048577D01*
G01X3678041Y3048577D01*
G01X3683040Y3043578D01*
G01X3683040Y2963579D01*
G01X3678041Y2958577D01*
G01X3653837Y2958577D01*
G01X3653837Y2995577D01*
G01X3620838Y2995577D01*
G01X3620838Y2958577D01*
G01X3598041Y2958577D01*
G01X3593040Y2963579D01*
G01X3593040Y3043578D01*
G37*
G36*
G01X3683037Y2804575D02*
G01X3678036Y2799576D01*
G01X3598036Y2799576D01*
G01X3593037Y2804575D01*
G01X3593037Y2884574D01*
G01X3598036Y2889576D01*
G01X3622240Y2889576D01*
G01X3622240Y2852575D01*
G01X3655239Y2852575D01*
G01X3655239Y2889576D01*
G01X3678036Y2889576D01*
G01X3683037Y2884574D01*
G01X3683037Y2804575D01*
G37*
G36*
G01X3725336Y2964151D02*
G01X3730338Y2969150D01*
G01X3810338Y2969150D01*
G01X3815336Y2964151D01*
G01X3815336Y2884151D01*
G01X3810338Y2879150D01*
G01X3786134Y2879150D01*
G01X3786134Y2916150D01*
G01X3753134Y2916150D01*
G01X3753134Y2879150D01*
G01X3730338Y2879150D01*
G01X3725336Y2884151D01*
G01X3725336Y2964151D01*
G37*
G36*
G01X3815334Y2725147D02*
G01X3810332Y2720149D01*
G01X3730333Y2720149D01*
G01X3725334Y2725147D01*
G01X3725334Y2805147D01*
G01X3730333Y2810149D01*
G01X3754536Y2810149D01*
G01X3754536Y2773148D01*
G01X3787536Y2773148D01*
G01X3787536Y2810149D01*
G01X3810332Y2810149D01*
G01X3815334Y2805147D01*
G01X3815334Y2725147D01*
G37*
G36*
G01X5500001Y3189486D02*
G01X5505003Y3194485D01*
G01X5585003Y3194485D01*
G01X5590001Y3189486D01*
G01X5590001Y3109486D01*
G01X5585003Y3104485D01*
G01X5560799Y3104485D01*
G01X5560799Y3141485D01*
G01X5527799Y3141485D01*
G01X5527799Y3104485D01*
G01X5505003Y3104485D01*
G01X5500001Y3109486D01*
G01X5500001Y3189486D01*
G37*
G36*
G01X5589999Y2950482D02*
G01X5584997Y2945484D01*
G01X5504998Y2945484D01*
G01X5499999Y2950482D01*
G01X5499999Y3030482D01*
G01X5504998Y3035483D01*
G01X5529201Y3035483D01*
G01X5529201Y2998483D01*
G01X5562201Y2998483D01*
G01X5562201Y3035483D01*
G01X5584997Y3035483D01*
G01X5589999Y3030482D01*
G01X5589999Y2950482D01*
G37*
G36*
G01X5674830Y3342485D02*
G01X5669831Y3347487D01*
G01X5669831Y3427486D01*
G01X5674830Y3432485D01*
G01X5754830Y3432485D01*
G01X5759831Y3427486D01*
G01X5759831Y3403283D01*
G01X5722831Y3403283D01*
G01X5722831Y3370283D01*
G01X5759831Y3370283D01*
G01X5759831Y3347487D01*
G01X5754830Y3342485D01*
G01X5674830Y3342485D01*
G37*
G36*
G01X5913834Y3432483D02*
G01X5918833Y3427481D01*
G01X5918833Y3347481D01*
G01X5913834Y3342483D01*
G01X5833834Y3342483D01*
G01X5828833Y3347481D01*
G01X5828833Y3371685D01*
G01X5865833Y3371685D01*
G01X5865833Y3404685D01*
G01X5828833Y3404685D01*
G01X5828833Y3427481D01*
G01X5833834Y3432483D01*
G01X5913834Y3432483D01*
G37*
G36*
G01X4278452Y2686684D02*
G01X4283454Y2691682D01*
G01X4363454Y2691682D01*
G01X4368452Y2686684D01*
G01X4368452Y2606684D01*
G01X4363454Y2601683D01*
G01X4339250Y2601683D01*
G01X4339250Y2638683D01*
G01X4306250Y2638683D01*
G01X4306250Y2601683D01*
G01X4283454Y2601683D01*
G01X4278452Y2606684D01*
G01X4278452Y2686684D01*
G37*
G36*
G01X4368450Y2447680D02*
G01X4363448Y2442681D01*
G01X4283449Y2442681D01*
G01X4278450Y2447680D01*
G01X4278450Y2527680D01*
G01X4283449Y2532681D01*
G01X4307652Y2532681D01*
G01X4307652Y2495681D01*
G01X4340652Y2495681D01*
G01X4340652Y2532681D01*
G01X4363448Y2532681D01*
G01X4368450Y2527680D01*
G01X4368450Y2447680D01*
G37*
G36*
G01X7420334Y5897165D02*
G01X7415335Y5902166D01*
G01X7415335Y5982166D01*
G01X7420334Y5987165D01*
G01X7500334Y5987165D01*
G01X7505335Y5982166D01*
G01X7505335Y5957962D01*
G01X7468335Y5957962D01*
G01X7468335Y5924963D01*
G01X7505335Y5924963D01*
G01X7505335Y5902166D01*
G01X7500334Y5897165D01*
G01X7420334Y5897165D01*
G37*
G36*
G01X7659338Y5987162D02*
G01X7664337Y5982161D01*
G01X7664337Y5902161D01*
G01X7659338Y5897162D01*
G01X7579338Y5897162D01*
G01X7574337Y5902161D01*
G01X7574337Y5926365D01*
G01X7611337Y5926365D01*
G01X7611337Y5959365D01*
G01X7574337Y5959365D01*
G01X7574337Y5982161D01*
G01X7579338Y5987162D01*
G01X7659338Y5987162D01*
G37*
G36*
G01X1969502Y4138167D02*
G01X1974501Y4133165D01*
G01X1974501Y4053166D01*
G01X1969502Y4048167D01*
G01X1889502Y4048167D01*
G01X1884501Y4053166D01*
G01X1884501Y4077369D01*
G01X1921501Y4077369D01*
G01X1921501Y4110369D01*
G01X1884501Y4110369D01*
G01X1884501Y4133165D01*
G01X1889502Y4138167D01*
G01X1969502Y4138167D01*
G37*
G36*
G01X1730498Y4048169D02*
G01X1725499Y4053171D01*
G01X1725499Y4133171D01*
G01X1730498Y4138169D01*
G01X1810498Y4138169D01*
G01X1815499Y4133171D01*
G01X1815499Y4108967D01*
G01X1778499Y4108967D01*
G01X1778499Y4075967D01*
G01X1815499Y4075967D01*
G01X1815499Y4053171D01*
G01X1810498Y4048169D01*
G01X1730498Y4048169D01*
G37*
G36*
G01X943553Y4326449D02*
G01X943553Y4362580D01*
G01X953553Y4372580D01*
G01X974609Y4372580D01*
G01X984609Y4382580D01*
G01X984609Y4420416D01*
G01X974609Y4430416D01*
G01X953553Y4430416D01*
G01X943553Y4440416D01*
G01X943553Y4476547D01*
G01X953553Y4486547D01*
G01X1054304Y4486547D01*
G01X1064304Y4476547D01*
G01X1064304Y4326449D01*
G01X1054304Y4316449D01*
G01X953553Y4316449D01*
G01X943553Y4326449D01*
G37*
G36*
G01X768552Y4326449D02*
G01X758552Y4316449D01*
G01X657800Y4316449D01*
G01X647800Y4326449D01*
G01X647800Y4476547D01*
G01X657800Y4486547D01*
G01X758552Y4486547D01*
G01X768552Y4476547D01*
G01X768552Y4440416D01*
G01X758552Y4430416D01*
G01X737495Y4430416D01*
G01X727495Y4420416D01*
G01X727495Y4382580D01*
G01X737495Y4372580D01*
G01X758552Y4372580D01*
G01X768552Y4362580D01*
G01X768552Y4326449D01*
G37*
G36*
G01X3436028Y4528359D02*
G01X3441027Y4523357D01*
G01X3441027Y4443358D01*
G01X3436028Y4438359D01*
G01X3356028Y4438359D01*
G01X3351027Y4443358D01*
G01X3351027Y4467561D01*
G01X3388027Y4467561D01*
G01X3388027Y4500561D01*
G01X3351027Y4500561D01*
G01X3351027Y4523357D01*
G01X3356028Y4528359D01*
G01X3436028Y4528359D01*
G37*
G36*
G01X3197024Y4438361D02*
G01X3192026Y4443363D01*
G01X3192026Y4523363D01*
G01X3197024Y4528361D01*
G01X3277024Y4528361D01*
G01X3282025Y4523363D01*
G01X3282025Y4499159D01*
G01X3245025Y4499159D01*
G01X3245025Y4466159D01*
G01X3282025Y4466159D01*
G01X3282025Y4443363D01*
G01X3277024Y4438361D01*
G01X3197024Y4438361D01*
G37*
G36*
G01X3436949Y4827866D02*
G01X3441948Y4822865D01*
G01X3441948Y4742865D01*
G01X3436949Y4737866D01*
G01X3356950Y4737866D01*
G01X3351948Y4742865D01*
G01X3351948Y4767069D01*
G01X3388949Y4767069D01*
G01X3388949Y4800068D01*
G01X3351948Y4800068D01*
G01X3351948Y4822865D01*
G01X3356950Y4827866D01*
G01X3436949Y4827866D01*
G37*
G36*
G01X3197946Y4737869D02*
G01X3192947Y4742870D01*
G01X3192947Y4822870D01*
G01X3197946Y4827869D01*
G01X3277945Y4827869D01*
G01X3282947Y4822870D01*
G01X3282947Y4798666D01*
G01X3245947Y4798666D01*
G01X3245947Y4765667D01*
G01X3282947Y4765667D01*
G01X3282947Y4742870D01*
G01X3277945Y4737869D01*
G01X3197946Y4737869D01*
G37*
G36*
G01X1730498Y2179985D02*
G01X1725499Y2184986D01*
G01X1725499Y2264986D01*
G01X1730498Y2269985D01*
G01X1810498Y2269985D01*
G01X1815499Y2264986D01*
G01X1815499Y2240783D01*
G01X1778499Y2240783D01*
G01X1778499Y2207783D01*
G01X1815499Y2207783D01*
G01X1815499Y2184986D01*
G01X1810498Y2179985D01*
G01X1730498Y2179985D01*
G37*
G36*
G01X1969502Y2269983D02*
G01X1974501Y2264981D01*
G01X1974501Y2184981D01*
G01X1969502Y2179983D01*
G01X1889502Y2179983D01*
G01X1884501Y2184981D01*
G01X1884501Y2209185D01*
G01X1921501Y2209185D01*
G01X1921501Y2242185D01*
G01X1884501Y2242185D01*
G01X1884501Y2264981D01*
G01X1889502Y2269983D01*
G01X1969502Y2269983D01*
G37*
G36*
G01X3435402Y4394709D02*
G01X3440401Y4389708D01*
G01X3440401Y4309708D01*
G01X3435402Y4304709D01*
G01X3355402Y4304709D01*
G01X3350401Y4309708D01*
G01X3350401Y4333911D01*
G01X3387401Y4333911D01*
G01X3387401Y4366911D01*
G01X3350401Y4366911D01*
G01X3350401Y4389708D01*
G01X3355402Y4394709D01*
G01X3435402Y4394709D01*
G37*
G36*
G01X3196398Y4304711D02*
G01X3191400Y4309713D01*
G01X3191400Y4389713D01*
G01X3196398Y4394711D01*
G01X3276398Y4394711D01*
G01X3281400Y4389713D01*
G01X3281400Y4365509D01*
G01X3244399Y4365509D01*
G01X3244399Y4332509D01*
G01X3281400Y4332509D01*
G01X3281400Y4309713D01*
G01X3276398Y4304711D01*
G01X3196398Y4304711D01*
G37*
G36*
G01X7297002Y2157499D02*
G01X7302001Y2152497D01*
G01X7302001Y2072498D01*
G01X7297002Y2067499D01*
G01X7217002Y2067499D01*
G01X7212001Y2072498D01*
G01X7212001Y2096701D01*
G01X7249001Y2096701D01*
G01X7249001Y2129701D01*
G01X7212001Y2129701D01*
G01X7212001Y2152497D01*
G01X7217002Y2157499D01*
G01X7297002Y2157499D01*
G37*
G36*
G01X7057998Y2067501D02*
G01X7052999Y2072503D01*
G01X7052999Y2152502D01*
G01X7057998Y2157501D01*
G01X7137998Y2157501D01*
G01X7142999Y2152502D01*
G01X7142999Y2128299D01*
G01X7105999Y2128299D01*
G01X7105999Y2095299D01*
G01X7142999Y2095299D01*
G01X7142999Y2072503D01*
G01X7137998Y2067501D01*
G01X7057998Y2067501D01*
G37*
G36*
G01X6924670Y1102500D02*
G01X6929669Y1097499D01*
G01X6929669Y1017499D01*
G01X6924670Y1012500D01*
G01X6844670Y1012500D01*
G01X6839669Y1017499D01*
G01X6839669Y1041703D01*
G01X6876669Y1041703D01*
G01X6876669Y1074702D01*
G01X6839669Y1074702D01*
G01X6839669Y1097499D01*
G01X6844670Y1102500D01*
G01X6924670Y1102500D01*
G37*
G36*
G01X6685666Y1012503D02*
G01X6680668Y1017504D01*
G01X6680668Y1097504D01*
G01X6685666Y1102503D01*
G01X6765666Y1102503D01*
G01X6770667Y1097504D01*
G01X6770667Y1073300D01*
G01X6733667Y1073300D01*
G01X6733667Y1040301D01*
G01X6770667Y1040301D01*
G01X6770667Y1017504D01*
G01X6765666Y1012503D01*
G01X6685666Y1012503D01*
G37*
G36*
G01X8492002Y2029999D02*
G01X8497001Y2024997D01*
G01X8497001Y1944998D01*
G01X8492002Y1939999D01*
G01X8412002Y1939999D01*
G01X8407001Y1944998D01*
G01X8407001Y1969201D01*
G01X8444001Y1969201D01*
G01X8444001Y2002201D01*
G01X8407001Y2002201D01*
G01X8407001Y2024997D01*
G01X8412002Y2029999D01*
G01X8492002Y2029999D01*
G37*
G36*
G01X8252998Y1940001D02*
G01X8247999Y1945003D01*
G01X8247999Y2025003D01*
G01X8252998Y2030001D01*
G01X8332998Y2030001D01*
G01X8337999Y2025003D01*
G01X8337999Y2000799D01*
G01X8300999Y2000799D01*
G01X8300999Y1967799D01*
G01X8337999Y1967799D01*
G01X8337999Y1945003D01*
G01X8332998Y1940001D01*
G01X8252998Y1940001D01*
G37*
G36*
G01X7297002Y1902499D02*
G01X7302001Y1897497D01*
G01X7302001Y1817498D01*
G01X7297002Y1812499D01*
G01X7217002Y1812499D01*
G01X7212001Y1817498D01*
G01X7212001Y1841701D01*
G01X7249001Y1841701D01*
G01X7249001Y1874701D01*
G01X7212001Y1874701D01*
G01X7212001Y1897497D01*
G01X7217002Y1902499D01*
G01X7297002Y1902499D01*
G37*
G36*
G01X7057998Y1812501D02*
G01X7052999Y1817503D01*
G01X7052999Y1897502D01*
G01X7057998Y1902501D01*
G01X7137998Y1902501D01*
G01X7142999Y1897502D01*
G01X7142999Y1873299D01*
G01X7105999Y1873299D01*
G01X7105999Y1840299D01*
G01X7142999Y1840299D01*
G01X7142999Y1817503D01*
G01X7137998Y1812501D01*
G01X7057998Y1812501D01*
G37*
G36*
G01X13944502Y2474867D02*
G01X13949501Y2469866D01*
G01X13949501Y2389866D01*
G01X13944502Y2384867D01*
G01X13864502Y2384867D01*
G01X13859501Y2389866D01*
G01X13859501Y2414070D01*
G01X13896501Y2414070D01*
G01X13896501Y2447069D01*
G01X13859501Y2447069D01*
G01X13859501Y2469866D01*
G01X13864502Y2474867D01*
G01X13944502Y2474867D01*
G37*
G36*
G01X13705498Y2384870D02*
G01X13700499Y2389871D01*
G01X13700499Y2469871D01*
G01X13705498Y2474870D01*
G01X13785498Y2474870D01*
G01X13790499Y2469871D01*
G01X13790499Y2445667D01*
G01X13753499Y2445667D01*
G01X13753499Y2412668D01*
G01X13790499Y2412668D01*
G01X13790499Y2389871D01*
G01X13785498Y2384870D01*
G01X13705498Y2384870D01*
G37*
G36*
G01X8112998Y1012503D02*
G01X8107999Y1017504D01*
G01X8107999Y1097504D01*
G01X8112998Y1102503D01*
G01X8192998Y1102503D01*
G01X8197999Y1097504D01*
G01X8197999Y1073300D01*
G01X8160999Y1073300D01*
G01X8160999Y1040301D01*
G01X8197999Y1040301D01*
G01X8197999Y1017504D01*
G01X8192998Y1012503D01*
G01X8112998Y1012503D01*
G37*
G36*
G01X8352002Y1102500D02*
G01X8357001Y1097499D01*
G01X8357001Y1017499D01*
G01X8352002Y1012500D01*
G01X8272002Y1012500D01*
G01X8267001Y1017499D01*
G01X8267001Y1041703D01*
G01X8304001Y1041703D01*
G01X8304001Y1074702D01*
G01X8267001Y1074702D01*
G01X8267001Y1097499D01*
G01X8272002Y1102500D01*
G01X8352002Y1102500D01*
G37*
G36*
G01X8492002Y1774999D02*
G01X8497001Y1769997D01*
G01X8497001Y1689998D01*
G01X8492002Y1684999D01*
G01X8412002Y1684999D01*
G01X8407001Y1689998D01*
G01X8407001Y1714201D01*
G01X8444001Y1714201D01*
G01X8444001Y1747201D01*
G01X8407001Y1747201D01*
G01X8407001Y1769997D01*
G01X8412002Y1774999D01*
G01X8492002Y1774999D01*
G37*
G36*
G01X8252998Y1685001D02*
G01X8247999Y1690003D01*
G01X8247999Y1770003D01*
G01X8252998Y1775001D01*
G01X8332998Y1775001D01*
G01X8337999Y1770003D01*
G01X8337999Y1745799D01*
G01X8300999Y1745799D01*
G01X8300999Y1712799D01*
G01X8337999Y1712799D01*
G01X8337999Y1690003D01*
G01X8332998Y1685001D01*
G01X8252998Y1685001D01*
G37*
G36*
G01X8252998Y2092501D02*
G01X8247999Y2097503D01*
G01X8247999Y2177502D01*
G01X8252998Y2182501D01*
G01X8332998Y2182501D01*
G01X8337999Y2177502D01*
G01X8337999Y2153299D01*
G01X8300999Y2153299D01*
G01X8300999Y2120299D01*
G01X8337999Y2120299D01*
G01X8337999Y2097503D01*
G01X8332998Y2092501D01*
G01X8252998Y2092501D01*
G37*
G36*
G01X8492002Y2182499D02*
G01X8497001Y2177497D01*
G01X8497001Y2097497D01*
G01X8492002Y2092499D01*
G01X8412002Y2092499D01*
G01X8407001Y2097497D01*
G01X8407001Y2121701D01*
G01X8444001Y2121701D01*
G01X8444001Y2154701D01*
G01X8407001Y2154701D01*
G01X8407001Y2177497D01*
G01X8412002Y2182499D01*
G01X8492002Y2182499D01*
G37*
G36*
G01X7297002Y1649999D02*
G01X7302001Y1644998D01*
G01X7302001Y1564998D01*
G01X7297002Y1559999D01*
G01X7217002Y1559999D01*
G01X7212001Y1564998D01*
G01X7212001Y1589202D01*
G01X7249001Y1589202D01*
G01X7249001Y1622201D01*
G01X7212001Y1622201D01*
G01X7212001Y1644998D01*
G01X7217002Y1649999D01*
G01X7297002Y1649999D01*
G37*
G36*
G01X7057998Y1560002D02*
G01X7052999Y1565003D01*
G01X7052999Y1645003D01*
G01X7057998Y1650002D01*
G01X7137998Y1650002D01*
G01X7142999Y1645003D01*
G01X7142999Y1620799D01*
G01X7105999Y1620799D01*
G01X7105999Y1587799D01*
G01X7142999Y1587799D01*
G01X7142999Y1565003D01*
G01X7137998Y1560002D01*
G01X7057998Y1560002D01*
G37*
G36*
G01X13073997Y1102500D02*
G01X13078996Y1097499D01*
G01X13078996Y1017499D01*
G01X13073997Y1012500D01*
G01X12993998Y1012500D01*
G01X12988996Y1017499D01*
G01X12988996Y1041703D01*
G01X13025997Y1041703D01*
G01X13025997Y1074702D01*
G01X12988996Y1074702D01*
G01X12988996Y1097499D01*
G01X12993998Y1102500D01*
G01X13073997Y1102500D01*
G37*
G36*
G01X12834994Y1012503D02*
G01X12829995Y1017504D01*
G01X12829995Y1097504D01*
G01X12834994Y1102503D01*
G01X12914993Y1102503D01*
G01X12919995Y1097504D01*
G01X12919995Y1073300D01*
G01X12882995Y1073300D01*
G01X12882995Y1040301D01*
G01X12919995Y1040301D01*
G01X12919995Y1017504D01*
G01X12914993Y1012503D01*
G01X12834994Y1012503D01*
G37*
G36*
G01X9685993Y1012503D02*
G01X9680995Y1017504D01*
G01X9680995Y1097504D01*
G01X9685993Y1102503D01*
G01X9765993Y1102503D01*
G01X9770994Y1097504D01*
G01X9770994Y1073300D01*
G01X9733994Y1073300D01*
G01X9733994Y1040301D01*
G01X9770994Y1040301D01*
G01X9770994Y1017504D01*
G01X9765993Y1012503D01*
G01X9685993Y1012503D01*
G37*
G36*
G01X9924997Y1102500D02*
G01X9929996Y1097499D01*
G01X9929996Y1017499D01*
G01X9924997Y1012500D01*
G01X9844997Y1012500D01*
G01X9839996Y1017499D01*
G01X9839996Y1041703D01*
G01X9876996Y1041703D01*
G01X9876996Y1074702D01*
G01X9839996Y1074702D01*
G01X9839996Y1097499D01*
G01X9844997Y1102500D01*
G01X9924997Y1102500D01*
G37*
G36*
G01X8492002Y1522498D02*
G01X8497001Y1517497D01*
G01X8497001Y1437497D01*
G01X8492002Y1432499D01*
G01X8412002Y1432499D01*
G01X8407001Y1437497D01*
G01X8407001Y1461701D01*
G01X8444001Y1461701D01*
G01X8444001Y1494701D01*
G01X8407001Y1494701D01*
G01X8407001Y1517497D01*
G01X8412002Y1522498D01*
G01X8492002Y1522498D01*
G37*
G36*
G01X8252998Y1432501D02*
G01X8247999Y1437502D01*
G01X8247999Y1517502D01*
G01X8252998Y1522501D01*
G01X8332998Y1522501D01*
G01X8337999Y1517502D01*
G01X8337999Y1493299D01*
G01X8300999Y1493299D01*
G01X8300999Y1460299D01*
G01X8337999Y1460299D01*
G01X8337999Y1437502D01*
G01X8332998Y1432501D01*
G01X8252998Y1432501D01*
G37*
G36*
G01X11504671Y1102500D02*
G01X11509670Y1097499D01*
G01X11509670Y1017499D01*
G01X11504671Y1012500D01*
G01X11424671Y1012500D01*
G01X11419670Y1017499D01*
G01X11419670Y1041703D01*
G01X11456670Y1041703D01*
G01X11456670Y1074702D01*
G01X11419670Y1074702D01*
G01X11419670Y1097499D01*
G01X11424671Y1102500D01*
G01X11504671Y1102500D01*
G37*
G36*
G01X11265667Y1012503D02*
G01X11260668Y1017504D01*
G01X11260668Y1097504D01*
G01X11265667Y1102503D01*
G01X11345667Y1102503D01*
G01X11350668Y1097504D01*
G01X11350668Y1073300D01*
G01X11313668Y1073300D01*
G01X11313668Y1040301D01*
G01X11350668Y1040301D01*
G01X11350668Y1017504D01*
G01X11345667Y1012503D01*
G01X11265667Y1012503D01*
G37*
G36*
G01X1720997Y7855218D02*
G01X1715998Y7860219D01*
G01X1715998Y7940219D01*
G01X1720997Y7945218D01*
G01X1800996Y7945218D01*
G01X1805998Y7940219D01*
G01X1805998Y7916015D01*
G01X1768997Y7916015D01*
G01X1768997Y7883015D01*
G01X1805998Y7883015D01*
G01X1805998Y7860219D01*
G01X1800996Y7855218D01*
G01X1720997Y7855218D01*
G37*
G36*
G01X1960000Y7945215D02*
G01X1964999Y7940214D01*
G01X1964999Y7860214D01*
G01X1960000Y7855215D01*
G01X1880001Y7855215D01*
G01X1874999Y7860214D01*
G01X1874999Y7884418D01*
G01X1911999Y7884418D01*
G01X1911999Y7917417D01*
G01X1874999Y7917417D01*
G01X1874999Y7940214D01*
G01X1880001Y7945215D01*
G01X1960000Y7945215D01*
G37*
G36*
G01X934998Y8575999D02*
G01X934998Y8703998D01*
G01X939999Y8708999D01*
G01X1055000Y8708999D01*
G01X1059999Y8703998D01*
G01X1060502Y8662994D01*
G01X1015500Y8662994D01*
G01X1015500Y8617996D01*
G01X1059501Y8617996D01*
G01X1059999Y8575999D01*
G01X1055000Y8570998D01*
G01X939999Y8570998D01*
G01X934998Y8575999D01*
G37*
G36*
G01X1149998Y8575999D02*
G01X1150001Y8617996D01*
G01X1194499Y8617996D01*
G01X1194499Y8662994D01*
G01X1150501Y8662994D01*
G01X1149998Y8703998D01*
G01X1155000Y8708999D01*
G01X1269998Y8708999D01*
G01X1274999Y8703998D01*
G01X1274999Y8575999D01*
G01X1269998Y8570998D01*
G01X1155000Y8570998D01*
G01X1149998Y8575999D01*
G37*
G36*
G01X2953000Y7855218D02*
G01X2948001Y7860219D01*
G01X2948001Y7940219D01*
G01X2953000Y7945218D01*
G01X3033000Y7945218D01*
G01X3038001Y7940219D01*
G01X3038001Y7916015D01*
G01X3001001Y7916015D01*
G01X3001001Y7883015D01*
G01X3038001Y7883015D01*
G01X3038001Y7860219D01*
G01X3033000Y7855218D01*
G01X2953000Y7855218D01*
G37*
G36*
G01X3192004Y7945215D02*
G01X3197002Y7940214D01*
G01X3197002Y7860214D01*
G01X3192004Y7855215D01*
G01X3112004Y7855215D01*
G01X3107002Y7860214D01*
G01X3107002Y7884418D01*
G01X3144003Y7884418D01*
G01X3144003Y7917417D01*
G01X3107002Y7917417D01*
G01X3107002Y7940214D01*
G01X3112004Y7945215D01*
G01X3192004Y7945215D01*
G37*
G36*
G01X9292002Y2159999D02*
G01X9297001Y2154997D01*
G01X9297001Y2074998D01*
G01X9292002Y2069999D01*
G01X9212002Y2069999D01*
G01X9207001Y2074998D01*
G01X9207001Y2099201D01*
G01X9244001Y2099201D01*
G01X9244001Y2132201D01*
G01X9207001Y2132201D01*
G01X9207001Y2154997D01*
G01X9212002Y2159999D01*
G01X9292002Y2159999D01*
G37*
G36*
G01X9052998Y2070001D02*
G01X9047999Y2075003D01*
G01X9047999Y2155003D01*
G01X9052998Y2160001D01*
G01X9132998Y2160001D01*
G01X9137999Y2155003D01*
G01X9137999Y2130799D01*
G01X9100999Y2130799D01*
G01X9100999Y2097799D01*
G01X9137999Y2097799D01*
G01X9137999Y2075003D01*
G01X9132998Y2070001D01*
G01X9052998Y2070001D01*
G37*
G36*
G01X2159998Y8575999D02*
G01X2159998Y8703998D01*
G01X2164999Y8708999D01*
G01X2280000Y8708999D01*
G01X2284999Y8703998D01*
G01X2285502Y8662994D01*
G01X2240500Y8662994D01*
G01X2240500Y8617996D01*
G01X2284501Y8617996D01*
G01X2284999Y8575999D01*
G01X2280000Y8570998D01*
G01X2164999Y8570998D01*
G01X2159998Y8575999D01*
G37*
G36*
G01X2374999Y8575999D02*
G01X2375001Y8617996D01*
G01X2419499Y8617996D01*
G01X2419499Y8662994D01*
G01X2375501Y8662994D01*
G01X2374999Y8703998D01*
G01X2380000Y8708999D01*
G01X2494998Y8708999D01*
G01X2500000Y8703998D01*
G01X2500000Y8575999D01*
G01X2494998Y8570998D01*
G01X2380000Y8570998D01*
G01X2374999Y8575999D01*
G37*
G36*
G01X4179949Y7855218D02*
G01X4174950Y7860219D01*
G01X4174950Y7940219D01*
G01X4179949Y7945218D01*
G01X4259949Y7945218D01*
G01X4264950Y7940219D01*
G01X4264950Y7916015D01*
G01X4227950Y7916015D01*
G01X4227950Y7883015D01*
G01X4264950Y7883015D01*
G01X4264950Y7860219D01*
G01X4259949Y7855218D01*
G01X4179949Y7855218D01*
G37*
G36*
G01X4418953Y7945215D02*
G01X4423952Y7940214D01*
G01X4423952Y7860214D01*
G01X4418953Y7855215D01*
G01X4338953Y7855215D01*
G01X4333952Y7860214D01*
G01X4333952Y7884418D01*
G01X4370952Y7884418D01*
G01X4370952Y7917417D01*
G01X4333952Y7917417D01*
G01X4333952Y7940214D01*
G01X4338953Y7945215D01*
G01X4418953Y7945215D01*
G37*
G36*
G01X7274997Y1102500D02*
G01X7279996Y1097499D01*
G01X7279996Y1017499D01*
G01X7274997Y1012500D01*
G01X7194997Y1012500D01*
G01X7189996Y1017499D01*
G01X7189996Y1041703D01*
G01X7226996Y1041703D01*
G01X7226996Y1074702D01*
G01X7189996Y1074702D01*
G01X7189996Y1097499D01*
G01X7194997Y1102500D01*
G01X7274997Y1102500D01*
G37*
G36*
G01X7035993Y1012503D02*
G01X7030994Y1017504D01*
G01X7030994Y1097504D01*
G01X7035993Y1102503D01*
G01X7115993Y1102503D01*
G01X7120994Y1097504D01*
G01X7120994Y1073300D01*
G01X7083994Y1073300D01*
G01X7083994Y1040301D01*
G01X7120994Y1040301D01*
G01X7120994Y1017504D01*
G01X7115993Y1012503D01*
G01X7035993Y1012503D01*
G37*
G36*
G01X10459282Y2031471D02*
G01X10464281Y2026469D01*
G01X10464281Y1946470D01*
G01X10459282Y1941471D01*
G01X10379282Y1941471D01*
G01X10374281Y1946470D01*
G01X10374281Y1970673D01*
G01X10411281Y1970673D01*
G01X10411281Y2003673D01*
G01X10374281Y2003673D01*
G01X10374281Y2026469D01*
G01X10379282Y2031471D01*
G01X10459282Y2031471D01*
G37*
G36*
G01X10220278Y1941473D02*
G01X10215279Y1946475D01*
G01X10215279Y2026474D01*
G01X10220278Y2031473D01*
G01X10300278Y2031473D01*
G01X10305279Y2026474D01*
G01X10305279Y2002271D01*
G01X10268279Y2002271D01*
G01X10268279Y1969271D01*
G01X10305279Y1969271D01*
G01X10305279Y1946475D01*
G01X10300278Y1941473D01*
G01X10220278Y1941473D01*
G37*
G36*
G01X9292002Y1907499D02*
G01X9297001Y1902497D01*
G01X9297001Y1822497D01*
G01X9292002Y1817499D01*
G01X9212002Y1817499D01*
G01X9207001Y1822497D01*
G01X9207001Y1846701D01*
G01X9244001Y1846701D01*
G01X9244001Y1879701D01*
G01X9207001Y1879701D01*
G01X9207001Y1902497D01*
G01X9212002Y1907499D01*
G01X9292002Y1907499D01*
G37*
G36*
G01X9052998Y1817501D02*
G01X9047999Y1822503D01*
G01X9047999Y1902502D01*
G01X9052998Y1907501D01*
G01X9132998Y1907501D01*
G01X9137999Y1902502D01*
G01X9137999Y1878299D01*
G01X9100999Y1878299D01*
G01X9100999Y1845299D01*
G01X9137999Y1845299D01*
G01X9137999Y1822503D01*
G01X9132998Y1817501D01*
G01X9052998Y1817501D01*
G37*
G36*
G01X13939502Y2124867D02*
G01X13944501Y2119866D01*
G01X13944501Y2039866D01*
G01X13939502Y2034867D01*
G01X13859502Y2034867D01*
G01X13854501Y2039866D01*
G01X13854501Y2064070D01*
G01X13891501Y2064070D01*
G01X13891501Y2097069D01*
G01X13854501Y2097069D01*
G01X13854501Y2119866D01*
G01X13859502Y2124867D01*
G01X13939502Y2124867D01*
G37*
G36*
G01X13700498Y2034870D02*
G01X13695499Y2039871D01*
G01X13695499Y2119871D01*
G01X13700498Y2124870D01*
G01X13780498Y2124870D01*
G01X13785499Y2119871D01*
G01X13785499Y2095667D01*
G01X13748499Y2095667D01*
G01X13748499Y2062668D01*
G01X13785499Y2062668D01*
G01X13785499Y2039871D01*
G01X13780498Y2034870D01*
G01X13700498Y2034870D01*
G37*
G36*
G01X8852171Y1102500D02*
G01X8857169Y1097499D01*
G01X8857169Y1017499D01*
G01X8852171Y1012500D01*
G01X8772171Y1012500D01*
G01X8767169Y1017499D01*
G01X8767169Y1041703D01*
G01X8804170Y1041703D01*
G01X8804170Y1074702D01*
G01X8767169Y1074702D01*
G01X8767169Y1097499D01*
G01X8772171Y1102500D01*
G01X8852171Y1102500D01*
G37*
G36*
G01X8613167Y1012503D02*
G01X8608168Y1017504D01*
G01X8608168Y1097504D01*
G01X8613167Y1102503D01*
G01X8693167Y1102503D01*
G01X8698168Y1097504D01*
G01X8698168Y1073300D01*
G01X8661168Y1073300D01*
G01X8661168Y1040301D01*
G01X8698168Y1040301D01*
G01X8698168Y1017504D01*
G01X8693167Y1012503D01*
G01X8613167Y1012503D01*
G37*
G36*
G01X10459282Y1777499D02*
G01X10464281Y1772497D01*
G01X10464281Y1692498D01*
G01X10459282Y1687499D01*
G01X10379282Y1687499D01*
G01X10374281Y1692498D01*
G01X10374281Y1716701D01*
G01X10411281Y1716701D01*
G01X10411281Y1749701D01*
G01X10374281Y1749701D01*
G01X10374281Y1772497D01*
G01X10379282Y1777499D01*
G01X10459282Y1777499D01*
G37*
G36*
G01X10220278Y1687501D02*
G01X10215279Y1692503D01*
G01X10215279Y1772502D01*
G01X10220278Y1777501D01*
G01X10300278Y1777501D01*
G01X10305279Y1772502D01*
G01X10305279Y1748299D01*
G01X10268279Y1748299D01*
G01X10268279Y1715299D01*
G01X10305279Y1715299D01*
G01X10305279Y1692503D01*
G01X10300278Y1687501D01*
G01X10220278Y1687501D01*
G37*
G36*
G01X10220278Y2092773D02*
G01X10215279Y2097774D01*
G01X10215279Y2177774D01*
G01X10220278Y2182772D01*
G01X10300278Y2182772D01*
G01X10305279Y2177774D01*
G01X10305279Y2153570D01*
G01X10268279Y2153570D01*
G01X10268279Y2120570D01*
G01X10305279Y2120570D01*
G01X10305279Y2097774D01*
G01X10300278Y2092773D01*
G01X10220278Y2092773D01*
G37*
G36*
G01X10459282Y2182770D02*
G01X10464281Y2177769D01*
G01X10464281Y2097769D01*
G01X10459282Y2092770D01*
G01X10379282Y2092770D01*
G01X10374281Y2097769D01*
G01X10374281Y2121972D01*
G01X10411281Y2121972D01*
G01X10411281Y2154972D01*
G01X10374281Y2154972D01*
G01X10374281Y2177769D01*
G01X10379282Y2182770D01*
G01X10459282Y2182770D01*
G37*
G36*
G01X9292002Y1647499D02*
G01X9297001Y1642497D01*
G01X9297001Y1562498D01*
G01X9292002Y1557499D01*
G01X9212002Y1557499D01*
G01X9207001Y1562498D01*
G01X9207001Y1586701D01*
G01X9244001Y1586701D01*
G01X9244001Y1619701D01*
G01X9207001Y1619701D01*
G01X9207001Y1642497D01*
G01X9212002Y1647499D01*
G01X9292002Y1647499D01*
G37*
G36*
G01X9052998Y1557501D02*
G01X9047999Y1562503D01*
G01X9047999Y1642502D01*
G01X9052998Y1647501D01*
G01X9132998Y1647501D01*
G01X9137999Y1642502D01*
G01X9137999Y1618299D01*
G01X9100999Y1618299D01*
G01X9100999Y1585299D01*
G01X9137999Y1585299D01*
G01X9137999Y1562503D01*
G01X9132998Y1557501D01*
G01X9052998Y1557501D01*
G37*
G36*
G01X13428333Y1102500D02*
G01X13433331Y1097499D01*
G01X13433331Y1017499D01*
G01X13428333Y1012500D01*
G01X13348333Y1012500D01*
G01X13343331Y1017499D01*
G01X13343331Y1041703D01*
G01X13380332Y1041703D01*
G01X13380332Y1074702D01*
G01X13343331Y1074702D01*
G01X13343331Y1097499D01*
G01X13348333Y1102500D01*
G01X13428333Y1102500D01*
G37*
G36*
G01X13189329Y1012503D02*
G01X13184330Y1017504D01*
G01X13184330Y1097504D01*
G01X13189329Y1102503D01*
G01X13269329Y1102503D01*
G01X13274330Y1097504D01*
G01X13274330Y1073300D01*
G01X13237330Y1073300D01*
G01X13237330Y1040301D01*
G01X13274330Y1040301D01*
G01X13274330Y1017504D01*
G01X13269329Y1012503D01*
G01X13189329Y1012503D01*
G37*
G36*
G01X3387488Y8575999D02*
G01X3387488Y8703998D01*
G01X3392489Y8708999D01*
G01X3507490Y8708999D01*
G01X3512489Y8703998D01*
G01X3512992Y8662994D01*
G01X3467991Y8662994D01*
G01X3467991Y8617996D01*
G01X3511991Y8617996D01*
G01X3512489Y8575999D01*
G01X3507490Y8570998D01*
G01X3392489Y8570998D01*
G01X3387488Y8575999D01*
G37*
G36*
G01X3602489Y8575999D02*
G01X3602491Y8617996D01*
G01X3646990Y8617996D01*
G01X3646990Y8662994D01*
G01X3602992Y8662994D01*
G01X3602489Y8703998D01*
G01X3607490Y8708999D01*
G01X3722489Y8708999D01*
G01X3727490Y8703998D01*
G01X3727490Y8575999D01*
G01X3722489Y8570998D01*
G01X3607490Y8570998D01*
G01X3602489Y8575999D01*
G37*
G36*
G01X5407995Y7855218D02*
G01X5402996Y7860219D01*
G01X5402996Y7940219D01*
G01X5407995Y7945218D01*
G01X5487995Y7945218D01*
G01X5492996Y7940219D01*
G01X5492996Y7916015D01*
G01X5455996Y7916015D01*
G01X5455996Y7883015D01*
G01X5492996Y7883015D01*
G01X5492996Y7860219D01*
G01X5487995Y7855218D01*
G01X5407995Y7855218D01*
G37*
G36*
G01X5646999Y7945215D02*
G01X5651998Y7940214D01*
G01X5651998Y7860214D01*
G01X5646999Y7855215D01*
G01X5566999Y7855215D01*
G01X5561998Y7860214D01*
G01X5561998Y7884418D01*
G01X5598998Y7884418D01*
G01X5598998Y7917417D01*
G01X5561998Y7917417D01*
G01X5561998Y7940214D01*
G01X5566999Y7945215D01*
G01X5646999Y7945215D01*
G37*
G36*
G01X10036666Y1012503D02*
G01X10031668Y1017504D01*
G01X10031668Y1097504D01*
G01X10036666Y1102503D01*
G01X10116666Y1102503D01*
G01X10121668Y1097504D01*
G01X10121668Y1073300D01*
G01X10084667Y1073300D01*
G01X10084667Y1040301D01*
G01X10121668Y1040301D01*
G01X10121668Y1017504D01*
G01X10116666Y1012503D01*
G01X10036666Y1012503D01*
G37*
G36*
G01X10275670Y1102500D02*
G01X10280669Y1097499D01*
G01X10280669Y1017499D01*
G01X10275670Y1012500D01*
G01X10195670Y1012500D01*
G01X10190669Y1017499D01*
G01X10190669Y1041703D01*
G01X10227669Y1041703D01*
G01X10227669Y1074702D01*
G01X10190669Y1074702D01*
G01X10190669Y1097499D01*
G01X10195670Y1102500D01*
G01X10275670Y1102500D01*
G37*
G36*
G01X10459282Y1524999D02*
G01X10464281Y1519997D01*
G01X10464281Y1439998D01*
G01X10459282Y1434999D01*
G01X10379282Y1434999D01*
G01X10374281Y1439998D01*
G01X10374281Y1464201D01*
G01X10411281Y1464201D01*
G01X10411281Y1497201D01*
G01X10374281Y1497201D01*
G01X10374281Y1519997D01*
G01X10379282Y1524999D01*
G01X10459282Y1524999D01*
G37*
G36*
G01X10220278Y1435001D02*
G01X10215279Y1440003D01*
G01X10215279Y1520003D01*
G01X10220278Y1525001D01*
G01X10300278Y1525001D01*
G01X10305279Y1520003D01*
G01X10305279Y1495799D01*
G01X10268279Y1495799D01*
G01X10268279Y1462799D01*
G01X10305279Y1462799D01*
G01X10305279Y1440003D01*
G01X10300278Y1435001D01*
G01X10220278Y1435001D01*
G37*
G36*
G01X11852171Y1102500D02*
G01X11857169Y1097499D01*
G01X11857169Y1017499D01*
G01X11852171Y1012500D01*
G01X11772171Y1012500D01*
G01X11767170Y1017499D01*
G01X11767170Y1041703D01*
G01X11804170Y1041703D01*
G01X11804170Y1074702D01*
G01X11767170Y1074702D01*
G01X11767170Y1097499D01*
G01X11772171Y1102500D01*
G01X11852171Y1102500D01*
G37*
G36*
G01X11613167Y1012503D02*
G01X11608168Y1017504D01*
G01X11608168Y1097504D01*
G01X11613167Y1102503D01*
G01X11693167Y1102503D01*
G01X11698168Y1097504D01*
G01X11698168Y1073300D01*
G01X11661168Y1073300D01*
G01X11661168Y1040301D01*
G01X11698168Y1040301D01*
G01X11698168Y1017504D01*
G01X11693167Y1012503D01*
G01X11613167Y1012503D01*
G37*
G36*
G01X4611739Y8575999D02*
G01X4611739Y8703998D01*
G01X4616741Y8708999D01*
G01X4731742Y8708999D01*
G01X4736740Y8703998D01*
G01X4737243Y8662994D01*
G01X4692242Y8662994D01*
G01X4692242Y8617996D01*
G01X4736242Y8617996D01*
G01X4736740Y8575999D01*
G01X4731742Y8570998D01*
G01X4616741Y8570998D01*
G01X4611739Y8575999D01*
G37*
G36*
G01X4826740Y8575999D02*
G01X4826743Y8617996D01*
G01X4871241Y8617996D01*
G01X4871241Y8662994D01*
G01X4827243Y8662994D01*
G01X4826740Y8703998D01*
G01X4831741Y8708999D01*
G01X4946740Y8708999D01*
G01X4951741Y8703998D01*
G01X4951741Y8575999D01*
G01X4946740Y8570998D01*
G01X4831741Y8570998D01*
G01X4826740Y8575999D01*
G37*
G36*
G01X1959086Y6651175D02*
G01X1964088Y6656173D01*
G01X2044087Y6656173D01*
G01X2049086Y6651175D01*
G01X2049086Y6571175D01*
G01X2044087Y6566174D01*
G01X2019884Y6566174D01*
G01X2019884Y6603174D01*
G01X1986884Y6603174D01*
G01X1986884Y6566174D01*
G01X1964088Y6566174D01*
G01X1959086Y6571175D01*
G01X1959086Y6651175D01*
G37*
G36*
G01X2049084Y6412171D02*
G01X2044082Y6407172D01*
G01X1964082Y6407172D01*
G01X1959084Y6412171D01*
G01X1959084Y6492171D01*
G01X1964082Y6497172D01*
G01X1988286Y6497172D01*
G01X1988286Y6460172D01*
G01X2021286Y6460172D01*
G01X2021286Y6497172D01*
G01X2044082Y6497172D01*
G01X2049084Y6492171D01*
G01X2049084Y6412171D01*
G37*
G36*
G01X2106447Y6651175D02*
G01X2111448Y6656173D01*
G01X2191448Y6656173D01*
G01X2196447Y6651175D01*
G01X2196447Y6571175D01*
G01X2191448Y6566174D01*
G01X2167244Y6566174D01*
G01X2167244Y6603174D01*
G01X2134245Y6603174D01*
G01X2134245Y6566174D01*
G01X2111448Y6566174D01*
G01X2106447Y6571175D01*
G01X2106447Y6651175D01*
G37*
G36*
G01X2196444Y6412171D02*
G01X2191443Y6407172D01*
G01X2111443Y6407172D01*
G01X2106444Y6412171D01*
G01X2106444Y6492171D01*
G01X2111443Y6497172D01*
G01X2135647Y6497172D01*
G01X2135647Y6460172D01*
G01X2168646Y6460172D01*
G01X2168646Y6497172D01*
G01X2191443Y6497172D01*
G01X2196444Y6492171D01*
G01X2196444Y6412171D01*
G37*
G36*
G01X2346385Y7454384D02*
G01X2341384Y7449385D01*
G01X2261384Y7449385D01*
G01X2256386Y7454384D01*
G01X2256386Y7534383D01*
G01X2261384Y7539385D01*
G01X2285588Y7539385D01*
G01X2285588Y7502385D01*
G01X2318588Y7502385D01*
G01X2318588Y7539385D01*
G01X2341384Y7539385D01*
G01X2346385Y7534383D01*
G01X2346385Y7454384D01*
G37*
G36*
G01X2256388Y7693387D02*
G01X2261389Y7698386D01*
G01X2341389Y7698386D01*
G01X2346388Y7693387D01*
G01X2346388Y7613388D01*
G01X2341389Y7608386D01*
G01X2317186Y7608386D01*
G01X2317186Y7645387D01*
G01X2284186Y7645387D01*
G01X2284186Y7608386D01*
G01X2261389Y7608386D01*
G01X2256388Y7613388D01*
G01X2256388Y7693387D01*
G37*
G36*
G01X2256388Y6651175D02*
G01X2261389Y6656173D01*
G01X2341389Y6656173D01*
G01X2346388Y6651175D01*
G01X2346388Y6571175D01*
G01X2341389Y6566174D01*
G01X2317186Y6566174D01*
G01X2317186Y6603174D01*
G01X2284186Y6603174D01*
G01X2284186Y6566174D01*
G01X2261389Y6566174D01*
G01X2256388Y6571175D01*
G01X2256388Y6651175D01*
G37*
G36*
G01X2346385Y6412171D02*
G01X2341384Y6407172D01*
G01X2261384Y6407172D01*
G01X2256386Y6412171D01*
G01X2256386Y6492171D01*
G01X2261384Y6497172D01*
G01X2285588Y6497172D01*
G01X2285588Y6460172D01*
G01X2318588Y6460172D01*
G01X2318588Y6497172D01*
G01X2341384Y6497172D01*
G01X2346385Y6492171D01*
G01X2346385Y6412171D01*
G37*
G36*
G01X2196379Y7454778D02*
G01X2191377Y7449779D01*
G01X2111378Y7449779D01*
G01X2106379Y7454778D01*
G01X2106379Y7534778D01*
G01X2111378Y7539779D01*
G01X2135581Y7539779D01*
G01X2135581Y7502779D01*
G01X2168581Y7502779D01*
G01X2168581Y7539779D01*
G01X2191377Y7539779D01*
G01X2196379Y7534778D01*
G01X2196379Y7454778D01*
G37*
G36*
G01X2106381Y7693782D02*
G01X2111383Y7698781D01*
G01X2191382Y7698781D01*
G01X2196381Y7693782D01*
G01X2196381Y7613782D01*
G01X2191382Y7608781D01*
G01X2167179Y7608781D01*
G01X2167179Y7645781D01*
G01X2134179Y7645781D01*
G01X2134179Y7608781D01*
G01X2111383Y7608781D01*
G01X2106381Y7613782D01*
G01X2106381Y7693782D01*
G37*
G36*
G01X2046519Y7454778D02*
G01X2041517Y7449779D01*
G01X1961518Y7449779D01*
G01X1956519Y7454778D01*
G01X1956519Y7534778D01*
G01X1961518Y7539779D01*
G01X1985721Y7539779D01*
G01X1985721Y7502779D01*
G01X2018721Y7502779D01*
G01X2018721Y7539779D01*
G01X2041517Y7539779D01*
G01X2046519Y7534778D01*
G01X2046519Y7454778D01*
G37*
G36*
G01X1956521Y7693782D02*
G01X1961523Y7698781D01*
G01X2041522Y7698781D01*
G01X2046521Y7693782D01*
G01X2046521Y7613782D01*
G01X2041522Y7608781D01*
G01X2017319Y7608781D01*
G01X2017319Y7645781D01*
G01X1984319Y7645781D01*
G01X1984319Y7608781D01*
G01X1961523Y7608781D01*
G01X1956521Y7613782D01*
G01X1956521Y7693782D01*
G37*
G36*
G01X1896659Y7454778D02*
G01X1891657Y7449779D01*
G01X1811658Y7449779D01*
G01X1806659Y7454778D01*
G01X1806659Y7534778D01*
G01X1811658Y7539779D01*
G01X1835861Y7539779D01*
G01X1835861Y7502779D01*
G01X1868861Y7502779D01*
G01X1868861Y7539779D01*
G01X1891657Y7539779D01*
G01X1896659Y7534778D01*
G01X1896659Y7454778D01*
G37*
G36*
G01X1806661Y7693782D02*
G01X1811663Y7698781D01*
G01X1891662Y7698781D01*
G01X1896661Y7693782D01*
G01X1896661Y7613782D01*
G01X1891662Y7608781D01*
G01X1867459Y7608781D01*
G01X1867459Y7645781D01*
G01X1834459Y7645781D01*
G01X1834459Y7608781D01*
G01X1811663Y7608781D01*
G01X1806661Y7613782D01*
G01X1806661Y7693782D01*
G37*
G36*
G01X6630495Y7855218D02*
G01X6625496Y7860219D01*
G01X6625496Y7940219D01*
G01X6630495Y7945218D01*
G01X6710495Y7945218D01*
G01X6715496Y7940219D01*
G01X6715496Y7916015D01*
G01X6678496Y7916015D01*
G01X6678496Y7883015D01*
G01X6715496Y7883015D01*
G01X6715496Y7860219D01*
G01X6710495Y7855218D01*
G01X6630495Y7855218D01*
G37*
G36*
G01X6869499Y7945215D02*
G01X6874498Y7940214D01*
G01X6874498Y7860214D01*
G01X6869499Y7855215D01*
G01X6789499Y7855215D01*
G01X6784498Y7860214D01*
G01X6784498Y7884418D01*
G01X6821498Y7884418D01*
G01X6821498Y7917417D01*
G01X6784498Y7917417D01*
G01X6784498Y7940214D01*
G01X6789499Y7945215D01*
G01X6869499Y7945215D01*
G37*
G36*
G01X5836771Y8575999D02*
G01X5836771Y8703998D01*
G01X5841772Y8708999D01*
G01X5956773Y8708999D01*
G01X5961772Y8703998D01*
G01X5962275Y8662994D01*
G01X5917273Y8662994D01*
G01X5917273Y8617996D01*
G01X5961274Y8617996D01*
G01X5961772Y8575999D01*
G01X5956773Y8570998D01*
G01X5841772Y8570998D01*
G01X5836771Y8575999D01*
G37*
G36*
G01X6051771Y8575999D02*
G01X6051774Y8617996D01*
G01X6096272Y8617996D01*
G01X6096272Y8662994D01*
G01X6052274Y8662994D01*
G01X6051771Y8703998D01*
G01X6056773Y8708999D01*
G01X6171771Y8708999D01*
G01X6176773Y8703998D01*
G01X6176773Y8575999D01*
G01X6171771Y8570998D01*
G01X6056773Y8570998D01*
G01X6051771Y8575999D01*
G37*
G36*
G01X7855495Y7855218D02*
G01X7850496Y7860219D01*
G01X7850496Y7940219D01*
G01X7855495Y7945218D01*
G01X7935495Y7945218D01*
G01X7940496Y7940219D01*
G01X7940496Y7916015D01*
G01X7903496Y7916015D01*
G01X7903496Y7883015D01*
G01X7940496Y7883015D01*
G01X7940496Y7860219D01*
G01X7935495Y7855218D01*
G01X7855495Y7855218D01*
G37*
G36*
G01X8094499Y7945215D02*
G01X8099497Y7940214D01*
G01X8099497Y7860214D01*
G01X8094499Y7855215D01*
G01X8014499Y7855215D01*
G01X8009498Y7860214D01*
G01X8009498Y7884418D01*
G01X8046498Y7884418D01*
G01X8046498Y7917417D01*
G01X8009498Y7917417D01*
G01X8009498Y7940214D01*
G01X8014499Y7945215D01*
G01X8094499Y7945215D01*
G37*
G36*
G01X11554670Y2160003D02*
G01X11559669Y2155002D01*
G01X11559669Y2075002D01*
G01X11554670Y2070003D01*
G01X11474670Y2070003D01*
G01X11469669Y2075002D01*
G01X11469669Y2099206D01*
G01X11506669Y2099206D01*
G01X11506669Y2132206D01*
G01X11469669Y2132206D01*
G01X11469669Y2155002D01*
G01X11474670Y2160003D01*
G01X11554670Y2160003D01*
G37*
G36*
G01X11315666Y2070006D02*
G01X11310668Y2075007D01*
G01X11310668Y2155007D01*
G01X11315666Y2160006D01*
G01X11395666Y2160006D01*
G01X11400668Y2155007D01*
G01X11400668Y2130803D01*
G01X11363667Y2130803D01*
G01X11363667Y2097804D01*
G01X11400668Y2097804D01*
G01X11400668Y2075007D01*
G01X11395666Y2070006D01*
G01X11315666Y2070006D01*
G37*
G36*
G01X7630670Y1102500D02*
G01X7635668Y1097499D01*
G01X7635668Y1017499D01*
G01X7630670Y1012500D01*
G01X7550670Y1012500D01*
G01X7545669Y1017499D01*
G01X7545669Y1041703D01*
G01X7582669Y1041703D01*
G01X7582669Y1074702D01*
G01X7545669Y1074702D01*
G01X7545669Y1097499D01*
G01X7550670Y1102500D01*
G01X7630670Y1102500D01*
G37*
G36*
G01X7391666Y1012503D02*
G01X7386667Y1017504D01*
G01X7386667Y1097504D01*
G01X7391666Y1102503D01*
G01X7471666Y1102503D01*
G01X7476667Y1097504D01*
G01X7476667Y1073300D01*
G01X7439667Y1073300D01*
G01X7439667Y1040301D01*
G01X7476667Y1040301D01*
G01X7476667Y1017504D01*
G01X7471666Y1012503D01*
G01X7391666Y1012503D01*
G37*
G36*
G01X12760434Y2029705D02*
G01X12765433Y2024704D01*
G01X12765433Y1944704D01*
G01X12760434Y1939705D01*
G01X12680434Y1939705D01*
G01X12675433Y1944704D01*
G01X12675433Y1968908D01*
G01X12712433Y1968908D01*
G01X12712433Y2001907D01*
G01X12675433Y2001907D01*
G01X12675433Y2024704D01*
G01X12680434Y2029705D01*
G01X12760434Y2029705D01*
G37*
G36*
G01X12521430Y1939708D02*
G01X12516432Y1944709D01*
G01X12516432Y2024709D01*
G01X12521430Y2029708D01*
G01X12601430Y2029708D01*
G01X12606431Y2024709D01*
G01X12606431Y2000505D01*
G01X12569431Y2000505D01*
G01X12569431Y1967506D01*
G01X12606431Y1967506D01*
G01X12606431Y1944709D01*
G01X12601430Y1939708D01*
G01X12521430Y1939708D01*
G37*
G36*
G01X7066392Y8575999D02*
G01X7066392Y8703998D01*
G01X7071393Y8708999D01*
G01X7186394Y8708999D01*
G01X7191393Y8703998D01*
G01X7191896Y8662994D01*
G01X7146895Y8662994D01*
G01X7146895Y8617996D01*
G01X7190895Y8617996D01*
G01X7191393Y8575999D01*
G01X7186394Y8570998D01*
G01X7071393Y8570998D01*
G01X7066392Y8575999D01*
G37*
G36*
G01X7281393Y8575999D02*
G01X7281395Y8617996D01*
G01X7325894Y8617996D01*
G01X7325894Y8662994D01*
G01X7281896Y8662994D01*
G01X7281393Y8703998D01*
G01X7286394Y8708999D01*
G01X7401393Y8708999D01*
G01X7406394Y8703998D01*
G01X7406394Y8575999D01*
G01X7401393Y8570998D01*
G01X7286394Y8570998D01*
G01X7281393Y8575999D01*
G37*
G36*
G01X9080495Y7855218D02*
G01X9075496Y7860219D01*
G01X9075496Y7940219D01*
G01X9080495Y7945218D01*
G01X9160495Y7945218D01*
G01X9165496Y7940219D01*
G01X9165496Y7916015D01*
G01X9128496Y7916015D01*
G01X9128496Y7883015D01*
G01X9165496Y7883015D01*
G01X9165496Y7860219D01*
G01X9160495Y7855218D01*
G01X9080495Y7855218D01*
G37*
G36*
G01X9319499Y7945215D02*
G01X9324497Y7940214D01*
G01X9324497Y7860214D01*
G01X9319499Y7855215D01*
G01X9239499Y7855215D01*
G01X9234497Y7860214D01*
G01X9234497Y7884418D01*
G01X9271498Y7884418D01*
G01X9271498Y7917417D01*
G01X9234497Y7917417D01*
G01X9234497Y7940214D01*
G01X9239499Y7945215D01*
G01X9319499Y7945215D01*
G37*
G36*
G01X11554670Y1905003D02*
G01X11559669Y1900002D01*
G01X11559669Y1820002D01*
G01X11554670Y1815003D01*
G01X11474670Y1815003D01*
G01X11469669Y1820002D01*
G01X11469669Y1844206D01*
G01X11506669Y1844206D01*
G01X11506669Y1877206D01*
G01X11469669Y1877206D01*
G01X11469669Y1900002D01*
G01X11474670Y1905003D01*
G01X11554670Y1905003D01*
G37*
G36*
G01X11315666Y1815006D02*
G01X11310668Y1820007D01*
G01X11310668Y1900007D01*
G01X11315666Y1905006D01*
G01X11395666Y1905006D01*
G01X11400668Y1900007D01*
G01X11400668Y1875803D01*
G01X11363667Y1875803D01*
G01X11363667Y1842804D01*
G01X11400668Y1842804D01*
G01X11400668Y1820007D01*
G01X11395666Y1815006D01*
G01X11315666Y1815006D01*
G37*
G36*
G01X13939502Y1774867D02*
G01X13944501Y1769866D01*
G01X13944501Y1689866D01*
G01X13939502Y1684867D01*
G01X13859502Y1684867D01*
G01X13854501Y1689866D01*
G01X13854501Y1714070D01*
G01X13891501Y1714070D01*
G01X13891501Y1747069D01*
G01X13854501Y1747069D01*
G01X13854501Y1769866D01*
G01X13859502Y1774867D01*
G01X13939502Y1774867D01*
G37*
G36*
G01X13700498Y1684870D02*
G01X13695499Y1689871D01*
G01X13695499Y1769871D01*
G01X13700498Y1774870D01*
G01X13780498Y1774870D01*
G01X13785499Y1769871D01*
G01X13785499Y1745667D01*
G01X13748499Y1745667D01*
G01X13748499Y1712668D01*
G01X13785499Y1712668D01*
G01X13785499Y1689871D01*
G01X13780498Y1684870D01*
G01X13700498Y1684870D01*
G37*
G36*
G01X9202171Y1102500D02*
G01X9207170Y1097499D01*
G01X9207170Y1017499D01*
G01X9202171Y1012500D01*
G01X9122171Y1012500D01*
G01X9117170Y1017499D01*
G01X9117170Y1041703D01*
G01X9154170Y1041703D01*
G01X9154170Y1074702D01*
G01X9117170Y1074702D01*
G01X9117170Y1097499D01*
G01X9122171Y1102500D01*
G01X9202171Y1102500D01*
G37*
G36*
G01X8963167Y1012503D02*
G01X8958169Y1017504D01*
G01X8958169Y1097504D01*
G01X8963167Y1102503D01*
G01X9043167Y1102503D01*
G01X9048168Y1097504D01*
G01X9048168Y1073300D01*
G01X9011168Y1073300D01*
G01X9011168Y1040301D01*
G01X9048168Y1040301D01*
G01X9048168Y1017504D01*
G01X9043167Y1012503D01*
G01X8963167Y1012503D01*
G37*
G36*
G01X12760434Y1773814D02*
G01X12765433Y1768813D01*
G01X12765433Y1688813D01*
G01X12760434Y1683814D01*
G01X12680434Y1683814D01*
G01X12675433Y1688813D01*
G01X12675433Y1713016D01*
G01X12712433Y1713016D01*
G01X12712433Y1746016D01*
G01X12675433Y1746016D01*
G01X12675433Y1768813D01*
G01X12680434Y1773814D01*
G01X12760434Y1773814D01*
G37*
G36*
G01X12521430Y1683817D02*
G01X12516432Y1688818D01*
G01X12516432Y1768818D01*
G01X12521430Y1773816D01*
G01X12601430Y1773816D01*
G01X12606431Y1768818D01*
G01X12606431Y1744614D01*
G01X12569431Y1744614D01*
G01X12569431Y1711614D01*
G01X12606431Y1711614D01*
G01X12606431Y1688818D01*
G01X12601430Y1683817D01*
G01X12521430Y1683817D01*
G37*
G36*
G01X11554670Y1652440D02*
G01X11559669Y1647439D01*
G01X11559669Y1567439D01*
G01X11554670Y1562440D01*
G01X11474670Y1562440D01*
G01X11469669Y1567439D01*
G01X11469669Y1591643D01*
G01X11506669Y1591643D01*
G01X11506669Y1624642D01*
G01X11469669Y1624642D01*
G01X11469669Y1647439D01*
G01X11474670Y1652440D01*
G01X11554670Y1652440D01*
G37*
G36*
G01X11315666Y1562443D02*
G01X11310668Y1567444D01*
G01X11310668Y1647444D01*
G01X11315666Y1652443D01*
G01X11395666Y1652443D01*
G01X11400668Y1647444D01*
G01X11400668Y1623240D01*
G01X11363667Y1623240D01*
G01X11363667Y1590241D01*
G01X11400668Y1590241D01*
G01X11400668Y1567444D01*
G01X11395666Y1562443D01*
G01X11315666Y1562443D01*
G37*
G36*
G01X13777932Y1102500D02*
G01X13782931Y1097499D01*
G01X13782931Y1017499D01*
G01X13777932Y1012500D01*
G01X13697932Y1012500D01*
G01X13692931Y1017499D01*
G01X13692931Y1041703D01*
G01X13729931Y1041703D01*
G01X13729931Y1074702D01*
G01X13692931Y1074702D01*
G01X13692931Y1097499D01*
G01X13697932Y1102500D01*
G01X13777932Y1102500D01*
G37*
G36*
G01X13538928Y1012503D02*
G01X13533930Y1017504D01*
G01X13533930Y1097504D01*
G01X13538928Y1102503D01*
G01X13618928Y1102503D01*
G01X13623930Y1097504D01*
G01X13623930Y1073300D01*
G01X13586929Y1073300D01*
G01X13586929Y1040301D01*
G01X13623930Y1040301D01*
G01X13623930Y1017504D01*
G01X13618928Y1012503D01*
G01X13538928Y1012503D01*
G37*
G36*
G01X10774502Y1102500D02*
G01X10779501Y1097499D01*
G01X10779501Y1017499D01*
G01X10774502Y1012500D01*
G01X10694502Y1012500D01*
G01X10689501Y1017499D01*
G01X10689501Y1041703D01*
G01X10726501Y1041703D01*
G01X10726501Y1074702D01*
G01X10689501Y1074702D01*
G01X10689501Y1097499D01*
G01X10694502Y1102500D01*
G01X10774502Y1102500D01*
G37*
G36*
G01X10535498Y1012503D02*
G01X10530499Y1017504D01*
G01X10530499Y1097504D01*
G01X10535498Y1102503D01*
G01X10615498Y1102503D01*
G01X10620499Y1097504D01*
G01X10620499Y1073300D01*
G01X10583499Y1073300D01*
G01X10583499Y1040301D01*
G01X10620499Y1040301D01*
G01X10620499Y1017504D01*
G01X10615498Y1012503D01*
G01X10535498Y1012503D01*
G37*
G36*
G01X12760434Y1524931D02*
G01X12765433Y1519930D01*
G01X12765433Y1439930D01*
G01X12760434Y1434931D01*
G01X12680434Y1434931D01*
G01X12675433Y1439930D01*
G01X12675433Y1464133D01*
G01X12712433Y1464133D01*
G01X12712433Y1497133D01*
G01X12675433Y1497133D01*
G01X12675433Y1519930D01*
G01X12680434Y1524931D01*
G01X12760434Y1524931D01*
G37*
G36*
G01X12521430Y1434934D02*
G01X12516432Y1439935D01*
G01X12516432Y1519935D01*
G01X12521430Y1524933D01*
G01X12601430Y1524933D01*
G01X12606431Y1519935D01*
G01X12606431Y1495731D01*
G01X12569431Y1495731D01*
G01X12569431Y1462731D01*
G01X12606431Y1462731D01*
G01X12606431Y1439935D01*
G01X12601430Y1434934D01*
G01X12521430Y1434934D01*
G37*
G36*
G01X8282498Y8575999D02*
G01X8282498Y8703998D01*
G01X8287499Y8708999D01*
G01X8402500Y8708999D01*
G01X8407499Y8703998D01*
G01X8408002Y8662994D01*
G01X8363001Y8662994D01*
G01X8363001Y8617996D01*
G01X8407001Y8617996D01*
G01X8407499Y8575999D01*
G01X8402500Y8570998D01*
G01X8287499Y8570998D01*
G01X8282498Y8575999D01*
G37*
G36*
G01X8497499Y8575999D02*
G01X8497501Y8617996D01*
G01X8541999Y8617996D01*
G01X8541999Y8662994D01*
G01X8498002Y8662994D01*
G01X8497499Y8703998D01*
G01X8502500Y8708999D01*
G01X8617498Y8708999D01*
G01X8622500Y8703998D01*
G01X8622500Y8575999D01*
G01X8617498Y8570998D01*
G01X8502500Y8570998D01*
G01X8497499Y8575999D01*
G37*
G36*
G01X10307995Y7855218D02*
G01X10302996Y7860219D01*
G01X10302996Y7940219D01*
G01X10307995Y7945218D01*
G01X10387995Y7945218D01*
G01X10392996Y7940219D01*
G01X10392996Y7916015D01*
G01X10355996Y7916015D01*
G01X10355996Y7883015D01*
G01X10392996Y7883015D01*
G01X10392996Y7860219D01*
G01X10387995Y7855218D01*
G01X10307995Y7855218D01*
G37*
G36*
G01X10546999Y7945215D02*
G01X10551997Y7940214D01*
G01X10551997Y7860214D01*
G01X10546999Y7855215D01*
G01X10466999Y7855215D01*
G01X10461998Y7860214D01*
G01X10461998Y7884418D01*
G01X10498998Y7884418D01*
G01X10498998Y7917417D01*
G01X10461998Y7917417D01*
G01X10461998Y7940214D01*
G01X10466999Y7945215D01*
G01X10546999Y7945215D01*
G37*
G36*
G01X12113840Y1012503D02*
G01X12108841Y1017504D01*
G01X12108841Y1097504D01*
G01X12113840Y1102503D01*
G01X12193839Y1102503D01*
G01X12198841Y1097504D01*
G01X12198841Y1073300D01*
G01X12161841Y1073300D01*
G01X12161841Y1040301D01*
G01X12198841Y1040301D01*
G01X12198841Y1017504D01*
G01X12193839Y1012503D01*
G01X12113840Y1012503D01*
G37*
G36*
G01X12352843Y1102500D02*
G01X12357842Y1097499D01*
G01X12357842Y1017499D01*
G01X12352843Y1012500D01*
G01X12272844Y1012500D01*
G01X12267842Y1017499D01*
G01X12267842Y1041703D01*
G01X12304843Y1041703D01*
G01X12304843Y1074702D01*
G01X12267842Y1074702D01*
G01X12267842Y1097499D01*
G01X12272844Y1102500D01*
G01X12352843Y1102500D01*
G37*
G36*
G01X10953839Y2070006D02*
G01X10948840Y2075007D01*
G01X10948840Y2155007D01*
G01X10953839Y2160006D01*
G01X11033839Y2160006D01*
G01X11038840Y2155007D01*
G01X11038840Y2130803D01*
G01X11001840Y2130803D01*
G01X11001840Y2097804D01*
G01X11038840Y2097804D01*
G01X11038840Y2075007D01*
G01X11033839Y2070006D01*
G01X10953839Y2070006D01*
G37*
G36*
G01X11192843Y2160003D02*
G01X11197842Y2155002D01*
G01X11197842Y2075002D01*
G01X11192843Y2070003D01*
G01X11112843Y2070003D01*
G01X11107842Y2075002D01*
G01X11107842Y2099206D01*
G01X11144842Y2099206D01*
G01X11144842Y2132206D01*
G01X11107842Y2132206D01*
G01X11107842Y2155002D01*
G01X11112843Y2160003D01*
G01X11192843Y2160003D01*
G37*
G36*
G01X10953839Y1815006D02*
G01X10948840Y1820007D01*
G01X10948840Y1900007D01*
G01X10953839Y1905006D01*
G01X11033839Y1905006D01*
G01X11038840Y1900007D01*
G01X11038840Y1875803D01*
G01X11001840Y1875803D01*
G01X11001840Y1842804D01*
G01X11038840Y1842804D01*
G01X11038840Y1820007D01*
G01X11033839Y1815006D01*
G01X10953839Y1815006D01*
G37*
G36*
G01X11192843Y1905003D02*
G01X11197842Y1900002D01*
G01X11197842Y1820002D01*
G01X11192843Y1815003D01*
G01X11112843Y1815003D01*
G01X11107842Y1820002D01*
G01X11107842Y1844206D01*
G01X11144842Y1844206D01*
G01X11144842Y1877206D01*
G01X11107842Y1877206D01*
G01X11107842Y1900002D01*
G01X11112843Y1905003D01*
G01X11192843Y1905003D01*
G37*
G36*
G01X10953839Y1560006D02*
G01X10948840Y1565007D01*
G01X10948840Y1645007D01*
G01X10953839Y1650006D01*
G01X11033839Y1650006D01*
G01X11038840Y1645007D01*
G01X11038840Y1620803D01*
G01X11001840Y1620803D01*
G01X11001840Y1587804D01*
G01X11038840Y1587804D01*
G01X11038840Y1565007D01*
G01X11033839Y1560006D01*
G01X10953839Y1560006D01*
G37*
G36*
G01X11192843Y1650003D02*
G01X11197842Y1645002D01*
G01X11197842Y1565002D01*
G01X11192843Y1560003D01*
G01X11112843Y1560003D01*
G01X11107842Y1565002D01*
G01X11107842Y1589206D01*
G01X11144842Y1589206D01*
G01X11144842Y1622205D01*
G01X11107842Y1622205D01*
G01X11107842Y1645002D01*
G01X11112843Y1650003D01*
G01X11192843Y1650003D01*
G37*
G36*
G01X13144020Y1523296D02*
G01X13149019Y1518295D01*
G01X13149019Y1438295D01*
G01X13144020Y1433296D01*
G01X13064021Y1433296D01*
G01X13059019Y1438295D01*
G01X13059019Y1462498D01*
G01X13096020Y1462498D01*
G01X13096020Y1495498D01*
G01X13059019Y1495498D01*
G01X13059019Y1518295D01*
G01X13064021Y1523296D01*
G01X13144020Y1523296D01*
G37*
G36*
G01X12905017Y1433299D02*
G01X12900018Y1438300D01*
G01X12900018Y1518300D01*
G01X12905017Y1523298D01*
G01X12985016Y1523298D01*
G01X12990018Y1518300D01*
G01X12990018Y1494096D01*
G01X12953018Y1494096D01*
G01X12953018Y1461096D01*
G01X12990018Y1461096D01*
G01X12990018Y1438300D01*
G01X12985016Y1433299D01*
G01X12905017Y1433299D01*
G37*
G36*
G01X13144020Y1773296D02*
G01X13149019Y1768295D01*
G01X13149019Y1688295D01*
G01X13144020Y1683296D01*
G01X13064021Y1683296D01*
G01X13059019Y1688295D01*
G01X13059019Y1712498D01*
G01X13096020Y1712498D01*
G01X13096020Y1745498D01*
G01X13059019Y1745498D01*
G01X13059019Y1768295D01*
G01X13064021Y1773296D01*
G01X13144020Y1773296D01*
G37*
G36*
G01X12905017Y1683299D02*
G01X12900018Y1688300D01*
G01X12900018Y1768300D01*
G01X12905017Y1773298D01*
G01X12985016Y1773298D01*
G01X12990018Y1768300D01*
G01X12990018Y1744096D01*
G01X12953018Y1744096D01*
G01X12953018Y1711096D01*
G01X12990018Y1711096D01*
G01X12990018Y1688300D01*
G01X12985016Y1683299D01*
G01X12905017Y1683299D01*
G37*
G36*
G01X12521430Y2090126D02*
G01X12516432Y2095127D01*
G01X12516432Y2175127D01*
G01X12521430Y2180126D01*
G01X12601430Y2180126D01*
G01X12606431Y2175127D01*
G01X12606431Y2150923D01*
G01X12569431Y2150923D01*
G01X12569431Y2117924D01*
G01X12606431Y2117924D01*
G01X12606431Y2095127D01*
G01X12601430Y2090126D01*
G01X12521430Y2090126D01*
G37*
G36*
G01X12760434Y2180123D02*
G01X12765433Y2175122D01*
G01X12765433Y2095122D01*
G01X12760434Y2090123D01*
G01X12680434Y2090123D01*
G01X12675433Y2095122D01*
G01X12675433Y2119326D01*
G01X12712433Y2119326D01*
G01X12712433Y2152325D01*
G01X12675433Y2152325D01*
G01X12675433Y2175122D01*
G01X12680434Y2180123D01*
G01X12760434Y2180123D01*
G37*
G36*
G01X9509998Y8575999D02*
G01X9509998Y8703998D01*
G01X9514999Y8708999D01*
G01X9630000Y8708999D01*
G01X9634999Y8703998D01*
G01X9635502Y8662994D01*
G01X9590501Y8662994D01*
G01X9590501Y8617996D01*
G01X9634501Y8617996D01*
G01X9634999Y8575999D01*
G01X9630000Y8570998D01*
G01X9514999Y8570998D01*
G01X9509998Y8575999D01*
G37*
G36*
G01X9724999Y8575999D02*
G01X9725001Y8617996D01*
G01X9769499Y8617996D01*
G01X9769499Y8662994D01*
G01X9725502Y8662994D01*
G01X9724999Y8703998D01*
G01X9730000Y8708999D01*
G01X9844998Y8708999D01*
G01X9850000Y8703998D01*
G01X9850000Y8575999D01*
G01X9844998Y8570998D01*
G01X9730000Y8570998D01*
G01X9724999Y8575999D01*
G37*
G36*
G01X11530495Y7855218D02*
G01X11525496Y7860219D01*
G01X11525496Y7940219D01*
G01X11530495Y7945218D01*
G01X11610495Y7945218D01*
G01X11615496Y7940219D01*
G01X11615496Y7916015D01*
G01X11578496Y7916015D01*
G01X11578496Y7883015D01*
G01X11615496Y7883015D01*
G01X11615496Y7860219D01*
G01X11610495Y7855218D01*
G01X11530495Y7855218D01*
G37*
G36*
G01X11769499Y7945215D02*
G01X11774497Y7940214D01*
G01X11774497Y7860214D01*
G01X11769499Y7855215D01*
G01X11689499Y7855215D01*
G01X11684498Y7860214D01*
G01X11684498Y7884418D01*
G01X11721498Y7884418D01*
G01X11721498Y7917417D01*
G01X11684498Y7917417D01*
G01X11684498Y7940214D01*
G01X11689499Y7945215D01*
G01X11769499Y7945215D01*
G37*
G36*
G01X10737498Y8575999D02*
G01X10737498Y8703998D01*
G01X10742499Y8708999D01*
G01X10857500Y8708999D01*
G01X10862499Y8703998D01*
G01X10863002Y8662994D01*
G01X10818001Y8662994D01*
G01X10818001Y8617996D01*
G01X10862001Y8617996D01*
G01X10862499Y8575999D01*
G01X10857500Y8570998D01*
G01X10742499Y8570998D01*
G01X10737498Y8575999D01*
G37*
G36*
G01X10952499Y8575999D02*
G01X10952501Y8617996D01*
G01X10997000Y8617996D01*
G01X10997000Y8662994D01*
G01X10953002Y8662994D01*
G01X10952499Y8703998D01*
G01X10957500Y8708999D01*
G01X11072499Y8708999D01*
G01X11077500Y8703998D01*
G01X11077500Y8575999D01*
G01X11072499Y8570998D01*
G01X10957500Y8570998D01*
G01X10952499Y8575999D01*
G37*
G36*
G01X12755495Y7855218D02*
G01X12750496Y7860219D01*
G01X12750496Y7940219D01*
G01X12755495Y7945218D01*
G01X12835495Y7945218D01*
G01X12840496Y7940219D01*
G01X12840496Y7916015D01*
G01X12803496Y7916015D01*
G01X12803496Y7883015D01*
G01X12840496Y7883015D01*
G01X12840496Y7860219D01*
G01X12835495Y7855218D01*
G01X12755495Y7855218D01*
G37*
G36*
G01X12994499Y7945215D02*
G01X12999497Y7940214D01*
G01X12999497Y7860214D01*
G01X12994499Y7855215D01*
G01X12914499Y7855215D01*
G01X12909497Y7860214D01*
G01X12909497Y7884418D01*
G01X12946498Y7884418D01*
G01X12946498Y7917417D01*
G01X12909497Y7917417D01*
G01X12909497Y7940214D01*
G01X12914499Y7945215D01*
G01X12994499Y7945215D01*
G37*
G36*
G01X3219502Y1084999D02*
G01X3224501Y1079997D01*
G01X3224501Y999997D01*
G01X3219502Y994999D01*
G01X3139502Y994999D01*
G01X3134501Y999997D01*
G01X3134501Y1024201D01*
G01X3171501Y1024201D01*
G01X3171501Y1057201D01*
G01X3134501Y1057201D01*
G01X3134501Y1079997D01*
G01X3139502Y1084999D01*
G01X3219502Y1084999D01*
G37*
G36*
G01X2980498Y995001D02*
G01X2975499Y1000003D01*
G01X2975499Y1080002D01*
G01X2980498Y1085001D01*
G01X3060498Y1085001D01*
G01X3065499Y1080002D01*
G01X3065499Y1055799D01*
G01X3028499Y1055799D01*
G01X3028499Y1022799D01*
G01X3065499Y1022799D01*
G01X3065499Y1000003D01*
G01X3060498Y995001D01*
G01X2980498Y995001D01*
G37*
G36*
G01X11962498Y8575999D02*
G01X11962498Y8703998D01*
G01X11967499Y8708999D01*
G01X12082500Y8708999D01*
G01X12087499Y8703998D01*
G01X12088002Y8662994D01*
G01X12043001Y8662994D01*
G01X12043001Y8617996D01*
G01X12087001Y8617996D01*
G01X12087499Y8575999D01*
G01X12082500Y8570998D01*
G01X11967499Y8570998D01*
G01X11962498Y8575999D01*
G37*
G36*
G01X12177499Y8575999D02*
G01X12177501Y8617996D01*
G01X12221999Y8617996D01*
G01X12221999Y8662994D01*
G01X12178002Y8662994D01*
G01X12177499Y8703998D01*
G01X12182500Y8708999D01*
G01X12297498Y8708999D01*
G01X12302500Y8703998D01*
G01X12302500Y8575999D01*
G01X12297498Y8570998D01*
G01X12182500Y8570998D01*
G01X12177499Y8575999D01*
G37*
G36*
G01X5304502Y1089999D02*
G01X5309501Y1084997D01*
G01X5309501Y1004997D01*
G01X5304502Y999999D01*
G01X5224502Y999999D01*
G01X5219501Y1004997D01*
G01X5219501Y1029201D01*
G01X5256501Y1029201D01*
G01X5256501Y1062201D01*
G01X5219501Y1062201D01*
G01X5219501Y1084997D01*
G01X5224502Y1089999D01*
G01X5304502Y1089999D01*
G37*
G36*
G01X5065498Y1000001D02*
G01X5060499Y1005003D01*
G01X5060499Y1085002D01*
G01X5065498Y1090001D01*
G01X5145498Y1090001D01*
G01X5150499Y1085002D01*
G01X5150499Y1060799D01*
G01X5113499Y1060799D01*
G01X5113499Y1027799D01*
G01X5150499Y1027799D01*
G01X5150499Y1005003D01*
G01X5145498Y1000001D01*
G01X5065498Y1000001D01*
G37*
G36*
G01X704510Y4889915D02*
G01X704510Y4919915D01*
G01X704510Y4919917D01*
G01X704510Y4949917D01*
G01X834507Y4949917D01*
G01X834507Y4919917D01*
G01X834507Y4919915D01*
G01X834507Y4889915D01*
G01X704510Y4889915D01*
G37*
G36*
G01X704525Y5299922D02*
G01X704525Y5329922D01*
G01X834527Y5329922D01*
G01X834527Y5299922D01*
G01X704525Y5299922D01*
G37*
G36*
G01X704525Y5529914D02*
G01X704525Y5559911D01*
G01X704510Y5559911D01*
G01X704510Y5589911D01*
G01X834512Y5589911D01*
G01X834512Y5559913D01*
G01X834527Y5559913D01*
G01X834527Y5529914D01*
G01X704525Y5529914D01*
G37*
G36*
G01X704525Y5199922D02*
G01X704525Y5229922D01*
G01X834527Y5229922D01*
G01X834527Y5199922D01*
G01X704525Y5199922D01*
G37*
G36*
G01X704522Y5049909D02*
G01X704522Y5079909D01*
G01X834525Y5079909D01*
G01X834525Y5049909D01*
G01X704522Y5049909D01*
G37*
G36*
G01X834525Y5379909D02*
G01X834525Y5349909D01*
G01X704522Y5349909D01*
G01X704522Y5379909D01*
G01X834525Y5379909D01*
G37*
G36*
G01X704522Y5099947D02*
G01X704522Y5129947D01*
G01X834525Y5129947D01*
G01X834525Y5099947D01*
G01X704522Y5099947D01*
G37*
G36*
G01X704522Y5149909D02*
G01X704522Y5179909D01*
G01X834525Y5179909D01*
G01X834525Y5149909D01*
G01X704522Y5149909D01*
G37*
G36*
G01X704522Y5399921D02*
G01X704522Y5429921D01*
G01X834525Y5429921D01*
G01X834525Y5399921D01*
G01X704522Y5399921D01*
G37*
G36*
G01X704522Y5249909D02*
G01X704522Y5279909D01*
G01X834525Y5279909D01*
G01X834525Y5249909D01*
G01X704522Y5249909D01*
G37*
G36*
G01X704515Y5449914D02*
G01X704515Y5479909D01*
G01X704512Y5479909D01*
G01X704512Y5509911D01*
G01X834509Y5509911D01*
G01X834509Y5479916D01*
G01X834512Y5479916D01*
G01X834512Y5449914D01*
G01X704515Y5449914D01*
G37*
G36*
G01X792516Y5667945D02*
G01X792218Y5664968D01*
G01X791771Y5662009D01*
G01X791180Y5659078D01*
G01X790440Y5656177D01*
G01X789559Y5653319D01*
G01X788535Y5650508D01*
G01X787375Y5647752D01*
G01X786077Y5645054D01*
G01X784644Y5642428D01*
G01X783085Y5639875D01*
G01X781401Y5637404D01*
G01X779592Y5635019D01*
G01X777669Y5632728D01*
G01X775635Y5630533D01*
G01X773494Y5628445D01*
G01X771251Y5626464D01*
G01X768911Y5624600D01*
G01X766483Y5622855D01*
G01X763969Y5621232D01*
G01X761378Y5619736D01*
G01X758716Y5618369D01*
G01X755990Y5617140D01*
G01X753204Y5616047D01*
G01X750369Y5615092D01*
G01X747489Y5614282D01*
G01X744573Y5613617D01*
G01X741627Y5613099D01*
G01X738657Y5612725D01*
G01X735673Y5612502D01*
G01X732683Y5612428D01*
G01X652683Y5612428D01*
G01X649694Y5612502D01*
G01X646709Y5612725D01*
G01X643740Y5613099D01*
G01X640794Y5613617D01*
G01X637878Y5614282D01*
G01X634997Y5615092D01*
G01X632163Y5616047D01*
G01X629376Y5617140D01*
G01X626651Y5618369D01*
G01X623989Y5619736D01*
G01X621398Y5621232D01*
G01X618884Y5622855D01*
G01X616455Y5624600D01*
G01X614116Y5626464D01*
G01X611873Y5628445D01*
G01X609732Y5630533D01*
G01X607698Y5632728D01*
G01X605775Y5635019D01*
G01X603966Y5637404D01*
G01X602282Y5639875D01*
G01X600723Y5642428D01*
G01X599290Y5645054D01*
G01X597992Y5647752D01*
G01X596831Y5650508D01*
G01X595808Y5653319D01*
G01X594926Y5656177D01*
G01X594187Y5659078D01*
G01X593595Y5662009D01*
G01X593148Y5664968D01*
G01X592851Y5667945D01*
G01X592701Y5670932D01*
G01X592701Y5673924D01*
G01X592851Y5676911D01*
G01X593148Y5679888D01*
G01X593595Y5682847D01*
G01X594187Y5685778D01*
G01X594926Y5688679D01*
G01X595808Y5691536D01*
G01X596831Y5694348D01*
G01X597992Y5697104D01*
G01X599290Y5699801D01*
G01X600723Y5702428D01*
G01X602282Y5704980D01*
G01X603966Y5707452D01*
G01X605775Y5709837D01*
G01X607698Y5712128D01*
G01X609732Y5714323D01*
G01X611873Y5716410D01*
G01X614116Y5718392D01*
G01X616455Y5720256D01*
G01X618884Y5722001D01*
G01X621398Y5723624D01*
G01X623989Y5725120D01*
G01X626651Y5726487D01*
G01X629376Y5727716D01*
G01X632163Y5728808D01*
G01X634997Y5729763D01*
G01X637878Y5730574D01*
G01X640794Y5731239D01*
G01X643740Y5731757D01*
G01X646709Y5732131D01*
G01X649694Y5732354D01*
G01X652683Y5732428D01*
G01X732683Y5732428D01*
G01X735673Y5732354D01*
G01X738657Y5732131D01*
G01X741627Y5731757D01*
G01X744573Y5731239D01*
G01X747489Y5730574D01*
G01X750369Y5729763D01*
G01X753204Y5728808D01*
G01X755990Y5727716D01*
G01X758716Y5726487D01*
G01X761378Y5725120D01*
G01X763969Y5723624D01*
G01X766483Y5722001D01*
G01X768911Y5720256D01*
G01X771251Y5718392D01*
G01X773494Y5716410D01*
G01X775635Y5714323D01*
G01X777669Y5712128D01*
G01X779592Y5709837D01*
G01X781401Y5707452D01*
G01X783085Y5704980D01*
G01X784644Y5702428D01*
G01X786077Y5699801D01*
G01X787375Y5697104D01*
G01X788535Y5694348D01*
G01X789559Y5691536D01*
G01X790440Y5688679D01*
G01X791180Y5685778D01*
G01X791771Y5682847D01*
G01X792218Y5679888D01*
G01X792516Y5676911D01*
G01X792665Y5673924D01*
G01X792665Y5670932D01*
G01X792516Y5667945D01*
G37*
G36*
G01X792516Y4802922D02*
G01X792218Y4799945D01*
G01X791771Y4796986D01*
G01X791180Y4794055D01*
G01X790440Y4791155D01*
G01X789559Y4788297D01*
G01X788535Y4785485D01*
G01X787375Y4782729D01*
G01X786077Y4780032D01*
G01X784644Y4777405D01*
G01X783085Y4774853D01*
G01X781401Y4772381D01*
G01X779592Y4769996D01*
G01X777669Y4767705D01*
G01X775635Y4765511D01*
G01X773494Y4763423D01*
G01X771251Y4761442D01*
G01X768911Y4759577D01*
G01X766483Y4757832D01*
G01X763969Y4756209D01*
G01X761378Y4754713D01*
G01X758716Y4753347D01*
G01X755990Y4752117D01*
G01X753204Y4751025D01*
G01X750369Y4750070D01*
G01X747489Y4749260D01*
G01X744573Y4748594D01*
G01X741627Y4748076D01*
G01X738657Y4747703D01*
G01X735673Y4747479D01*
G01X732683Y4747406D01*
G01X652683Y4747406D01*
G01X649694Y4747479D01*
G01X646709Y4747703D01*
G01X643740Y4748076D01*
G01X640794Y4748594D01*
G01X637878Y4749260D01*
G01X634997Y4750070D01*
G01X632163Y4751025D01*
G01X629376Y4752117D01*
G01X626651Y4753347D01*
G01X623989Y4754713D01*
G01X621398Y4756209D01*
G01X618884Y4757832D01*
G01X616455Y4759577D01*
G01X614116Y4761442D01*
G01X611873Y4763423D01*
G01X609732Y4765511D01*
G01X607698Y4767705D01*
G01X605775Y4769996D01*
G01X603966Y4772381D01*
G01X602282Y4774853D01*
G01X600723Y4777405D01*
G01X599290Y4780032D01*
G01X597992Y4782729D01*
G01X596831Y4785485D01*
G01X595808Y4788297D01*
G01X594926Y4791155D01*
G01X594187Y4794055D01*
G01X593595Y4796986D01*
G01X593148Y4799945D01*
G01X592851Y4802922D01*
G01X592701Y4805909D01*
G01X592701Y4808901D01*
G01X592851Y4811889D01*
G01X593148Y4814865D01*
G01X593595Y4817825D01*
G01X594187Y4820756D01*
G01X594926Y4823656D01*
G01X595808Y4826514D01*
G01X596831Y4829326D01*
G01X597992Y4832082D01*
G01X599290Y4834779D01*
G01X600723Y4837405D01*
G01X602282Y4839958D01*
G01X603966Y4842429D01*
G01X605775Y4844815D01*
G01X607698Y4847106D01*
G01X609732Y4849300D01*
G01X611873Y4851388D01*
G01X614116Y4853369D01*
G01X616455Y4855234D01*
G01X618884Y4856979D01*
G01X621398Y4858602D01*
G01X623989Y4860098D01*
G01X626651Y4861464D01*
G01X629376Y4862694D01*
G01X632163Y4863786D01*
G01X634997Y4864741D01*
G01X637878Y4865551D01*
G01X640794Y4866217D01*
G01X643740Y4866735D01*
G01X646709Y4867108D01*
G01X649694Y4867332D01*
G01X652683Y4867405D01*
G01X732683Y4867405D01*
G01X735673Y4867332D01*
G01X738657Y4867108D01*
G01X741627Y4866735D01*
G01X744573Y4866217D01*
G01X747489Y4865551D01*
G01X750369Y4864741D01*
G01X753204Y4863786D01*
G01X755990Y4862694D01*
G01X758716Y4861464D01*
G01X761378Y4860098D01*
G01X763969Y4858602D01*
G01X766483Y4856979D01*
G01X768911Y4855234D01*
G01X771251Y4853369D01*
G01X773494Y4851388D01*
G01X775635Y4849300D01*
G01X777669Y4847106D01*
G01X779592Y4844815D01*
G01X781401Y4842429D01*
G01X783085Y4839958D01*
G01X784644Y4837405D01*
G01X786077Y4834779D01*
G01X787375Y4832082D01*
G01X788535Y4829326D01*
G01X789559Y4826514D01*
G01X790440Y4823656D01*
G01X791180Y4820756D01*
G01X791771Y4817825D01*
G01X792218Y4814865D01*
G01X792516Y4811889D01*
G01X792665Y4808901D01*
G01X792665Y4805909D01*
G01X792516Y4802922D01*
G37*
G36*
G01X364675Y5673924D02*
G01X364675Y5670932D01*
G01X364526Y5667945D01*
G01X364228Y5664968D01*
G01X363781Y5662009D01*
G01X363190Y5659078D01*
G01X362450Y5656177D01*
G01X361569Y5653319D01*
G01X360545Y5650508D01*
G01X359385Y5647752D01*
G01X358087Y5645054D01*
G01X356654Y5642428D01*
G01X355095Y5639875D01*
G01X353411Y5637404D01*
G01X351602Y5635019D01*
G01X349679Y5632728D01*
G01X347645Y5630533D01*
G01X345504Y5628445D01*
G01X343261Y5626464D01*
G01X340921Y5624600D01*
G01X338493Y5622855D01*
G01X335979Y5621232D01*
G01X333388Y5619736D01*
G01X330726Y5618369D01*
G01X328000Y5617140D01*
G01X325214Y5616047D01*
G01X322379Y5615092D01*
G01X319499Y5614282D01*
G01X316583Y5613617D01*
G01X313637Y5613099D01*
G01X310667Y5612725D01*
G01X307683Y5612502D01*
G01X304693Y5612428D01*
G01X244693Y5612428D01*
G01X241704Y5612502D01*
G01X238719Y5612725D01*
G01X235750Y5613099D01*
G01X232804Y5613617D01*
G01X229888Y5614282D01*
G01X227007Y5615092D01*
G01X224173Y5616047D01*
G01X221386Y5617140D01*
G01X218661Y5618369D01*
G01X215999Y5619736D01*
G01X213408Y5621232D01*
G01X210894Y5622855D01*
G01X208465Y5624600D01*
G01X206126Y5626464D01*
G01X203883Y5628445D01*
G01X201742Y5630533D01*
G01X199708Y5632728D01*
G01X197785Y5635019D01*
G01X195976Y5637404D01*
G01X194292Y5639875D01*
G01X192733Y5642428D01*
G01X191300Y5645054D01*
G01X190002Y5647752D01*
G01X188841Y5650508D01*
G01X187818Y5653319D01*
G01X186936Y5656177D01*
G01X186197Y5659078D01*
G01X185605Y5662009D01*
G01X185158Y5664968D01*
G01X184861Y5667945D01*
G01X184711Y5670932D01*
G01X184711Y5673924D01*
G01X184861Y5676911D01*
G01X185158Y5679888D01*
G01X185605Y5682847D01*
G01X186197Y5685778D01*
G01X186936Y5688679D01*
G01X187818Y5691536D01*
G01X188841Y5694348D01*
G01X190002Y5697104D01*
G01X191300Y5699801D01*
G01X192733Y5702428D01*
G01X194292Y5704980D01*
G01X195976Y5707452D01*
G01X197785Y5709837D01*
G01X199708Y5712128D01*
G01X201742Y5714323D01*
G01X203883Y5716410D01*
G01X206126Y5718392D01*
G01X208465Y5720256D01*
G01X210894Y5722001D01*
G01X213408Y5723624D01*
G01X215999Y5725120D01*
G01X218661Y5726487D01*
G01X221386Y5727716D01*
G01X224173Y5728808D01*
G01X227007Y5729763D01*
G01X229888Y5730574D01*
G01X232804Y5731239D01*
G01X235750Y5731757D01*
G01X238719Y5732131D01*
G01X241704Y5732354D01*
G01X244693Y5732428D01*
G01X304693Y5732428D01*
G01X307683Y5732354D01*
G01X310667Y5732131D01*
G01X313637Y5731757D01*
G01X316583Y5731239D01*
G01X319499Y5730574D01*
G01X322379Y5729763D01*
G01X325214Y5728808D01*
G01X328000Y5727716D01*
G01X330726Y5726487D01*
G01X333388Y5725120D01*
G01X335979Y5723624D01*
G01X338493Y5722001D01*
G01X340921Y5720256D01*
G01X343261Y5718392D01*
G01X345504Y5716410D01*
G01X347645Y5714323D01*
G01X349679Y5712128D01*
G01X351602Y5709837D01*
G01X353411Y5707452D01*
G01X355095Y5704980D01*
G01X356654Y5702428D01*
G01X358087Y5699801D01*
G01X359385Y5697104D01*
G01X360545Y5694348D01*
G01X361569Y5691536D01*
G01X362450Y5688679D01*
G01X363190Y5685778D01*
G01X363781Y5682847D01*
G01X364228Y5679888D01*
G01X364526Y5676911D01*
G01X364675Y5673924D01*
G37*
G36*
G01X364526Y4802922D02*
G01X364228Y4799945D01*
G01X363781Y4796986D01*
G01X363190Y4794055D01*
G01X362450Y4791155D01*
G01X361569Y4788297D01*
G01X360545Y4785485D01*
G01X359385Y4782729D01*
G01X358087Y4780032D01*
G01X356654Y4777405D01*
G01X355095Y4774853D01*
G01X353411Y4772381D01*
G01X351602Y4769996D01*
G01X349679Y4767705D01*
G01X347645Y4765511D01*
G01X345504Y4763423D01*
G01X343261Y4761442D01*
G01X340921Y4759577D01*
G01X338493Y4757832D01*
G01X335979Y4756209D01*
G01X333388Y4754713D01*
G01X330726Y4753347D01*
G01X328000Y4752117D01*
G01X325214Y4751025D01*
G01X322379Y4750070D01*
G01X319499Y4749260D01*
G01X316583Y4748594D01*
G01X313637Y4748076D01*
G01X310667Y4747703D01*
G01X307683Y4747479D01*
G01X304693Y4747406D01*
G01X244693Y4747406D01*
G01X241704Y4747479D01*
G01X238719Y4747703D01*
G01X235750Y4748076D01*
G01X232804Y4748594D01*
G01X229888Y4749260D01*
G01X227007Y4750070D01*
G01X224173Y4751025D01*
G01X221386Y4752117D01*
G01X218661Y4753347D01*
G01X215999Y4754713D01*
G01X213408Y4756209D01*
G01X210894Y4757832D01*
G01X208465Y4759577D01*
G01X206126Y4761442D01*
G01X203883Y4763423D01*
G01X201742Y4765511D01*
G01X199708Y4767705D01*
G01X197785Y4769996D01*
G01X195976Y4772381D01*
G01X194292Y4774853D01*
G01X192733Y4777405D01*
G01X191300Y4780032D01*
G01X190002Y4782729D01*
G01X188841Y4785485D01*
G01X187818Y4788297D01*
G01X186936Y4791155D01*
G01X186197Y4794055D01*
G01X185605Y4796986D01*
G01X185158Y4799945D01*
G01X184861Y4802922D01*
G01X184711Y4805909D01*
G01X184711Y4808901D01*
G01X184861Y4811889D01*
G01X185158Y4814865D01*
G01X185605Y4817825D01*
G01X186197Y4820756D01*
G01X186936Y4823656D01*
G01X187818Y4826514D01*
G01X188841Y4829326D01*
G01X190002Y4832082D01*
G01X191300Y4834779D01*
G01X192733Y4837405D01*
G01X194292Y4839958D01*
G01X195976Y4842429D01*
G01X197785Y4844815D01*
G01X199708Y4847106D01*
G01X201742Y4849300D01*
G01X203883Y4851388D01*
G01X206126Y4853369D01*
G01X208465Y4855234D01*
G01X210894Y4856979D01*
G01X213408Y4858602D01*
G01X215999Y4860098D01*
G01X218661Y4861464D01*
G01X221386Y4862694D01*
G01X224173Y4863786D01*
G01X227007Y4864741D01*
G01X229888Y4865551D01*
G01X232804Y4866217D01*
G01X235750Y4866735D01*
G01X238719Y4867108D01*
G01X241704Y4867332D01*
G01X244693Y4867405D01*
G01X304693Y4867405D01*
G01X307683Y4867332D01*
G01X310667Y4867108D01*
G01X313637Y4866735D01*
G01X316583Y4866217D01*
G01X319499Y4865551D01*
G01X322379Y4864741D01*
G01X325214Y4863786D01*
G01X328000Y4862694D01*
G01X330726Y4861464D01*
G01X333388Y4860098D01*
G01X335979Y4858602D01*
G01X338493Y4856979D01*
G01X340921Y4855234D01*
G01X343261Y4853369D01*
G01X345504Y4851388D01*
G01X347645Y4849300D01*
G01X349679Y4847106D01*
G01X351602Y4844815D01*
G01X353411Y4842429D01*
G01X355095Y4839958D01*
G01X356654Y4837405D01*
G01X358087Y4834779D01*
G01X359385Y4832082D01*
G01X360545Y4829326D01*
G01X361569Y4826514D01*
G01X362450Y4823656D01*
G01X363190Y4820756D01*
G01X363781Y4817825D01*
G01X364228Y4814865D01*
G01X364526Y4811889D01*
G01X364675Y4808901D01*
G01X364675Y4805909D01*
G01X364526Y4802922D01*
G37*
G36*
G01X704530Y4969899D02*
G01X704530Y4999899D01*
G01X704530Y4999902D01*
G01X704530Y5029902D01*
G01X834527Y5029902D01*
G01X834527Y4999902D01*
G01X834527Y4999899D01*
G01X834527Y4969899D01*
G01X704530Y4969899D01*
G37*
G36*
G01X13463599Y3441515D02*
G01X13500625Y3441515D01*
G01X13510625Y3431515D01*
G01X13510625Y3401025D01*
G01X13520625Y3391025D01*
G01X13559375Y3391025D01*
G01X13569375Y3401025D01*
G01X13569375Y3431515D01*
G01X13579375Y3441515D01*
G01X13616401Y3441515D01*
G01X13626401Y3431515D01*
G01X13626401Y3303016D01*
G01X13616401Y3293016D01*
G01X13463599Y3293016D01*
G01X13453599Y3303016D01*
G01X13453599Y3431515D01*
G01X13463599Y3441515D01*
G37*
G36*
G01X13463599Y3611517D02*
G01X13453599Y3621517D01*
G01X13453599Y3750016D01*
G01X13463599Y3760016D01*
G01X13616401Y3760016D01*
G01X13626401Y3750016D01*
G01X13626401Y3621517D01*
G01X13616401Y3611517D01*
G01X13579375Y3611517D01*
G01X13569375Y3621517D01*
G01X13569375Y3652007D01*
G01X13559375Y3662007D01*
G01X13520625Y3662007D01*
G01X13510625Y3652007D01*
G01X13510625Y3621517D01*
G01X13500625Y3611517D01*
G01X13463599Y3611517D01*
G37*
G36*
G01X11874188Y3535066D02*
G01X11879187Y3530064D01*
G01X11879187Y3450064D01*
G01X11874188Y3445066D01*
G01X11794188Y3445066D01*
G01X11789187Y3450064D01*
G01X11789187Y3474268D01*
G01X11826187Y3474268D01*
G01X11826187Y3507268D01*
G01X11789187Y3507268D01*
G01X11789187Y3530064D01*
G01X11794188Y3535066D01*
G01X11874188Y3535066D01*
G37*
G36*
G01X11635184Y3445068D02*
G01X11630185Y3450070D01*
G01X11630185Y3530069D01*
G01X11635184Y3535068D01*
G01X11715184Y3535068D01*
G01X11720185Y3530069D01*
G01X11720185Y3505866D01*
G01X11683185Y3505866D01*
G01X11683185Y3472866D01*
G01X11720185Y3472866D01*
G01X11720185Y3450070D01*
G01X11715184Y3445068D01*
G01X11635184Y3445068D01*
G37*
G36*
G01X12361502Y3535066D02*
G01X12366501Y3530064D01*
G01X12366501Y3450064D01*
G01X12361502Y3445066D01*
G01X12281502Y3445066D01*
G01X12276501Y3450064D01*
G01X12276501Y3474268D01*
G01X12313501Y3474268D01*
G01X12313501Y3507268D01*
G01X12276501Y3507268D01*
G01X12276501Y3530064D01*
G01X12281502Y3535066D01*
G01X12361502Y3535066D01*
G37*
G36*
G01X12122498Y3445068D02*
G01X12117499Y3450070D01*
G01X12117499Y3530069D01*
G01X12122498Y3535068D01*
G01X12202498Y3535068D01*
G01X12207499Y3530069D01*
G01X12207499Y3505866D01*
G01X12170499Y3505866D01*
G01X12170499Y3472866D01*
G01X12207499Y3472866D01*
G01X12207499Y3450070D01*
G01X12202498Y3445068D01*
G01X12122498Y3445068D01*
G37*
G36*
G01X12563999Y3868825D02*
G01X12558997Y3863826D01*
G01X12478998Y3863826D01*
G01X12473999Y3868825D01*
G01X12473999Y3948825D01*
G01X12478998Y3953826D01*
G01X12503201Y3953826D01*
G01X12503201Y3916826D01*
G01X12536201Y3916826D01*
G01X12536201Y3953826D01*
G01X12558997Y3953826D01*
G01X12563999Y3948825D01*
G01X12563999Y3868825D01*
G37*
G36*
G01X12474001Y4107829D02*
G01X12479003Y4112828D01*
G01X12559003Y4112828D01*
G01X12564001Y4107829D01*
G01X12564001Y4027829D01*
G01X12559003Y4022828D01*
G01X12534799Y4022828D01*
G01X12534799Y4059828D01*
G01X12501799Y4059828D01*
G01X12501799Y4022828D01*
G01X12479003Y4022828D01*
G01X12474001Y4027829D01*
G01X12474001Y4107829D01*
G37*
G36*
G01X12886498Y4016001D02*
G01X12881499Y4021003D01*
G01X12881499Y4101002D01*
G01X12886498Y4106001D01*
G01X12966498Y4106001D01*
G01X12971499Y4101002D01*
G01X12971499Y4076799D01*
G01X12934499Y4076799D01*
G01X12934499Y4043799D01*
G01X12971499Y4043799D01*
G01X12971499Y4021003D01*
G01X12966498Y4016001D01*
G01X12886498Y4016001D01*
G37*
G36*
G01X13125502Y4105999D02*
G01X13130501Y4100997D01*
G01X13130501Y4020998D01*
G01X13125502Y4015999D01*
G01X13045502Y4015999D01*
G01X13040501Y4020998D01*
G01X13040501Y4045201D01*
G01X13077501Y4045201D01*
G01X13077501Y4078201D01*
G01X13040501Y4078201D01*
G01X13040501Y4100997D01*
G01X13045502Y4105999D01*
G01X13125502Y4105999D01*
G37*
G36*
G01X11566335Y4054834D02*
G01X11561334Y4049836D01*
G01X11481334Y4049836D01*
G01X11476335Y4054834D01*
G01X11476335Y4134834D01*
G01X11481334Y4139836D01*
G01X11505538Y4139836D01*
G01X11505538Y4102835D01*
G01X11538537Y4102835D01*
G01X11538537Y4139836D01*
G01X11561334Y4139836D01*
G01X11566335Y4134834D01*
G01X11566335Y4054834D01*
G37*
G36*
G01X11476338Y4293838D02*
G01X11481339Y4298837D01*
G01X11561339Y4298837D01*
G01X11566338Y4293838D01*
G01X11566338Y4213838D01*
G01X11561339Y4208837D01*
G01X11537135Y4208837D01*
G01X11537135Y4245837D01*
G01X11504135Y4245837D01*
G01X11504135Y4208837D01*
G01X11481339Y4208837D01*
G01X11476338Y4213838D01*
G01X11476338Y4293838D01*
G37*
G36*
G01X12715335Y3868162D02*
G01X12710334Y3863163D01*
G01X12630334Y3863163D01*
G01X12625335Y3868162D01*
G01X12625335Y3948162D01*
G01X12630334Y3953163D01*
G01X12654538Y3953163D01*
G01X12654538Y3916163D01*
G01X12687537Y3916163D01*
G01X12687537Y3953163D01*
G01X12710334Y3953163D01*
G01X12715335Y3948162D01*
G01X12715335Y3868162D01*
G37*
G36*
G01X12625338Y4107166D02*
G01X12630339Y4112164D01*
G01X12710339Y4112164D01*
G01X12715338Y4107166D01*
G01X12715338Y4027166D01*
G01X12710339Y4022164D01*
G01X12686135Y4022164D01*
G01X12686135Y4059165D01*
G01X12653136Y4059165D01*
G01X12653136Y4022164D01*
G01X12630339Y4022164D01*
G01X12625338Y4027166D01*
G01X12625338Y4107166D01*
G37*
G36*
G01X8400877Y5033498D02*
G01X8395876Y5028499D01*
G01X8315876Y5028499D01*
G01X8310877Y5033498D01*
G01X8310877Y5113498D01*
G01X8315876Y5118499D01*
G01X8340080Y5118499D01*
G01X8340080Y5081499D01*
G01X8373080Y5081499D01*
G01X8373080Y5118499D01*
G01X8395876Y5118499D01*
G01X8400877Y5113498D01*
G01X8400877Y5033498D01*
G37*
G36*
G01X8310880Y5272502D02*
G01X8315881Y5277501D01*
G01X8395881Y5277501D01*
G01X8400880Y5272502D01*
G01X8400880Y5192502D01*
G01X8395881Y5187501D01*
G01X8371677Y5187501D01*
G01X8371677Y5224501D01*
G01X8338678Y5224501D01*
G01X8338678Y5187501D01*
G01X8315881Y5187501D01*
G01X8310880Y5192502D01*
G01X8310880Y5272502D01*
G37*
G36*
G01X8484001Y5272502D02*
G01X8489003Y5277501D01*
G01X8569002Y5277501D01*
G01X8574001Y5272502D01*
G01X8574001Y5192502D01*
G01X8569002Y5187501D01*
G01X8544799Y5187501D01*
G01X8544799Y5224501D01*
G01X8511799Y5224501D01*
G01X8511799Y5187501D01*
G01X8489003Y5187501D01*
G01X8484001Y5192502D01*
G01X8484001Y5272502D01*
G37*
G36*
G01X8573999Y5033498D02*
G01X8568997Y5028499D01*
G01X8488998Y5028499D01*
G01X8483999Y5033498D01*
G01X8483999Y5113498D01*
G01X8488998Y5118499D01*
G01X8513201Y5118499D01*
G01X8513201Y5081499D01*
G01X8546201Y5081499D01*
G01X8546201Y5118499D01*
G01X8568997Y5118499D01*
G01X8573999Y5113498D01*
G01X8573999Y5033498D01*
G37*
G36*
G01X9010562Y5272502D02*
G01X9015563Y5277501D01*
G01X9095563Y5277501D01*
G01X9100562Y5272502D01*
G01X9100562Y5192502D01*
G01X9095563Y5187501D01*
G01X9071360Y5187501D01*
G01X9071360Y5224501D01*
G01X9038360Y5224501D01*
G01X9038360Y5187501D01*
G01X9015563Y5187501D01*
G01X9010562Y5192502D01*
G01X9010562Y5272502D01*
G37*
G36*
G01X9100559Y5033498D02*
G01X9095558Y5028499D01*
G01X9015558Y5028499D01*
G01X9010560Y5033498D01*
G01X9010560Y5113498D01*
G01X9015558Y5118499D01*
G01X9039762Y5118499D01*
G01X9039762Y5081499D01*
G01X9072762Y5081499D01*
G01X9072762Y5118499D01*
G01X9095558Y5118499D01*
G01X9100559Y5113498D01*
G01X9100559Y5033498D01*
G37*
G36*
G01X8927438Y5033498D02*
G01X8922437Y5028499D01*
G01X8842437Y5028499D01*
G01X8837438Y5033498D01*
G01X8837438Y5113498D01*
G01X8842437Y5118499D01*
G01X8866641Y5118499D01*
G01X8866641Y5081499D01*
G01X8899640Y5081499D01*
G01X8899640Y5118499D01*
G01X8922437Y5118499D01*
G01X8927438Y5113498D01*
G01X8927438Y5033498D01*
G37*
G36*
G01X8837441Y5272502D02*
G01X8842442Y5277501D01*
G01X8922442Y5277501D01*
G01X8927441Y5272502D01*
G01X8927441Y5192502D01*
G01X8922442Y5187501D01*
G01X8898238Y5187501D01*
G01X8898238Y5224501D01*
G01X8865239Y5224501D01*
G01X8865239Y5187501D01*
G01X8842442Y5187501D01*
G01X8837441Y5192502D01*
G01X8837441Y5272502D01*
G37*
G36*
G01X4498489Y5237001D02*
G01X4498489Y5283001D01*
G01X4502489Y5287001D01*
G01X4552552Y5287001D01*
G01X4556553Y5283001D01*
G01X4556553Y5237001D01*
G01X4552552Y5233001D01*
G01X4502489Y5233001D01*
G01X4498489Y5237001D01*
G37*
G36*
G01X4471488Y5237001D02*
G01X4467488Y5233001D01*
G01X4417424Y5233001D01*
G01X4413424Y5237001D01*
G01X4413424Y5283001D01*
G01X4417424Y5287001D01*
G01X4467488Y5287001D01*
G01X4471488Y5283001D01*
G01X4471488Y5237001D01*
G37*
G36*
G01X4498502Y5137001D02*
G01X4498502Y5183001D01*
G01X4502502Y5187001D01*
G01X4552566Y5187001D01*
G01X4556566Y5183001D01*
G01X4556566Y5137001D01*
G01X4552566Y5133001D01*
G01X4502502Y5133001D01*
G01X4498502Y5137001D01*
G37*
G36*
G01X4471502Y5137001D02*
G01X4467501Y5133001D01*
G01X4417438Y5133001D01*
G01X4413437Y5137001D01*
G01X4413437Y5183001D01*
G01X4417438Y5187001D01*
G01X4467501Y5187001D01*
G01X4471502Y5183001D01*
G01X4471502Y5137001D01*
G37*

G04 Pad Start*
G54D10*
G01X12731174Y6949276D03*
G01X12731174Y6809272D03*
G01X12924289Y6087794D03*
G01X12924289Y6227799D03*
G54D11*
G01X11600165Y4967844D03*
G01X11294145Y4967844D03*
G01X11600510Y4577500D03*
G01X11294490Y4577500D03*
G54D10*
G01X5476698Y4347009D03*
G01X5476698Y4207004D03*
G54D12*
G01X6369998Y5417002D03*
G01X6510003Y5417002D03*
G54D10*
G01X6189183Y5264480D03*
G01X6189183Y5404485D03*
G01X5371091Y5769128D03*
G01X5371091Y5909133D03*
G54D11*
G01X6086123Y5772123D03*
G01X6392143Y5772123D03*
G54D10*
G01X5333634Y4346626D03*
G01X5333634Y4206621D03*
G01X5621124Y4346617D03*
G01X5621124Y4206612D03*
G01X6062501Y4480002D03*
G01X6062501Y4339997D03*
G54D12*
G01X6209171Y4786068D03*
G01X6349176Y4786068D03*
G54D10*
G01X5883595Y5749133D03*
G01X5883595Y5889137D03*
G01X5513590Y5769128D03*
G01X5513590Y5909133D03*
G01X5018995Y5753112D03*
G01X5018995Y5893117D03*
G01X4876481Y5753112D03*
G01X4876481Y5893116D03*
G54D12*
G01X4601086Y5021638D03*
G01X4461082Y5021638D03*
G01X4600001Y4700000D03*
G01X4459996Y4700000D03*
G54D10*
G01X5545002Y2844984D03*
G01X5545002Y2704979D03*
G01X4848003Y3742988D03*
G01X4848003Y3882993D03*
G01X4705498Y3742984D03*
G01X4705498Y3882988D03*
G54D11*
G01X4224491Y3897501D03*
G01X4530510Y3897501D03*
G54D12*
G01X4062502Y3722501D03*
G01X3922498Y3722501D03*
G54D10*
G01X4557498Y2404985D03*
G01X4557498Y2264980D03*
G01X4702503Y2404980D03*
G01X4702503Y2264975D03*
G01X4043397Y2780487D03*
G01X4043397Y2640482D03*
G01X4186026Y2709987D03*
G01X4186026Y2569982D03*
G54D12*
G01X4045940Y3184909D03*
G01X3905935Y3184909D03*
G54D10*
G01X4982507Y2404989D03*
G01X4982507Y2264984D03*
G01X4733575Y5753132D03*
G01X4733575Y5893137D03*
G01X4734748Y5391783D03*
G01X4734748Y5531788D03*
G01X4592249Y5392131D03*
G01X4592249Y5532136D03*
G54D12*
G01X3008850Y3137038D03*
G01X2868845Y3137038D03*
G01X3502995Y3062485D03*
G01X3362990Y3062485D03*
G01X3502995Y2919985D03*
G01X3362990Y2919985D03*
G54D10*
G01X6668731Y5053000D03*
G01X6668731Y5193005D03*
G54D12*
G01X3503002Y2777500D03*
G01X3362998Y2777500D03*
G01X5830002Y2772484D03*
G01X5970007Y2772484D03*
G54D10*
G01X6151456Y3119859D03*
G01X6151456Y2979854D03*
G01X4841252Y2405327D03*
G01X4841252Y2265322D03*
G01X5122150Y2405327D03*
G01X5122150Y2265322D03*
G01X6188775Y5125508D03*
G01X6188775Y4985503D03*
G54D12*
G01X7469495Y5804998D03*
G01X7609500Y5804998D03*
G01X3386645Y4920617D03*
G01X3246640Y4920617D03*
G01X8135171Y2297501D03*
G01X8275176Y2297501D03*
G01X1402498Y8812500D03*
G01X1542502Y8812500D03*
G01X10102664Y2297491D03*
G01X10242668Y2297491D03*
G01X2631578Y8812500D03*
G01X2771582Y8812500D03*
G01X3858816Y8812500D03*
G01X3998821Y8812500D03*
G01X5086738Y8812500D03*
G01X5226742Y8812500D03*
G54D13*
G01X1673732Y6407590D03*
G01X1673732Y6101570D03*
G54D10*
G01X1849504Y6372984D03*
G01X1849504Y6232979D03*
G54D12*
G01X6310697Y8812500D03*
G01X6450701Y8812500D03*
G01X12402673Y2290005D03*
G01X12542677Y2290005D03*
G01X7534158Y8812500D03*
G01X7674162Y8812500D03*
G01X8761658Y8812500D03*
G01X8901662Y8812500D03*
G01X9986578Y8812500D03*
G01X10126582Y8812500D03*
G01X11214118Y8812500D03*
G01X11354123Y8812500D03*
G01X12436818Y8812500D03*
G01X12576822Y8812500D03*
G01X7210003Y3130000D03*
G01X7069998Y3130000D03*
G01X7997502Y3120000D03*
G01X7857498Y3120000D03*
G01X8790002Y3117500D03*
G01X8649998Y3117500D03*
G54D14*
G01X1512700Y7383018D03*
G01X1512700Y7273036D03*
G01X1512700Y7163028D03*
G01X1512700Y7053021D03*
G01X1512700Y6943039D03*
G01X1512700Y6833032D03*
G01X1512700Y6723024D03*
G01X1512700Y6613017D03*
G01X1512700Y7493025D03*
G54D15*
G01X1412700Y7613040D03*
G54D16*
G01X452707Y7613040D03*
G01X452707Y6063031D03*
G54D17*
G01X1412700Y6153023D03*
G54D18*
G01X12365000Y6022868D03*
G01X12365000Y5522132D03*
G54D20*
G01X1572511Y5517504D03*
G01X2012489Y5517504D03*
G01X13184989Y7214994D03*
G01X12745011Y7214994D03*
G54D21*
G01X3005004Y1194866D03*
G01X3194996Y1194866D03*
G01X3100000Y1415134D03*
G01X4397504Y1192366D03*
G01X4587496Y1192366D03*
G01X4492500Y1412634D03*
G01X5092504Y1194866D03*
G01X5282496Y1194866D03*
G01X5187500Y1415134D03*
G54D22*
G01X11990634Y7228071D03*
G01X11990634Y6268078D03*
G54D23*
G01X4371092Y5383642D03*
G01X4371092Y5583641D03*
G54D24*
G01X14489971Y7894995D03*
G01X14700029Y7894995D03*
G01X13469971Y6135000D03*
G01X13680029Y6135000D03*
G54D25*
G01X11297500Y5264969D03*
G01X11297500Y5475027D03*
G54D24*
G01X2005029Y5792499D03*
G01X1794971Y5792499D03*
G54D25*
G01X14571051Y8681143D03*
G01X14571051Y8891201D03*
G54D10*
G01X11999688Y3347245D03*
G01X11999688Y3487250D03*
G54D26*
G01X7163491Y5882500D03*
G01X6726509Y5882500D03*
G01X2804009Y4110000D03*
G01X3240991Y4110000D03*
G54D27*
G01X12903519Y6915494D03*
G01X12903519Y6788494D03*
G01X12903519Y6661494D03*
G01X12903519Y6534494D03*
G01X13443497Y6534494D03*
G01X13443497Y6661494D03*
G01X13443497Y6788494D03*
G01X13443497Y6915494D03*
G54D28*
G01X13173521Y6724994D03*
G54D29*
G01X12524495Y4542492D03*
G01X12524495Y4772489D03*
G01X12524495Y5002486D03*
G54D30*
G01X11930503Y4772489D03*
G54D31*
G01X5018582Y4558382D03*
G01X5058587Y4558382D03*
G01X5098592Y4558382D03*
G01X5138597Y4558382D03*
G01X5178602Y4558382D03*
G01X5218582Y4558382D03*
G01X5258587Y4558382D03*
G01X5298592Y4558382D03*
G01X5338597Y4558382D03*
G01X5378602Y4558382D03*
G01X5418581Y4558382D03*
G01X5458586Y4558382D03*
G01X5498591Y4558382D03*
G01X5538596Y4558382D03*
G01X5578601Y4558382D03*
G01X5618581Y4558382D03*
G01X5658586Y4558382D03*
G01X5698591Y4558382D03*
G01X5738596Y4558382D03*
G01X5778601Y4558382D03*
G54D32*
G01X5889345Y4669126D03*
G01X5889345Y4709131D03*
G01X5889345Y4749136D03*
G01X5889345Y4789141D03*
G01X5889345Y4829146D03*
G01X5889345Y4869125D03*
G01X5889345Y4909130D03*
G01X5889345Y4949135D03*
G01X5889345Y4989140D03*
G01X5889345Y5029145D03*
G01X5889345Y5069125D03*
G01X5889345Y5109130D03*
G01X5889345Y5149135D03*
G01X5889345Y5189140D03*
G01X5889345Y5229145D03*
G01X5889345Y5269125D03*
G01X5889345Y5309130D03*
G01X5889345Y5349135D03*
G01X5889345Y5389140D03*
G01X5889345Y5429145D03*
G54D31*
G01X5778601Y5539889D03*
G01X5738596Y5539889D03*
G01X5698591Y5539889D03*
G01X5658586Y5539889D03*
G01X5618581Y5539889D03*
G01X5578601Y5539889D03*
G01X5538596Y5539889D03*
G01X5498591Y5539889D03*
G01X5458586Y5539889D03*
G01X5418581Y5539889D03*
G01X5378602Y5539889D03*
G01X5338597Y5539889D03*
G01X5298592Y5539889D03*
G01X5258587Y5539889D03*
G01X5218582Y5539889D03*
G01X5178602Y5539889D03*
G01X5138597Y5539889D03*
G01X5098592Y5539889D03*
G01X5058587Y5539889D03*
G01X5018582Y5539889D03*
G54D32*
G01X4907838Y5429145D03*
G01X4907838Y5389140D03*
G01X4907838Y5349135D03*
G01X4907838Y5309130D03*
G01X4907838Y5269125D03*
G01X4907838Y5229145D03*
G01X4907838Y5189140D03*
G01X4907838Y5149135D03*
G01X4907838Y5109130D03*
G01X4907838Y5069125D03*
G01X4907838Y5029145D03*
G01X4907838Y4989140D03*
G01X4907838Y4949135D03*
G01X4907838Y4909130D03*
G01X4907838Y4869125D03*
G01X4907838Y4829146D03*
G01X4907838Y4789141D03*
G01X4907838Y4749136D03*
G01X4907838Y4709131D03*
G01X4907838Y4669126D03*
G54D33*
G01X5398591Y5049135D03*
G54D34*
G01X4412507Y3354990D03*
G01X4412507Y3304977D03*
G01X4412507Y3254990D03*
G01X4412507Y3204978D03*
G01X4412507Y3154990D03*
G01X4412507Y3104978D03*
G01X4412507Y3054991D03*
G01X4412507Y3004978D03*
G01X4412507Y2954991D03*
G01X4412507Y2904978D03*
G01X4412507Y2854991D03*
G01X4412507Y2804978D03*
G54D35*
G01X4562494Y2654991D03*
G01X4612507Y2654991D03*
G01X4662494Y2654991D03*
G01X4712507Y2654991D03*
G01X4762494Y2654991D03*
G01X4812507Y2654991D03*
G01X4862494Y2654991D03*
G01X4912506Y2654991D03*
G01X4962494Y2654991D03*
G01X5012506Y2654991D03*
G01X5062493Y2654991D03*
G01X5112506Y2654991D03*
G54D34*
G01X5262493Y2804978D03*
G01X5262493Y2854991D03*
G01X5262493Y2904978D03*
G01X5262493Y2954991D03*
G01X5262493Y3004978D03*
G01X5262493Y3054991D03*
G01X5262493Y3104978D03*
G01X5262493Y3154990D03*
G01X5262493Y3204978D03*
G01X5262493Y3254990D03*
G01X5262493Y3304977D03*
G01X5262493Y3354990D03*
G54D35*
G01X5112506Y3504977D03*
G01X5062493Y3504977D03*
G01X5012506Y3504977D03*
G01X4962494Y3504977D03*
G01X4912506Y3504977D03*
G01X4862494Y3504977D03*
G01X4812507Y3504977D03*
G01X4762494Y3504977D03*
G01X4712507Y3504977D03*
G01X4662494Y3504977D03*
G01X4612507Y3504977D03*
G01X4562494Y3504977D03*
G54D36*
G01X3572018Y4276991D03*
G01X3699018Y4276991D03*
G01X3826018Y4276991D03*
G01X3953018Y4276991D03*
G01X3572018Y4983009D03*
G01X3699018Y4983009D03*
G01X3826018Y4983009D03*
G01X3953018Y4983009D03*
G54D37*
G01X8026899Y1351500D03*
G01X8026899Y1478500D03*
G01X8026899Y1605500D03*
G01X8026899Y1732500D03*
G01X8026899Y1859500D03*
G01X8026899Y1986500D03*
G01X8026899Y2113500D03*
G01X7503101Y1351500D03*
G01X7503101Y1478500D03*
G01X7503101Y1605500D03*
G01X7503101Y1732500D03*
G01X7503101Y1859500D03*
G01X7503101Y1986500D03*
G01X7503101Y2113500D03*
G54D38*
G01X1536010Y8599994D03*
G01X1409010Y8599994D03*
G01X1409010Y7899996D03*
G01X1536010Y7899996D03*
G01X2766010Y8599994D03*
G01X2639010Y8599994D03*
G01X2639010Y7899996D03*
G01X2766010Y7899996D03*
G54D37*
G01X9992989Y1351500D03*
G01X9992989Y1478500D03*
G01X9992989Y1605500D03*
G01X9992989Y1732500D03*
G01X9992989Y1859500D03*
G01X9992989Y1986500D03*
G01X9992989Y2113500D03*
G01X9469190Y1351500D03*
G01X9469190Y1478500D03*
G01X9469190Y1605500D03*
G01X9469190Y1732500D03*
G01X9469190Y1859500D03*
G01X9469190Y1986500D03*
G01X9469190Y2113500D03*
G54D38*
G01X3993510Y8599994D03*
G01X3866510Y8599994D03*
G01X3866510Y7899996D03*
G01X3993510Y7899996D03*
G01X5221010Y8599994D03*
G01X5094010Y8599994D03*
G01X5094010Y7899996D03*
G01X5221010Y7899996D03*
G01X6443510Y8599994D03*
G01X6316510Y8599994D03*
G01X6316510Y7899996D03*
G01X6443510Y7899996D03*
G01X7668510Y8599994D03*
G01X7541510Y8599994D03*
G01X7541510Y7899996D03*
G01X7668510Y7899996D03*
G54D37*
G01X12287068Y1351500D03*
G01X12287068Y1478500D03*
G01X12287068Y1605500D03*
G01X12287068Y1732500D03*
G01X12287068Y1859500D03*
G01X12287068Y1986500D03*
G01X12287068Y2113500D03*
G01X11763269Y1351500D03*
G01X11763269Y1478500D03*
G01X11763269Y1605500D03*
G01X11763269Y1732500D03*
G01X11763269Y1859500D03*
G01X11763269Y1986500D03*
G01X11763269Y2113500D03*
G54D38*
G01X8893510Y8599994D03*
G01X8766510Y8599994D03*
G01X8766510Y7899996D03*
G01X8893510Y7899996D03*
G01X10121010Y8599994D03*
G01X9994010Y8599994D03*
G01X9994010Y7899996D03*
G01X10121010Y7899996D03*
G01X11346010Y8599994D03*
G01X11219010Y8599994D03*
G01X11219010Y7899996D03*
G01X11346010Y7899996D03*
G54D39*
G01X6937994Y3670510D03*
G01X6810994Y3670510D03*
G01X6683994Y3670510D03*
G01X6556994Y3670510D03*
G01X6937994Y3129490D03*
G01X6810994Y3129490D03*
G01X6683994Y3129490D03*
G01X6556994Y3129490D03*
G54D38*
G01X12571010Y8599994D03*
G01X12444010Y8599994D03*
G01X12444010Y7899996D03*
G01X12571010Y7899996D03*
G54D39*
G01X7725499Y3663010D03*
G01X7598499Y3663010D03*
G01X7471499Y3663010D03*
G01X7344499Y3663010D03*
G01X7725499Y3121990D03*
G01X7598499Y3121990D03*
G01X7471499Y3121990D03*
G01X7344499Y3121990D03*
G01X8510504Y3658010D03*
G01X8383504Y3658010D03*
G01X8256504Y3658010D03*
G01X8129504Y3658010D03*
G01X8510504Y3116990D03*
G01X8383504Y3116990D03*
G01X8256504Y3116990D03*
G01X8129504Y3116990D03*
G54D40*
G01X5747493Y2967483D03*
G01X5967507Y2967483D03*
G01X5967507Y3137485D03*
G01X5747493Y3137485D03*
G54D41*
G01X6513603Y4949126D03*
G01X6513603Y5169141D03*
G01X6343601Y5169141D03*
G01X6343601Y4949126D03*
G54D12*
G01X13379002Y3949000D03*
G01X13238998Y3949000D03*
G54D10*
G01X12478000Y3347245D03*
G01X12478000Y3487250D03*
G54D25*
G01X13004000Y4456029D03*
G01X13004000Y4245971D03*
G54D42*
G01X8537435Y4906000D03*
G01X8347443Y4906000D03*
G01X8442439Y4706000D03*
G01X9063996Y4906000D03*
G01X8874004Y4906000D03*
G01X8969000Y4706000D03*
G54D43*
G01X12700490Y3742500D03*
G01X12700490Y3615500D03*
G01X12700490Y3488500D03*
G01X12700490Y3361500D03*
G01X13241510Y3742500D03*
G01X13241510Y3615500D03*
G01X13241510Y3488500D03*
G01X13241510Y3361500D03*
G04 Pad End*

M02*

