G04 Layer: BottomSolderMaskLayer*
G04 EasyEDA Pro v3.2.148, 2026-08-04 10:02:05*
G04 Gerber Generator version 0.3*
G04 Scale: 100 percent, Rotated: No, Reflected: No*
G04 Dimensions in millimeters*
G04 Leading zeros omitted, absolute positions, 4 integers and 5 decimals*
G04 Generated by one-click*
G04 Object Configs: Pad,Via,Track,Text,Image,Dimension,BoardOutline,BoardCutout,CopperFilled,SolidRegion,FPCStiffener,Line,PlaneZone,ComponentProperty,ComponentSilkscreen,TearDrop*
G04 Layer Configs: 1,15,16,2,3,4,5,6,7,8,9,10,11,13,14,56*
G04 Copper Areas: 0*
%FSLAX45Y45*%
%MOMM*%
%AMRoundRect*1,1,$1,$2,$3*1,1,$1,$4,$5*1,1,$1,0-$2,0-$3*1,1,$1,0-$4,0-$5*20,1,$1,$2,$3,$4,$5,0*20,1,$1,$4,$5,0-$2,0-$3,0*20,1,$1,0-$2,0-$3,0-$4,0-$5,0*20,1,$1,0-$4,0-$5,$2,$3,0*4,1,4,$2,$3,$4,$5,0-$2,0-$3,0-$4,0-$5,$2,$3,0*%
%ADD10C,1.562*%
%ADD11RoundRect,0.062X-0.4X0.45X0.4X0.45*%
%ADD12C,1.586*%
%ADD13C,7.562*%
%ADD14RoundRect,0.1016X-0.40324X0.432X0.40324X0.432*%
%ADD15RoundRect,0.062X-0.85X0.85X0.85X0.85*%
%ADD16C,1.762*%
%ADD17C,1.662*%
%ADD18C,2.562*%
%ADD19RoundRect,0.0615X-0.9X-0.9X-0.9X0.9*%
%ADD20RoundRect,0.062X-0.9X-0.9X-0.9X0.9*%
%ADD21C,1.862*%
%ADD22O,1.862X1.262*%
%ADD23O,2.062X1.262*%
%ADD24C,2.262*%
%ADD25C,2.462*%
%ADD26C,1.6*%
G75*


G04 Pad Start*
G54D10*
G01X11674994Y5732500D03*
G01X11925006Y5732500D03*
G54D11*
G01X4600002Y5022500D03*
G01X4459998Y5022500D03*
G54D12*
G01X522502Y1784249D03*
G01X317498Y1275741D03*
G54D13*
G01X500000Y500000D03*
G01X14500000Y500000D03*
G01X500000Y9500000D03*
G01X14500000Y9500000D03*
G54D14*
G01X3388509Y4350408D03*
G01X3237837Y4350408D03*
G54D15*
G01X6556500Y6257499D03*
G54D16*
G01X6810500Y6257499D03*
G01X7064500Y6257499D03*
G01X7318500Y6257499D03*
G54D17*
G01X579697Y2786398D03*
G01X749699Y2532398D03*
G01X579697Y3797394D03*
G01X749699Y3543394D03*
G54D12*
G01X1722697Y3609384D03*
G01X1976697Y3482384D03*
G01X1722697Y3355384D03*
G01X1976697Y3228384D03*
G01X1722697Y3101384D03*
G01X1976697Y2974384D03*
G01X1722697Y2847384D03*
G01X1976697Y2720384D03*
G54D18*
G01X1392690Y3952401D03*
G01X1392685Y2377400D03*
G54D20*
G01X13317120Y7750004D03*
G54D21*
G01X13317120Y8004004D03*
G01X13317120Y8512004D03*
G01X13317120Y9020004D03*
G54D22*
G01X274701Y4807405D03*
G54D23*
G01X692683Y4807405D03*
G01X692683Y5672428D03*
G54D22*
G01X274701Y5672428D03*
G54D24*
G01X1915335Y9200000D03*
G01X1565349Y9200000D03*
G01X1215337Y9200000D03*
G01X3140751Y9200000D03*
G01X2790764Y9200000D03*
G01X2440752Y9200000D03*
G01X4366166Y9200000D03*
G01X4016180Y9200000D03*
G01X3666168Y9200000D03*
G01X5591582Y9200000D03*
G01X5241595Y9200000D03*
G01X4891583Y9200000D03*
G01X6816997Y9200000D03*
G01X6467011Y9200000D03*
G01X6116999Y9200000D03*
G01X8042413Y9200000D03*
G01X7692426Y9200000D03*
G01X7342414Y9200000D03*
G01X9267828Y9200000D03*
G01X8917841Y9200000D03*
G01X8567829Y9200000D03*
G01X10493244Y9200000D03*
G01X10143257Y9200000D03*
G01X9793245Y9200000D03*
G01X11718659Y9200000D03*
G01X11368672Y9200000D03*
G01X11018660Y9200000D03*
G01X12944075Y9200000D03*
G01X12594088Y9200000D03*
G01X12244076Y9200000D03*
G01X2578768Y800452D03*
G01X2928755Y800452D03*
G01X3278767Y800452D03*
G54D25*
G01X14191058Y4889412D03*
G01X14191058Y5239398D03*
G54D24*
G01X6380642Y806452D03*
G01X6730629Y806452D03*
G01X7080641Y806452D03*
G01X7430627Y806452D03*
G01X7956547Y806452D03*
G01X8306534Y806452D03*
G01X8656546Y806452D03*
G01X9006532Y806452D03*
G01X9532452Y806452D03*
G01X9882439Y806452D03*
G01X10232451Y806452D03*
G01X10582437Y806452D03*
G01X11108357Y806452D03*
G01X11458344Y806452D03*
G01X11808356Y806452D03*
G01X12158342Y806452D03*
G01X12684262Y806452D03*
G01X13034249Y806452D03*
G01X13384261Y806452D03*
G01X13734247Y806452D03*
G01X14191048Y3307497D03*
G01X14191048Y3657484D03*
G01X14191048Y4007496D03*
G01X14191048Y4357482D03*
G54D25*
G01X14191048Y1379312D03*
G01X14191048Y1729299D03*
G01X14191048Y2079311D03*
G01X14191048Y2429297D03*
G01X14191048Y2779284D03*
G01X3960442Y806452D03*
G01X4310429Y806452D03*
G01X4660441Y806452D03*
G01X5010427Y806452D03*
G01X5360427Y806452D03*
G01X5710426Y806452D03*
G01X14191058Y5787503D03*
G01X14191058Y6137489D03*
G54D21*
G01X13244001Y2995000D03*
G01X12374000Y2995000D03*
G54D26*
G01X11729000Y3960007D03*
G01X11978987Y4209993D03*
G01X12228999Y3960007D03*
G54D13*
G01X7500000Y5000000D03*
G04 Pad End*

M02*

